<svg width="43" height="43" viewBox="0 0 43 43" fill="none" xmlns="http://www.w3.org/2000/svg">
<g clip-path="url(#clip0)">
<path d="M0 22.5151V0H10.712C10.7139 0.0414258 10.7074 0.0828027 10.693 0.121695C10.5982 0.510717 10.534 0.906554 10.501 1.30559C10.4256 2.14093 10.4659 2.98268 10.6206 3.80703C10.8101 4.86954 11.235 5.87615 11.8643 6.75304C11.8797 6.77415 11.8931 6.79666 11.91 6.81635C11.9459 6.85715 11.9367 6.8867 11.8973 6.92117C11.8685 6.94368 11.8424 6.969 11.8157 6.99151C11.2869 7.46409 10.8456 8.02633 10.5122 8.65234C9.99943 9.60972 9.75604 10.6403 9.6878 11.7151C9.62417 12.6508 9.69524 13.5909 9.89884 14.5064C10.1718 15.7156 10.6614 16.8277 11.4281 17.8034C12.5635 19.2525 14.0569 20.1381 15.831 20.5736C16.7787 20.7974 17.7525 20.8921 18.7256 20.8549C19.6158 20.8375 20.4995 20.7002 21.353 20.4469C23.4893 19.7956 25.108 18.5062 26.109 16.4985C27.0642 14.5816 27.2809 12.5593 26.8433 10.4686C26.5862 9.20959 25.943 8.06204 25.0031 7.18566C24.9166 7.10336 24.8273 7.02457 24.7422 6.94579C24.7616 6.89417 24.7902 6.8465 24.8266 6.8051C25.0637 6.46946 25.2724 6.11463 25.4505 5.74431C25.859 4.8885 26.1149 3.96794 26.2067 3.0241C26.2936 2.20306 26.259 1.3737 26.104 0.562754C26.0682 0.374231 26.0224 0.187819 25.9809 0H43V43H12.8343C12.8195 42.9627 12.8477 42.943 12.8667 42.9191C12.9243 42.8488 12.9841 42.7735 13.0397 42.6982C14.0885 41.2963 14.5809 39.7058 14.6379 37.9725C14.6773 36.8062 14.4353 35.6877 13.9865 34.6143C13.5576 33.5586 12.895 32.6139 12.0486 31.8511C10.7226 30.6651 9.14264 30.1087 7.39177 29.9786C6.85082 29.9385 6.30987 29.954 5.76893 29.9504C5.68522 29.9504 5.60221 29.9504 5.51921 29.9462C5.13864 29.9195 4.84531 29.7078 4.74542 29.3652C4.64342 28.9987 4.67508 28.6216 4.70603 28.2488C4.71517 28.1187 4.80451 28.0526 4.93816 28.0378C5.01062 28.0306 5.08345 28.028 5.15623 28.0301C7.74771 28.0301 10.3392 28.0301 12.9307 28.0301C13.0502 28.0311 13.1698 28.0255 13.2887 28.0132C13.6665 27.9717 13.9042 27.755 13.9922 27.3864C14.0159 27.2691 14.026 27.1494 14.0224 27.0298C14.0224 25.8574 14.0224 24.6866 14.0224 23.5175C14.0224 23.4471 14.0224 23.3712 14.0161 23.2987C13.9816 22.8766 13.7537 22.6227 13.3401 22.5369C13.222 22.5174 13.1023 22.5101 12.9827 22.5151H0.452313C0.301073 22.5101 0.150537 22.5137 0 22.5151ZM8.59254 10.6972C8.59254 7.83658 8.59254 4.97591 8.59254 2.11525C8.59254 1.56234 8.34775 1.3077 7.79625 1.30207C7.05763 1.29433 6.31902 1.30207 5.5797 1.30207C5.42293 1.30188 5.2693 1.34602 5.13653 1.42939C4.019 2.09907 2.89959 2.76828 1.7783 3.43702C1.4315 3.64383 1.24087 3.93505 1.23876 4.34094C1.23876 4.86641 1.23876 5.39188 1.23876 5.91735C1.23948 5.95383 1.24229 5.99024 1.2472 6.02639C1.25995 6.18636 1.32849 6.33677 1.44087 6.45133C1.55325 6.5659 1.70231 6.63733 1.86201 6.65315C1.94432 6.66431 2.02726 6.67018 2.11033 6.67074C2.45361 6.67074 2.79689 6.67074 3.14087 6.67074C3.21825 6.67074 3.29703 6.67074 3.37441 6.68059C3.70151 6.71576 3.90199 6.90077 3.97585 7.22224C3.99761 7.34524 4.00539 7.47031 3.99907 7.59506V19.1484C3.99907 19.2187 3.99907 19.294 3.99907 19.3665C4.02017 19.7787 4.24738 20.0305 4.65538 20.0924C4.71197 20.1009 4.7691 20.1051 4.82632 20.1051H7.77866C7.86715 20.1051 7.95536 20.0954 8.04175 20.0762C8.16569 20.0544 8.28059 19.9969 8.37241 19.9109C8.46422 19.8248 8.52899 19.7138 8.55878 19.5916C8.58786 19.4648 8.59923 19.3346 8.59254 19.2047V10.6972ZM22.6783 31.9109C22.6783 29.0901 22.6783 26.2696 22.6783 23.4492C22.6805 23.3453 22.6775 23.2413 22.6691 23.1376C22.6339 22.8077 22.4518 22.6093 22.1296 22.5348C22.0369 22.5166 21.9425 22.5091 21.8482 22.5123C21.13 22.5123 20.4118 22.5123 19.6936 22.5123C19.5164 22.5102 19.3423 22.559 19.192 22.6529C18.5877 23.0208 17.9807 23.3831 17.375 23.7482C16.8592 24.0582 16.3421 24.3689 15.8239 24.6803C15.6978 24.749 15.5889 24.8455 15.5054 24.9623C15.4218 25.0791 15.3657 25.2133 15.3414 25.3549C15.3261 25.4578 15.3193 25.5618 15.321 25.6658C15.321 26.1188 15.321 26.5718 15.321 27.0241C15.3204 27.1021 15.3243 27.1801 15.3329 27.2577C15.3479 27.4039 15.4096 27.5414 15.509 27.6498C15.6083 27.7582 15.74 27.8316 15.8844 27.8591C15.9711 27.878 16.0595 27.8874 16.1482 27.8873C16.3818 27.8873 16.616 27.8873 16.8517 27.8873C17.0078 27.8873 17.164 27.8873 17.3201 27.8873C17.8182 27.8964 18.0742 28.1546 18.0841 28.6554C18.0841 28.7335 18.0841 28.8116 18.0841 28.8897C18.0841 32.7145 18.0841 36.5391 18.0841 40.3635C18.0841 40.4338 18.0841 40.5098 18.0841 40.5823C18.1094 40.9945 18.3345 41.2505 18.7242 41.3089C18.786 41.3166 18.8484 41.3196 18.9106 41.3181H21.8651C21.9115 41.3181 21.9586 41.3181 22.0058 41.3139C22.4067 41.2766 22.6508 41.0261 22.6755 40.6245C22.6804 40.5415 22.6797 40.4578 22.6797 40.3748C22.6797 37.553 22.6792 34.7317 22.6783 31.9109Z" fill="white"/>
<path d="M0 35.2866C0.0870328 35.2729 0.175496 35.2707 0.263087 35.2802C1.84513 35.2802 3.42858 35.2802 5.00921 35.2852C5.63972 35.2796 6.26708 35.3746 6.8677 35.5665C7.03067 35.6202 7.18919 35.6865 7.34182 35.7649C8.03331 36.1237 8.44201 36.6963 8.61716 37.4476C8.71354 37.8598 8.73886 38.2727 8.60732 38.6807C8.36181 39.4439 7.8272 39.8766 7.04286 40.0004C6.62465 40.064 6.19758 40.0357 5.79144 39.9174C5.50098 39.8408 5.23116 39.7007 5.00147 39.5072C4.77179 39.3136 4.58798 39.0715 4.46334 38.7982C4.32602 38.5117 4.23123 38.2067 4.18196 37.8928C4.16303 37.7589 4.12856 37.6277 4.07926 37.5017C4.0251 37.3511 3.92048 37.2238 3.78317 37.1415C3.64585 37.0591 3.48428 37.0269 3.32587 37.0501C3.06334 37.0868 2.80311 37.1385 2.54646 37.2049C1.72343 37.3835 0.901813 37.5664 0.0794889 37.7472C0.0538752 37.7511 0.0280192 37.7533 0.00211032 37.7536L0 35.2866Z" fill="white"/>
<path d="M18.5624 9.85515C18.8992 9.86259 19.2332 9.91825 19.5542 10.0205C20.4033 10.2962 20.8908 10.885 21.0434 11.7551C21.1313 12.2118 21.1181 12.6822 21.0047 13.1332C20.7817 13.9773 20.231 14.5091 19.4086 14.7567C18.6619 14.9876 17.8607 14.9725 17.1231 14.7138C16.3135 14.4324 15.8422 13.8535 15.6811 13.0206C15.5837 12.5445 15.5969 12.0523 15.7198 11.5821C15.9421 10.7492 16.4936 10.2399 17.3067 9.99372C17.6226 9.89806 18.0024 9.84811 18.5624 9.85515Z" fill="white"/>
<path d="M18.3302 5.03743C17.9687 5.04329 17.6088 4.98885 17.2652 4.87634C16.4738 4.60622 16.0292 4.04698 15.8991 3.23029C15.8365 2.84885 15.8491 2.45884 15.9364 2.08227C16.1263 1.27401 16.6258 0.745729 17.4136 0.502338C18.0558 0.304976 18.7428 0.30792 19.3832 0.510779C20.1732 0.751357 20.6333 1.30074 20.7901 2.10548C20.8816 2.52447 20.8796 2.95844 20.7845 3.3766C20.5925 4.16375 20.0811 4.65476 19.3242 4.90026C19.0028 5.00125 18.6668 5.04761 18.3302 5.03743Z" fill="white"/>
</g>
<defs>
<clipPath id="clip0">
<rect width="43" height="43" fill="white"/>
</clipPath>
</defs>
</svg>
