<svg data-name="Layer 1" xmlns="http://www.w3.org/2000/svg" viewBox="0 0 1253 204"><path d="M425.84 137.06q13.48-6.3 13.48-26.63 0-13.89-8.7-23.06-9.42-9.73-25.51-9.74h-44.95q-1.16 0-1.16 1.3v94.5q0 1.3 1.16 1.3h23.78c.77 0 1.15-.44 1.15-1.3l.02-27.35h16.66q11.02 17.19 15.51 25.78 1.46 2.86 3.05 2.86h25.66q1.46 0 1.46-1.14a6.24 6.24 0 00-1.17-2.73q-14.35-23.62-20.44-33.79m-17.25-14.53a11.31 11.31 0 01-9 4.08l-14.5-.09V98.97h14.36q12.33 0 12.33 13.32 0 6.3-3.2 10.23M526.18 75.63q-21.75 0-36.61 14.82a48.95 48.95 0 00-14.87 36.01q0 21.2 14.8 35.95 14.78 14.75 36.68 14.75 21.89 0 36.68-14.75 14.8-14.75 14.8-35.95a48.95 48.95 0 00-14.87-36q-14.86-14.83-36.6-14.83m17.97 69.45q-6.67 7.59-17.98 7.59-11.46 0-17.98-7.59-6.38-7.16-6.38-18.62 0-11.45 6.45-18.9 6.45-7.44 17.91-7.45 11.16 0 17.98 7.6 6.38 7.3 6.38 18.75 0 11.46-6.38 18.62M661.02 75.63q-21.75 0-36.61 14.82a48.95 48.95 0 00-14.86 36.01q0 21.2 14.79 35.95 14.78 14.75 36.68 14.75t36.69-14.75q14.8-14.75 14.78-35.95a48.95 48.95 0 00-14.86-36q-14.86-14.83-36.6-14.83M679 145.08q-6.67 7.59-17.98 7.59-11.45 0-17.98-7.59-6.38-7.16-6.37-18.62 0-11.45 6.45-18.9 6.44-7.44 17.9-7.45 11.16 0 17.98 7.6 6.38 7.3 6.38 18.75 0 11.46-6.38 18.62M747.44 76.63q-1.89-1.86-2.03 1-2.46 52.41-2.9 96.38c0 .57.05.86.14.86h22.92q1.59 0 1.59-2.02l1.01-40.94c7.46 7.42 13.2 13.16 17.3 17.26v-34.78q-11.77-12.23-38.03-37.76" fill="#65c7cc"/><path d="M853.2 75.34a1.4 1.4 0 00-1.3.43q-23.77 22.66-37.74 38.19v35.39a1424.8 1424.8 0 0017-17.3l.87 41.67a1.02 1.02 0 001.16 1.15h23.64c.68 0 1.02-.67 1.02-2.01q-1.6-53.84-3.92-96.37 0-1-.73-1.15M935.88 75.63q-16.38 0-27.33 9.8a31.91 31.91 0 00-10.95 24.86q0 34.36 34.37 34.36a30.55 30.55 0 0013.27-3.15q6.59-3.15 8.77-7.59.87 10.45-4.2 17.12-5.08 6.65-14.36 6.65a15.08 15.08 0 01-7.98-2.3 11.4 11.4 0 01-5.07-5.86q-.58-1.57-1.88-1l-19.15 8.73c-.87.38-1.06 1.14-.58 2.3q8.55 18.18 33.06 18.18 21.76 0 33.57-14.03 11.81-14.04 11.82-39.24 0-23.92-11.1-36.37-11.09-12.46-32.26-12.46m11.9 46.25a15.04 15.04 0 01-10.6 3.87 14.57 14.57 0 01-10.36-3.87q-4.13-3.87-4.13-11.02 0-7.3 4.35-11.32a14.31 14.31 0 0110.3-3.72 14.87 14.87 0 0110.43 3.72q4.2 4.16 4.21 11.32 0 7.16-4.2 11.02M1207.73 123.03a20.49 20.49 0 009.86-8.3 23 23 0 003.92-12.75q0-12.46-9.79-19.4-9.8-6.95-25.74-6.95-30.31 0-39 25.77a1.7 1.7 0 001.16 2.44q12.03 4.3 18.12 6.73 1.74.58 2.32-1.72 3.19-14.6 14.8-14.6 6.22 0 9.56 3.93a13.86 13.86 0 013.33 9.24 13.52 13.52 0 01-5.15 10.96 23.8 23.8 0 01-12.68 5.08c-.3 0-.44.67-.44 2q0 2.15.3 2.15 9.85.14 15.87 4.3a13.58 13.58 0 016.02 11.88q0 14.17-15.23 14.17-7.39 0-11.45-4.22t-4.2-11.53c0-1.52-.44-2.14-1.3-1.86q-14.5 5.02-21.32 7.45-1.31.43-1.17 2.44a25.74 25.74 0 0010.59 18.9q10.29 8.02 27.7 8.01 20.3 0 31.24-7.94 10.94-7.95 10.95-22.56 0-20.33-18.27-23.62M1063.98 75.63q-21.75 0-36.61 14.82a48.95 48.95 0 00-14.87 36.01q0 21.2 14.8 35.95 14.78 14.75 36.68 14.75 21.89 0 36.68-14.75 14.8-14.75 14.79-35.95a48.96 48.96 0 00-14.86-36q-14.86-14.83-36.61-14.83m17.98 69.45q-6.67 7.59-17.98 7.59-11.45 0-17.98-7.59-6.38-7.16-6.38-18.62 0-11.45 6.45-18.9 6.45-7.44 17.9-7.45 11.17 0 17.99 7.6 6.37 7.3 6.38 18.75 0 11.46-6.38 18.62" fill="#37728e"/><path d="M182.8 135.6h98.94c12.38 0 22.52-9 22.52-20V113H189.92z" fill="#fff"/><path d="M182.8 135.6h98.94c12.38 0 22.52-9 22.52-20V113H189.92z" fill="none" stroke="#37728e" stroke-linecap="round" stroke-linejoin="round" stroke-width="2"/><path d="M175.58 158.2h78.5c12.38 0 22.52-9 22.52-20v-2.6h-93.9z" fill="#fff"/><path d="M175.58 158.2h78.5c12.38 0 22.52-9 22.52-20v-2.6h-93.9z" fill="none" stroke="#37728e" stroke-linecap="round" stroke-linejoin="round" stroke-width="2"/><path d="M168.49 180.8h56.34c12.4 0 22.53-9 22.53-20v-2.6H175.6z" fill="#fff"/><path d="M168.49 180.8h56.34c12.4 0 22.53-9 22.53-20v-2.6H175.6z" fill="none" stroke="#37728e" stroke-linecap="round" stroke-linejoin="round" stroke-width="2"/><path d="M149.45 135.6H50.52c-12.39 0-22.52-9-22.52-20V113h114.34z" fill="#fff"/><path d="M149.45 135.6H50.52c-12.39 0-22.52-9-22.52-20V113h114.34z" fill="none" stroke="#37728e" stroke-linecap="round" stroke-linejoin="round" stroke-width="2"/><path d="M156.68 158.2h-78.5c-12.39 0-22.52-9-22.52-20v-2.6h93.9z" fill="#fff"/><path d="M156.68 158.2h-78.5c-12.39 0-22.52-9-22.52-20v-2.6h93.9z" fill="none" stroke="#37728e" stroke-linecap="round" stroke-linejoin="round" stroke-width="2"/><path d="M163.77 180.8h-56.35c-12.38 0-22.52-9-22.52-20v-2.6h71.76z" fill="#fff"/><path d="M163.77 180.8h-56.35c-12.38 0-22.52-9-22.52-20v-2.6h71.76z" fill="none" stroke="#37728e" stroke-linecap="round" stroke-linejoin="round" stroke-width="2"/><path d="M183.75 89.38h-35.57a.95.95 0 00-.94.95v11.86a.95.95 0 00.94.95h35.57a.95.95 0 00.95-.95V90.33a.95.95 0 00-.95-.95" fill="#37728e"/><path fill="#65c7cc" d="M166.18 182.69h27.62l20.95-73.73-34.76-8.37-13.81 9.26-13.82-9.26-34.76 8.37 20.95 73.73h27.63z"/><path d="M217.2 107.51a2.85 2.85 0 00-1.78-1.32l-34.76-8.36a2.83 2.83 0 00-2.25.4l-12.23 8.2-12.24-8.2a2.83 2.83 0 00-2.24-.4l-34.76 8.36a2.85 2.85 0 00-2.08 3.52l19.96 72.98h5.9l-19.6-71.65 30.7-7.39 12.77 8.57a2.85 2.85 0 003.17 0l12.78-8.57 30.69 7.39-19.6 71.65h5.9l19.97-72.98a2.85 2.85 0 00-.3-2.2" fill="#37728e"/><path d="M180.12 91.44a35.8 35.8 0 0020.54-42.9H131.7a35.8 35.8 0 0020.51 42.9l13.97 9.25z" fill="#fff"/><path d="M180.12 91.44a35.8 35.8 0 0020.54-42.9H131.7a35.8 35.8 0 0020.51 42.9l13.97 9.25z" fill="none" stroke="#37728e" stroke-linecap="round" stroke-linejoin="round" stroke-width="3"/><path d="M201.47 57.2c-20.37 5.46-28.97-8.67-28.97-8.67-6.23 15.5-41.56 14.64-41.56 14.64a25.3 25.3 0 01.76-14.64h68.96s2.24 8.3.8 8.68" fill="#f1f1f2"/><path d="M201.47 57.2c-20.37 5.46-28.97-8.67-28.97-8.67-6.23 15.5-41.56 14.64-41.56 14.64a25.3 25.3 0 01.76-14.64h68.96s2.24 8.3.8 8.68z" fill="none" stroke="#37728e" stroke-miterlimit="10" stroke-width="2"/><path fill="#f1f1f2" d="M166.18 110l-13.82-9.4v-9.21l13.82 9.3v9.3z"/><path fill="none" stroke="#37728e" stroke-linecap="round" stroke-linejoin="round" d="M166.18 110l-13.82-9.4v-9.21l13.82 9.3v9.3z"/><path fill="#f1f1f2" d="M166.3 110l13.82-9.4v-9.21l-13.81 9.3v9.3z"/><path fill="none" stroke="#37728e" stroke-linecap="round" stroke-linejoin="round" d="M166.3 110l13.82-9.4v-9.21l-13.81 9.3v9.3z"/><path d="M159.85 135.45a1.92 1.92 0 11-1.92-1.93 1.92 1.92 0 011.92 1.93M159.85 148.17a1.92 1.92 0 11-1.92-1.92 1.92 1.92 0 011.92 1.92M159.85 160.9a1.92 1.92 0 11-1.92-1.93 1.92 1.92 0 011.92 1.92M177.06 134.58h21.34l-10.66 7.5-10.68-7.5z" fill="#fff"/><path d="M166.3 48.53h34.64c-.14-.5 4.79-29.69 4.79-29.69h-78.85s4.93 29.19 4.8 29.7z" fill="#65c7cc"/><path d="M166.3 48.53h34.64c-.14-.5 4.79-29.69 4.79-29.69h-78.85s4.93 29.19 4.8 29.7z" fill="none" stroke="#37728e" stroke-linecap="round" stroke-linejoin="round" stroke-width="3"/><path fill="none" stroke="#37728e" stroke-miterlimit="10" d="M166.18 110v72.69"/><path d="M166.3 48.53h34.64c-.14-.5 4.79-29.69 4.79-29.69h-78.85s4.93 29.19 4.8 29.7z" fill="#65c7cc"/><path d="M166.3 48.53h34.64c-.14-.5 4.79-29.69 4.79-29.69h-78.85s4.93 29.19 4.8 29.7z" fill="none" stroke="#37728e" stroke-linecap="round" stroke-linejoin="round" stroke-width="3"/><path fill="#fff" d="M143.95 46.76l-4.04-26.12h6.98l3.94 26.16-6.88-.04z"/><path d="M141.2 21.75h4.73l3.6 23.93-4.63-.02zm-2.59-2.22l.4 2.56 3.7 23.9.29 1.88h1.89l4.64.03 2.58.01-.38-2.56-3.6-23.93-.29-1.88H141.2zM137.35 178.83h57.58v3.86h-57.58z" fill="#37728e"/></svg>