<svg width="13" height="10" viewBox="0 0 13 10" fill="none" xmlns="http://www.w3.org/2000/svg">
<path d="M10.8 0.655884H2.2C1.61652 0.655884 1.05694 0.876563 0.644365 1.26938C0.231785 1.66219 0 2.19496 0 2.75048V7.13008C0 7.6856 0.231785 8.21837 0.644365 8.61118C1.05694 9.00399 1.61652 9.22467 2.2 9.22467H10.8C11.3835 9.22467 11.9431 9.00399 12.3556 8.61118C12.7682 8.21837 13 7.6856 13 7.13008V2.75048C13 2.19496 12.7682 1.66219 12.3556 1.26938C11.9431 0.876563 11.3835 0.655884 10.8 0.655884ZM9.046 5.02406L5.146 6.92824C5.13082 6.93573 5.11387 6.93938 5.09678 6.93886C5.07969 6.93833 5.06302 6.93365 5.04838 6.92524C5.03373 6.91684 5.02159 6.905 5.01312 6.89085C5.00465 6.87671 5.00014 6.86073 5 6.84445V3.0361C5.00014 3.01982 5.00465 3.00385 5.01312 2.9897C5.02159 2.97556 5.03373 2.96372 5.04838 2.95531C5.06302 2.94691 5.07969 2.94222 5.09678 2.9417C5.11387 2.94117 5.13082 2.94483 5.146 2.95232L9.046 4.85649C9.06238 4.86448 9.07613 4.87662 9.08573 4.89157C9.09532 4.90652 9.1004 4.92371 9.1004 4.94123C9.1004 4.95875 9.09532 4.97593 9.08573 4.99089C9.07613 5.00584 9.06238 5.01798 9.046 5.02597V5.02406Z" fill="#979797"/>
</svg>
