<svg xmlns="http://www.w3.org/2000/svg" id="Layer_1" data-name="Layer 1" viewBox="0 0 490 490">
  <defs>
    <style>
      .cls-6{fill:#fff}
    </style>
    <linearGradient id="linear-gradient" x1="162.06" x2="332.69" y1="410.3" y2="410.3" gradientUnits="userSpaceOnUse">
      <stop offset="0" stop-color="#a1a1a1"/>
      <stop offset=".06" stop-color="#b2b2b2"/>
      <stop offset=".19" stop-color="#d4d4d4"/>
      <stop offset=".31" stop-color="#ececec"/>
      <stop offset=".43" stop-color="#fafafa"/>
      <stop offset=".52" stop-color="#fff"/>
      <stop offset=".64" stop-color="#fcfcfb"/>
      <stop offset=".75" stop-color="#f1f1f1"/>
      <stop offset=".86" stop-color="#dfdfde"/>
      <stop offset=".96" stop-color="#c6c6c5"/>
      <stop offset="1" stop-color="#babab9"/>
    </linearGradient>
    <linearGradient id="linear-gradient-2" x1="249.73" x2="249.73" y1="500.25" y2="323.28" gradientUnits="userSpaceOnUse">
      <stop offset="0" stop-color="#fff"/>
      <stop offset=".24" stop-color="#fbfbfb"/>
      <stop offset=".48" stop-color="#f0f0ef"/>
      <stop offset=".71" stop-color="#dcdcdc"/>
      <stop offset=".95" stop-color="#c1c1c0"/>
      <stop offset="1" stop-color="#babab9"/>
    </linearGradient>
  </defs>
  <path fill="#dbdbdb" d="M-.12 0H490.5v489.8H-.12z"/>
  <path fill="url(#linear-gradient)" d="M332.69 442.33c-56.52-20-113.66-19.32-170.63 0v-53.42c57.35-14.65 114.19-13.7 170.63 0z"/>
  <path fill="url(#linear-gradient-2)" d="M308.69 343.42c-4.27 0 3.42 54.12 7.37 67.11 9 29.62 119.11 54.7 119.92 74.34.22 5.13 0 5.13 0 5.13H63.38l34.7-33.32 26.39-6.84 14-6.63a42.24 42.24 0 0 0 7.65-4.63L175 416.71a45.4 45.4 0 0 0 8.3-28.39c-.76-17.09-.76-44.9-.76-44.9z"/>
  <path fill="#a8a8a8" d="M158.78 260s-19.78-36.77-23.22-42.48 2.61-25.31 0-29.39-3.47-63.67 17.36-81.63 33-22.86 33-22.86.87-7.35 20-7.35 2.72-12.24 33.88-7.29 37.2 4.84 37.2 4.84l7-.84s25.17 9.79 23.44 20.41 25.17 0 25.17 0v7.34s22.56.82 22.56 57.15c0 54.23-4.21 73.63-10.41 76.73s-17.64 14.13-17.64 14.13 2.88-98.15-24.92-97.36-48.13 14.75-115.43 0C172 148.16 151 240.4 158.78 260z"/>
  <path fill="#f4f4f4" d="M156.51 294.51s12 58.56 42 76.73c47 28.39 79.18 4.31 79.18 4.31s37.46-33.52 43.6-53.29a283.76 283.76 0 0 0 7.42-27.75 11.46 11.46 0 0 0 8.24-4.08c3.3-4.09 4.12-30.21 6.59-37.56s4.12-19.59-4.12-18.77-12.36 14.69-12.36 14.69 7.48-24.69 2.54-39.38-1.71-45.52-21.49-57.76-45-8.16-57.09-4.08-37.68 1.63-53.34-4.08-28.81 21.22-31.28 33.51-10.72 62-9.89 71.83l.82 9.8s-5.76-26.12-10.71-27.76-14-1.63-12.36 18 3.65 4.43 10.71 40.82c4.12 21.14 11.54 4.82 11.54 4.82z"/>
  <path d="M162 389.3s-7.18 42.21-11.78 43.4 51 28.56 71.51 31.19c0 0 12.29-21.25 26.06-27.67-.04 0-82.99-28.12-85.79-46.92zM332.84 388.91S340.39 431 345 432.18s-50.17 29.1-70.37 32c0 0-12.39-21.12-26.07-27.4-.05-.04 81.67-29.04 84.28-47.87z" class="cls-6"/>
</svg>
