<?xml version="1.0" standalone="no"?>
<!DOCTYPE svg PUBLIC "-//W3C//DTD SVG 1.1//EN" "http://www.w3.org/Graphics/SVG/1.1/DTD/svg11.dtd" >
<svg>
<metadata>
Created by FontForge 20090622 at Thu Nov 15 12:49:43 2018
 By deploy user
Copyright (c) 2004 by Muthu Nedumaran. All rights reserved.
</metadata>
<defs>
<font id="SinhalaSangamMN" horiz-adv-x="1426" >
  <font-face 
    font-family="Sinhala Sangam MN"
    font-weight="400"
    font-stretch="normal"
    units-per-em="2048"
    panose-1="2 0 0 0 0 0 0 0 0 0"
    ascent="1536"
    descent="-512"
    x-height="814"
    cap-height="1134"
    bbox="-959 -512 2888 1699"
    underline-thickness="50"
    underline-position="-50"
    unicode-range="U+0020-U+25CC"
  />
<missing-glyph horiz-adv-x="0" 
 />
    <glyph glyph-name="sin_ee_matra" unicode="&#xdd9;&#xdca;" horiz-adv-x="2256" 
d="M736 737q-9 18 -26.5 45t-46.5 52t-71 43t-101 18q-60 0 -115.5 -26t-98.5 -76.5t-68.5 -126t-25.5 -174.5t31 -169.5t77 -114.5t100 -64.5t100 -20.5q85 0 145 50t85 133q-29 -30 -68 -45t-101 -15q-53 3 -93 25.5t-67 57t-41 77.5t-14 86q0 46 17 90t48 78.5t74.5 55.5
t95.5 21q69 0 122.5 -30t90 -77t55.5 -103.5t19 -110.5q0 -99 -30 -176.5t-80.5 -130.5t-117.5 -81t-140 -28q-109 0 -190 45.5t-134.5 116.5t-80 158.5t-26.5 171.5q0 98 19.5 175.5t53 135.5t77 99t91 67t97 37.5t93.5 11.5q67 0 122.5 -16t99.5 -44.5t76.5 -69
t55.5 -89.5zM572 614q-23 0 -43.5 -11.5t-35.5 -29t-24 -39t-9 -42.5q0 -29 9.5 -52t25 -39t35 -24t40.5 -8q16 0 38.5 3.5t44.5 16.5t41.5 37t30.5 65q-15 55 -53.5 89t-99.5 34zM1779 1453q51 -2 111.5 -12t113 -34t87.5 -63.5t35 -99.5q0 -58 -36.5 -93.5t-103.5 -35.5
q-44 0 -101 18v-191l-106 25v486zM1885 1215q39 -15 71 -15q30 0 48.5 14.5t18.5 43.5q0 26 -15.5 45t-37 32t-45.5 21l-40 13v-154zM1882 844q0 -49 -49 -49q-53 0 -53 49q0 50 53 50q49 0 49 -50zM1986 694q0 -52 -52 -52t-52 52q0 48 53 48q51 0 51 -48zM1734 943
q0 -49 -51 -49q-54 0 -54 49q0 53 54 53q51 0 51 -53zM2020 516q0 -50 -49 -50q-53 0 -53 50q0 51 53 51q49 0 49 -51zM1553 981q0 -52 -48 -52q-51 0 -51 52q0 48 51 48q48 0 48 -48zM1986 337q0 -49 -52 -49t-52 49q0 53 52 53t52 -53zM1377 943q0 -49 -49 -49
q-50 0 -50 49q0 53 50 53q49 0 49 -53zM1882 186q0 -50 -49 -50q-48 0 -48 50q0 52 48 52q49 0 49 -52zM1227 844q0 -49 -54 -49q-47 0 -47 48q0 51 47 51q54 0 54 -50zM1734 87q0 -51 -51 -51t-51 51q0 52 51 52t51 -52zM1126 694q0 -52 -48 -52q-53 0 -53 52q0 48 52 48
q49 0 49 -48zM1092 516q0 -50 -51 -50q-54 0 -54 50q0 51 54 51q51 0 51 -51zM1553 52q0 -54 -48 -54q-51 0 -51 54q0 49 51 49q48 0 48 -49zM1377 89q0 -53 -49 -53q-50 0 -50 51q0 52 50 52q49 0 49 -50zM1126 337q0 -49 -49 -49q-52 0 -52 49q0 53 52 53q49 0 49 -53z
M1227 186q0 -50 -51 -50q-50 0 -50 50q0 52 47 52q54 0 54 -52z" />
    <glyph glyph-name="sin_o_matra" unicode="&#xdd9;&#xdcf;" horiz-adv-x="2626" 
d="M741 737q-9 18 -26.5 45t-46.5 52t-71 43t-101 18q-60 0 -115.5 -26t-98.5 -76.5t-68.5 -126t-25.5 -174.5t31 -169.5t77 -114.5t100 -64.5t100 -20.5q85 0 145 50t85 133q-29 -30 -68 -45t-101 -15q-53 3 -93 25.5t-67 57t-41 77.5t-14 86q0 46 17 90t48 78.5t74.5 55.5
t95.5 21q69 0 122.5 -30t90 -77t55.5 -103.5t19 -110.5q0 -99 -30 -176.5t-80.5 -130.5t-117.5 -81t-140 -28q-109 0 -190 45.5t-134.5 116.5t-80 158.5t-26.5 171.5q0 98 19.5 175.5t53 135.5t77 99t91 67t97 37.5t93.5 11.5q67 0 122.5 -16t99.5 -44.5t76.5 -69
t55.5 -89.5zM2031 969q24 17 59.5 33t89.5 16q80 0 138.5 -38.5t97 -107.5t57 -164t18.5 -208q0 -131 -24 -225.5t-66 -155.5t-99 -90t-122 -29q-28 0 -50.5 5t-40.5 11.5t-31 14.5l-22 14l-5 4l57 101q2 -1 3.5 -2t3.5 -2q17 -10 34.5 -16.5t50.5 -6.5q52 0 88 31t58 83
t32 121t10 144t-9.5 146t-31 125.5t-57.5 88t-90 33.5q-25 0 -49.5 -6.5t-42.5 -20.5zM577 614q-23 0 -43.5 -11.5t-35.5 -29t-24 -39t-9 -42.5q0 -29 9.5 -52t25 -39t35 -24t40.5 -8q16 0 38.5 3.5t44.5 16.5t41.5 37t30.5 65q-15 55 -53.5 89t-99.5 34zM1839 844
q0 -49 -49 -49q-53 0 -53 49q0 50 53 50q49 0 49 -50zM1943 694q0 -52 -52 -52t-52 52q0 48 53 48q51 0 51 -48zM1691 943q0 -49 -51 -49q-54 0 -54 49q0 53 54 53q51 0 51 -53zM1977 516q0 -50 -49 -50q-53 0 -53 50q0 51 53 51q49 0 49 -51zM1510 981q0 -52 -48 -52
q-51 0 -51 52q0 48 51 48q48 0 48 -48zM1943 337q0 -49 -52 -49t-52 49q0 53 52 53t52 -53zM1334 943q0 -49 -49 -49q-50 0 -50 49q0 53 50 53q49 0 49 -53zM1839 186q0 -50 -49 -50q-48 0 -48 50q0 52 48 52q49 0 49 -52zM1184 844q0 -49 -54 -49q-47 0 -47 48q0 51 47 51
q54 0 54 -50zM1691 87q0 -51 -51 -51t-51 51q0 52 51 52t51 -52zM1083 694q0 -52 -48 -52q-53 0 -53 52q0 48 52 48q49 0 49 -48zM1049 516q0 -50 -51 -50q-54 0 -54 50q0 51 54 51q51 0 51 -51zM1510 52q0 -54 -48 -54q-51 0 -51 54q0 49 51 49q48 0 48 -49zM1334 89
q0 -53 -49 -53q-50 0 -50 51q0 52 50 52q49 0 49 -50zM1083 337q0 -49 -49 -49q-52 0 -52 49q0 53 52 53q49 0 49 -53zM1184 186q0 -50 -51 -50q-50 0 -50 50q0 52 47 52q54 0 54 -52z" />
    <glyph glyph-name="sin_oo_matra" unicode="&#xddc;&#xdca;" horiz-adv-x="2626" 
d="M741 737q-9 18 -26.5 45t-46.5 52t-71 43t-101 18q-60 0 -115.5 -26t-98.5 -76.5t-68.5 -126t-25.5 -174.5t31 -169.5t77 -114.5t100 -64.5t100 -20.5q85 0 145 50t85 133q-29 -30 -68 -45t-101 -15q-53 3 -93 25.5t-67 57t-41 77.5t-14 86q0 46 17 90t48 78.5t74.5 55.5
t95.5 21q69 0 122.5 -30t90 -77t55.5 -103.5t19 -110.5q0 -99 -30 -176.5t-80.5 -130.5t-117.5 -81t-140 -28q-109 0 -190 45.5t-134.5 116.5t-80 158.5t-26.5 171.5q0 98 19.5 175.5t53 135.5t77 99t91 67t97 37.5t93.5 11.5q67 0 122.5 -16t99.5 -44.5t76.5 -69
t55.5 -89.5zM2175 1453q51 -2 111.5 -12t113 -34t87.5 -63.5t35 -99.5q0 -58 -36.5 -93.5t-103.5 -35.5q-44 0 -101 18v-134q54 -22 93.5 -68t65.5 -110.5t38.5 -146t12.5 -174.5q0 -131 -24 -225.5t-66 -155.5t-99 -90t-122 -29q-28 0 -50.5 5t-40.5 11.5t-31 14.5l-22 14
l-5 4l57 101q2 -1 3.5 -2t3.5 -2q17 -10 34.5 -16.5t50.5 -6.5q52 0 88 31t58 83t32 121t10 144t-9.5 146t-31 125.5t-57.5 88t-90 33.5q-25 0 -49.5 -6.5t-42.5 -20.5l-57 101q23 16 57.5 32t86.5 17v435zM577 614q-23 0 -43.5 -11.5t-35.5 -29t-24 -39t-9 -42.5
q0 -29 9.5 -52t25 -39t35 -24t40.5 -8q16 0 38.5 3.5t44.5 16.5t41.5 37t30.5 65q-15 55 -53.5 89t-99.5 34zM2281 1215q39 -15 71 -15q30 0 48.5 14.5t18.5 43.5q0 26 -15.5 45t-37 32t-45.5 21l-40 13v-154zM1691 943q0 -49 -51 -49q-54 0 -54 49q0 53 54 53q51 0 51 -53z
M1943 337q0 -49 -52 -49t-52 49q0 53 52 53t52 -53zM1049 516q0 -50 -51 -50q-54 0 -54 50q0 51 54 51q51 0 51 -51zM1691 87q0 -51 -51 -51t-51 51q0 52 51 52t51 -52zM1943 694q0 -52 -52 -52t-52 52q0 48 53 48q51 0 51 -48zM1083 337q0 -49 -49 -49q-52 0 -52 49
q0 53 52 53q49 0 49 -53zM1184 186q0 -50 -51 -50q-50 0 -50 50q0 52 47 52q54 0 54 -52zM1977 516q0 -50 -49 -50q-53 0 -53 50q0 51 53 51q49 0 49 -51zM1510 52q0 -54 -48 -54q-51 0 -51 54q0 49 51 49q48 0 48 -49zM1334 89q0 -53 -49 -53q-50 0 -50 51q0 52 50 52
q49 0 49 -50zM1083 694q0 -52 -48 -52q-53 0 -53 52q0 48 52 48q49 0 49 -48zM1334 943q0 -49 -49 -49q-50 0 -50 49q0 53 50 53q49 0 49 -53zM1839 844q0 -49 -49 -49q-53 0 -53 49q0 50 53 50q49 0 49 -50zM1184 844q0 -49 -54 -49q-47 0 -47 48q0 51 47 51q54 0 54 -50z
M1510 981q0 -52 -48 -52q-51 0 -51 52q0 48 51 48q48 0 48 -48zM1839 186q0 -50 -49 -50q-48 0 -48 50q0 52 48 52q49 0 49 -52z" />
    <glyph glyph-name="sin_au_matra" unicode="&#xdd9;&#xddf;" horiz-adv-x="2937" 
d="M741 737q-9 18 -26.5 45t-46.5 52t-71 43t-101 18q-60 0 -115.5 -26t-98.5 -76.5t-68.5 -126t-25.5 -174.5t31 -169.5t77 -114.5t100 -64.5t100 -20.5q85 0 145 50t85 133q-29 -30 -68 -45t-101 -15q-53 3 -93 25.5t-67 57t-41 77.5t-14 86q0 46 17 90t48 78.5t74.5 55.5
t95.5 21q69 0 122.5 -30t90 -77t55.5 -103.5t19 -110.5q0 -99 -30 -176.5t-80.5 -130.5t-117.5 -81t-140 -28q-109 0 -190 45.5t-134.5 116.5t-80 158.5t-26.5 171.5q0 98 19.5 175.5t53 135.5t77 99t91 67t97 37.5t93.5 11.5q67 0 122.5 -16t99.5 -44.5t76.5 -69
t55.5 -89.5zM577 614q-23 0 -43.5 -11.5t-35.5 -29t-24 -39t-9 -42.5q0 -29 9.5 -52t25 -39t35 -24t40.5 -8q16 0 38.5 3.5t44.5 16.5t41.5 37t30.5 65q-15 55 -53.5 89t-99.5 34zM1839 844q0 -49 -49 -49q-53 0 -53 49q0 50 53 50q49 0 49 -50zM1943 694q0 -52 -52 -52
t-52 52q0 48 53 48q51 0 51 -48zM1691 943q0 -49 -51 -49q-54 0 -54 49q0 53 54 53q51 0 51 -53zM1977 516q0 -50 -49 -50q-53 0 -53 50q0 51 53 51q49 0 49 -51zM1510 981q0 -52 -48 -52q-51 0 -51 52q0 48 51 48q48 0 48 -48zM1943 337q0 -49 -52 -49t-52 49q0 53 52 53
t52 -53zM1334 943q0 -49 -49 -49q-50 0 -50 49q0 53 50 53q49 0 49 -53zM1839 186q0 -50 -49 -50q-48 0 -48 50q0 52 48 52q49 0 49 -52zM1184 844q0 -49 -54 -49q-47 0 -47 48q0 51 47 51q54 0 54 -50zM1691 87q0 -51 -51 -51t-51 51q0 52 51 52t51 -52zM1083 694
q0 -52 -48 -52q-53 0 -53 52q0 48 52 48q49 0 49 -48zM1049 516q0 -50 -51 -50q-54 0 -54 50q0 51 54 51q51 0 51 -51zM1510 52q0 -54 -48 -54q-51 0 -51 54q0 49 51 49q48 0 48 -49zM1334 89q0 -53 -49 -53q-50 0 -50 51q0 52 50 52q49 0 49 -50zM1083 337q0 -49 -49 -49
q-52 0 -52 49q0 53 52 53q49 0 49 -53zM1184 186q0 -50 -51 -50q-50 0 -50 50q0 52 47 52q54 0 54 -52zM2256 219q9 -13 23.5 -29t34 -29.5t45.5 -23t59 -9.5q57 0 104 31t80.5 87.5t52.5 134t19 170.5q0 63 -10 125t-31 110.5t-53.5 78.5t-76.5 30q-12 0 -23 -2t-20 -9
t-14.5 -19t-5.5 -31q0 -27 16.5 -47.5l36.5 -44t36.5 -53.5t16.5 -76q0 -36 -17.5 -69t-48.5 -58.5t-73 -40.5t-90 -15q-69 0 -122 26t-88.5 69t-54 98t-18.5 112q0 56 16 100t42.5 78.5t61 60t71.5 44.5l57 -99q-32 -18 -54.5 -37t-37 -41t-21.5 -48.5t-7 -60.5
q0 -39 13 -72t34.5 -56.5t49.5 -37t58 -13.5q15 0 32.5 4.5t32.5 15t25.5 27t10.5 40.5q0 23 -7.5 41t-18.5 34.5t-24.5 32.5t-24.5 35t-18.5 42t-7.5 54q0 40 14.5 67.5t37.5 44.5t51 25t56 8q68 0 119 -22.5t87 -60.5t59.5 -87t37 -102t18.5 -105.5t5 -97.5
q0 -115 -26 -215t-75.5 -174.5t-121 -117t-161.5 -42.5q-53 0 -95.5 15t-75 35.5t-54 42t-31.5 35.5z" />
    <glyph glyph-name="sin_rakar" unicode="&#xdca;&#x200d;&#xdbb;" horiz-adv-x="1466" 
d="M192 0q7 -62 40 -129.5t99 -124t168.5 -93.5t246.5 -37q64 0 127 12t120 35t106 56.5t84.5 76t56 94t20.5 110.5q0 16 -3 33t-11 33.5t-23.5 32t-39.5 29.5l87 91q25 -14 46.5 -36t37.5 -50.5t25 -62t9 -70.5q0 -69 -22 -133.5t-62 -121.5t-97.5 -104t-129 -81t-155 -53
t-176.5 -19q-118 0 -214 23.5t-171 63t-130.5 91.5t-92 109t-55 115t-19.5 110h128z" />
    <glyph glyph-name="sin_reph" unicode="&#xdbb;&#xdca;&#x200d;" horiz-adv-x="1213" 
d="M449 1186q0 29 12 53t31.5 40.5t45 25.5t53.5 9q71 0 108 -40t37 -105q0 -32 -14.5 -63t-41.5 -56t-66.5 -40.5t-89.5 -15.5q-72 0 -127.5 21.5t-93.5 58t-57.5 86.5t-19.5 107q0 63 28 115t75.5 88.5t111 56.5t134.5 20q79 0 144.5 -26.5t111.5 -70.5t71.5 -103
t25.5 -123q0 -33 -10 -67t-25.5 -64.5t-34 -56t-34.5 -42.5l-71 67l23.5 26.5t25.5 34.5t20 42t8 49q0 42 -17 84.5t-49.5 76t-80 54.5t-109.5 21q-46 0 -91 -11.5t-81 -34.5t-58 -57t-22 -79q0 -39 15 -69t39.5 -51.5t54.5 -34.5t60 -18q-18 17 -30 40.5t-12 51.5z
M640 1168q0 17 -11.5 33.5t-37.5 16.5t-36.5 -15.5t-10.5 -34.5q0 -20 8 -37.5t25 -31.5q34 10 48.5 29.5t14.5 39.5zM955 844q0 -49 -49 -49q-53 0 -53 49q0 50 53 50q49 0 49 -50zM1059 694q0 -52 -52 -52t-52 52q0 48 53 48q51 0 51 -48zM807 943q0 -49 -51 -49
q-54 0 -54 49q0 53 54 53q51 0 51 -53zM1093 516q0 -50 -49 -50q-53 0 -53 50q0 51 53 51q49 0 49 -51zM1059 337q0 -49 -52 -49t-52 49q0 53 52 53t52 -53zM450 943q0 -49 -49 -49q-50 0 -50 49q0 53 50 53q49 0 49 -53zM955 186q0 -50 -49 -50q-48 0 -48 50q0 52 48 52
q49 0 49 -52zM300 844q0 -49 -54 -49q-47 0 -47 48q0 51 47 51q54 0 54 -50zM807 87q0 -51 -51 -51t-51 51q0 52 51 52t51 -52zM199 694q0 -52 -48 -52q-53 0 -53 52q0 48 52 48q49 0 49 -48zM165 516q0 -50 -51 -50q-54 0 -54 50q0 51 54 51q51 0 51 -51zM626 52
q0 -54 -48 -54q-51 0 -51 54q0 49 51 49q48 0 48 -49zM450 89q0 -53 -49 -53q-50 0 -50 51q0 52 50 52q49 0 49 -50zM199 337q0 -49 -49 -49q-52 0 -52 49q0 53 52 53q49 0 49 -53zM300 186q0 -50 -51 -50q-50 0 -50 50q0 52 47 52q54 0 54 -52z" />
    <glyph glyph-name="sin_ka.virama" unicode="&#xd9a;&#xdca;" horiz-adv-x="1607" 
d="M1092 1453q51 -2 111.5 -12t113 -34t87.5 -63.5t35 -99.5q0 -58 -36.5 -93.5t-103.5 -35.5q-44 0 -101 18v-169q56 -29 104.5 -73t84 -102.5t55.5 -132.5t20 -164q0 -124 -32.5 -210.5t-81 -144.5t-104.5 -90t-102 -47l-39 121q71 27 116 70t70.5 94t35 105t9.5 102
q0 83 -25.5 156.5t-75.5 128.5t-124 87t-172 32q-25 0 -54 -3.5t-58.5 -11t-56.5 -18.5t-48 -27l-51 -38q5 0 9 0.5t9 0.5q102 0 183 -34t137 -94t86 -142t30 -179q0 -98 -25.5 -165t-65.5 -108t-89 -59t-96 -18q-48 0 -85 12.5t-64 31t-44 40t-24 39.5q-14 -23 -35.5 -45.5
t-49 -39.5t-60.5 -27.5t-69 -10.5q-63 0 -111.5 18t-82 51t-51 79t-17.5 102q0 20 6 42t15.5 42t22 37.5t26.5 29.5h-84l-80 91l301 227q35 26 50 53t15 50q0 32 -23 53t-56 21q-32 0 -58 -23t-26 -72v-64h-123v64q0 50 15.5 91t43 70.5t65.5 45.5t83 16q33 0 66.5 -12
t60.5 -34t45.5 -53t23.5 -69l78 59q34 25 75 45.5t84.5 34.5t87 21.5t82.5 7.5q73 0 142 -19v448zM357 492v-91q-44 -30 -62 -69t-18 -70q0 -42 14.5 -69t37 -42.5t49 -21.5t50.5 -6q33 0 58.5 13t43.5 35t27 50.5t9 59.5v69h128v-69q0 -40 12.5 -70t33.5 -49.5t48.5 -29
t58.5 -9.5q29 0 56.5 12t49 39t34.5 70.5t13 105.5q0 75 -22.5 135.5t-67.5 103t-112 65t-156 22.5q-23 0 -49.5 -2t-54.5 -8.5t-57.5 -19.5t-57.5 -34l-160 -120h94zM1198 1215q39 -15 71 -15q30 0 48.5 14.5t18.5 43.5q0 26 -15.5 45t-37 32t-45.5 21l-40 13v-154z" />
    <glyph glyph-name="sin_kha.virama" unicode="&#xd9b;&#xdca;" horiz-adv-x="1520" 
d="M671 1300q-57 0 -109.5 -15.5t-98.5 -40.5t-85.5 -56.5t-70.5 -62t-52 -57.5t-31 -44l-97 94q37 49 84 99q-36 41 -50.5 80.5t-14.5 86.5q0 59 33 111t91 90.5t136.5 61t169.5 22.5q137 0 249.5 -38t201 -105.5t154.5 -161t109 -205t64 -237t21 -256.5q0 -84 -9.5 -166
t-29 -156t-47.5 -137t-65.5 -109t-84 -72t-101.5 -26q-25 0 -54 15t-57.5 33l-53.5 33t-42 15q-13 0 -20 -10t-7 -36q0 -10 1.5 -22.5t3.5 -27.5h-133q-5 39 -7.5 73t-2.5 65q0 69 11 121t27 93t35.5 74.5t35.5 66.5t27 68t11 79q0 75 -26.5 124t-67 78.5t-88.5 41.5t-91 12
q-81 0 -145.5 -30t-110 -84t-70 -128t-24.5 -161q0 -68 11.5 -130t33 -112t53.5 -84t73 -46q-68 77 -68 180q0 46 13.5 81.5t35 60t49 37t56.5 12.5q43 0 77.5 -20.5t58 -53.5t36 -73.5t12.5 -80.5q0 -53 -15.5 -101t-45 -84t-72 -57.5t-96.5 -21.5q-86 0 -149.5 42.5
t-105 112t-62 158.5t-20.5 183q0 107 32.5 203t94 168t150 114.5t199.5 42.5q72 0 142.5 -22t127 -69t91 -119.5t34.5 -173.5q0 -73 -22 -134t-48 -112l-48 -93.5t-22 -78.5q0 -3 0.5 -5.5t0.5 -5.5q28 11 49 11q31 0 56.5 -14.5t48.5 -32.5t46 -32.5t49 -14.5
q45 0 82.5 46.5t63.5 122.5t40.5 172.5t14.5 196.5q0 133 -29.5 249t-97.5 201.5t-178 134.5t-271 49zM673 1423q117 0 212 -25.5t172 -73.5q-40 51 -89.5 92t-108.5 70t-128.5 44.5t-149.5 15.5q-68 0 -123.5 -13.5t-95.5 -37t-62 -54.5t-22 -66q0 -38 27 -75
q72 54 162.5 88.5t205.5 34.5zM508 264q0 16 -2.5 34.5t-9 34t-18.5 26t-31 10.5q-28 -2 -45 -24.5t-17 -59.5q0 -42 18 -81.5t55 -62.5q14 11 23.5 26.5t15.5 32t8.5 33.5t2.5 31z" />
    <glyph glyph-name="sin_ga.virama" unicode="&#xd9c;&#xdca;" 
d="M983 1453q51 -2 111.5 -12t113 -34t87.5 -63.5t35 -99.5q0 -58 -36.5 -93.5t-103.5 -35.5q-44 0 -101 18v-183q49 -37 85 -87.5t60 -108t35.5 -120t11.5 -122.5q0 -131 -29.5 -227t-84.5 -159.5t-132.5 -94.5t-173.5 -31v123q46 4 97.5 20t94.5 58t71.5 116.5t28.5 194.5
q0 90 -25.5 162t-66.5 122.5t-93.5 77.5t-106.5 27q-59 0 -106 -20t-83.5 -52.5t-61.5 -75t-39 -87.5q24 22 49.5 31.5t48.5 9.5q49 0 85.5 -28.5t60.5 -73t35.5 -99t11.5 -106.5q0 -86 -29 -159t-80 -126.5t-121 -84t-152 -30.5q-77 0 -137.5 23t-106.5 62t-78.5 90.5
t-53 108.5t-30 115.5t-9.5 112.5q0 128 35.5 221t95 154.5t137 94t160.5 41.5v-123q-27 -4 -60 -12.5t-66.5 -26t-64.5 -45.5t-55.5 -70t-39 -99.5t-14.5 -134.5q0 -87 23.5 -158.5t63.5 -123t91.5 -79.5t108.5 -28q64 0 112.5 23t81.5 62t50 90t17 107q0 36 -8 68.5
t-21.5 57t-32 39t-39.5 14.5q-25 0 -48.5 -21.5t-37.5 -70.5h-123v61q0 92 29 177t84.5 150.5t135.5 104.5t181 39q33 0 63.5 -5t58.5 -14v448zM1089 1215q39 -15 71 -15q30 0 48.5 14.5t18.5 43.5q0 26 -15.5 45t-37 32t-45.5 21l-40 13v-154z" />
    <glyph glyph-name="sin_gha.virama" unicode="&#xd9d;&#xdca;" horiz-adv-x="1285" 
d="M806 1453q51 -2 111.5 -12t113 -34t87.5 -63.5t35 -99.5q0 -58 -36.5 -93.5t-103.5 -35.5q-44 0 -101 18v-111q37 -5 70.5 -20.5t59.5 -35.5t42.5 -39.5t20.5 -31.5l-61 -96q-15 23 -34.5 41t-41.5 30t-44 18.5t-42 6.5q-63 0 -103 -30.5t-63 -85.5h58q36 0 77.5 -7
t82 -22.5t78 -40.5t66 -61.5t45.5 -84.5t17 -110q0 -91 -23.5 -173t-64.5 -144.5t-97 -99t-120 -36.5q-97 0 -141.5 42t-44.5 112q0 31 14.5 50.5t31.5 37.5t31.5 38.5t14.5 53.5q0 26 -28.5 41.5t-94.5 15.5q-72 0 -97.5 -15.5t-25.5 -41.5q0 -33 14.5 -53.5t31.5 -38.5
t31.5 -37.5t14.5 -50.5q0 -70 -47 -112t-135 -42q-64 0 -120 36.5t-98 99t-66.5 144.5t-24.5 173q0 75 21 121.5t69 81.5h-121v123h446q-10 29 -27.5 51t-39.5 36.5t-46.5 21.5t-47.5 7q-24 0 -49 -8.5t-47.5 -22.5t-41 -31t-28.5 -34l-62 96q6 10 23.5 31.5t46 43t67.5 38
t88 16.5q55 0 101 -21t80.5 -55.5t56.5 -78.5t29 -90q5 37 20.5 73.5t39.5 68t57.5 55.5t74.5 36v441zM514 656q-63 0 -117 -6.5t-93.5 -28t-62 -61.5t-22.5 -107q0 -78 17.5 -138.5t44.5 -102t60 -63t64 -21.5q27 2 43 14t16 38q-2 32 -17 48.5t-31.5 32t-30 39t-13.5 69.5
q0 71 65 112t181 41q58 0 103.5 -11t77 -31t48.5 -48.5t17 -62.5q0 -46 -14.5 -71t-31.5 -42l-31.5 -32.5t-14.5 -43.5q0 -13 2 -23t8 -16.5t18 -9.5t33 -3q38 0 71.5 21.5t58.5 63t39.5 102t14.5 138.5q0 68 -27 108.5t-70.5 61.5t-97.5 27t-108 6h-200zM912 1215
q39 -15 71 -15q30 0 48.5 14.5t18.5 43.5q0 26 -15.5 45t-37 32t-45.5 21l-40 13v-154z" />
    <glyph glyph-name="sin_nga.virama" unicode="&#xd9e;&#xdca;" horiz-adv-x="1445" 
d="M204 384q0 -65 17.5 -113t46.5 -79.5t68 -47.5t82 -16q31 0 59.5 12.5t49.5 34t33.5 49.5t12.5 59v69h123v-71q0 -44 16 -73.5t39.5 -47t50.5 -25t50 -7.5q25 0 58.5 10.5t69 36t70 68t62 106.5t44 151.5t16.5 203.5q0 75 -16 147.5t-47 138.5t-78 121.5t-109 96.5
t-139 64t-169 23q-64 0 -129.5 -20t-126.5 -53t-114.5 -74t-92.5 -83l-86 96l31.5 32t34.5 31q-32 38 -45.5 76.5t-13.5 83.5q0 59 33 111t91 90.5t136.5 61t169.5 22.5q186 0 327.5 -67.5t240.5 -185t155 -275.5t70 -339q2 -24 3.5 -48.5t1.5 -49.5v-27q-2 -133 -24 -235
t-56.5 -177t-80 -126t-95 -82t-99.5 -44t-96 -13q-47 0 -81.5 12t-60 30.5t-42.5 40t-27 40.5q-13 -23 -35.5 -45.5t-52 -39.5t-63.5 -27.5t-70 -10.5q-70 0 -131 25.5t-106.5 75t-72 120.5t-26.5 163q0 86 36 146.5t92 99t124 56.5t133 18h120q3 4 6 12.5t5 17.5t3 17.5
t1 13.5q0 78 -56.5 118.5t-174.5 40.5h-19q8 -16 13 -41.5t5 -42.5q0 -32 -10.5 -59t-29 -46.5t-44.5 -30.5t-57 -11q-26 0 -51.5 8.5t-46 25.5t-33.5 43t-13 62q0 35 15 69.5t48.5 61.5t87.5 44t132 17q99 0 166.5 -25t109 -66.5t59 -94.5t17.5 -109q0 -18 -3.5 -38.5
t-9 -41.5t-12.5 -40t-14 -33h-217q-43 0 -89 -9.5t-83.5 -32t-62 -59.5t-24.5 -91zM612 1423q111 0 207 -30t177 -86q-40 54 -90 98t-111 75.5t-132.5 48.5t-155.5 17q-68 0 -123.5 -13.5t-95.5 -37t-62 -54.5t-22 -66q0 -39 27 -76q88 57 185.5 90.5t195.5 33.5zM175 845
q0 -17 5 -26t12 -13.5t14.5 -5.5t12.5 -1q28 0 42 18t14 43q0 10 -3.5 26.5t-10.5 28.5q-17 -2 -32.5 -8t-27.5 -16t-19 -22t-7 -24z" />
    <glyph glyph-name="sin_nnga.virama" unicode="&#xd9f;&#xdca;" horiz-adv-x="1701" 
d="M1196 1453q51 -2 111.5 -12t113 -34t87.5 -63.5t35 -99.5q0 -58 -36.5 -93.5t-103.5 -35.5q-44 0 -101 18v-139q68 -31 116 -87.5t79 -124t45 -138.5t14 -132q0 -117 -26.5 -212t-77.5 -161.5t-125.5 -102.5t-170.5 -36v123q46 4 95 21t89.5 59.5t66.5 116.5t26 192
q0 86 -22.5 157.5t-60.5 123t-87.5 80t-103.5 28.5q-59 0 -106.5 -19.5t-84 -52t-62 -75t-39.5 -88.5q24 22 49 31.5t48 9.5q49 0 85 -28.5t60 -72.5t36 -98t12 -106q0 -86 -28.5 -159.5t-79.5 -127.5t-121 -84.5t-152 -30.5q-77 0 -136.5 22.5t-103.5 61t-74.5 89
t-49 106.5t-26.5 114.5t-8 112.5q0 67 12.5 127.5t35 110.5t52.5 89t66 63h-45q-72 0 -127.5 -29t-94 -80t-58.5 -121.5t-20 -153.5q0 -81 18.5 -148t44.5 -119t54 -88t47 -53l-80 -100q-47 37 -86.5 91t-69 119.5t-46 141t-16.5 156.5q0 104 30.5 197t87 163t137 111
t179.5 41h289v-128q-27 -4 -59 -12.5t-64 -26.5t-61.5 -46t-52.5 -70.5t-36.5 -100t-13.5 -134.5q0 -87 21.5 -157.5t59 -121t87.5 -77.5t107 -27q64 0 112.5 23.5t81.5 62.5t49.5 90t16.5 107q0 36 -8 68.5t-21.5 56.5t-32 38.5t-39.5 14.5q-25 0 -48.5 -21.5t-37.5 -70.5
h-123v61q0 92 29.5 177t85.5 150.5t136.5 104.5t181.5 39q10 0 19 -0.5t18 -1.5v431zM1302 1215q39 -15 71 -15q30 0 48.5 14.5t18.5 43.5q0 26 -15.5 45t-37 32t-45.5 21l-40 13v-154z" />
    <glyph glyph-name="sin_ca.virama" unicode="&#xda0;&#xdca;" horiz-adv-x="1363" 
d="M1087 688q0 74 -5 137.5t-15 123.5q-20 76 -57 139.5t-92.5 109.5t-130 71.5t-169.5 25.5q-84 0 -151.5 -24t-120.5 -58t-91 -71.5t-62 -64.5l-88 90l28.5 30t29.5 29q-31 38 -43.5 76t-12.5 82q0 59 27 111t74.5 90.5t113.5 61t144 22.5q137 0 249.5 -42.5t200 -120.5
t149.5 -187t98 -242q55 -142 55 -309q0 -149 -23 -263.5t-63 -199.5t-95.5 -143.5t-120.5 -94.5t-137 -51.5t-145 -15.5q-127 0 -221.5 35t-157.5 94.5t-94 137.5t-31 164q0 30 7.5 60.5t20 58.5t28 51t32.5 39h-153v128h98q-6 24 -6 49q0 40 17 76t48.5 64t76.5 44.5
t101 16.5q133 0 198.5 -61.5t65.5 -171.5q0 -64 -23 -145h-265q-23 -12 -44.5 -34.5t-38 -50t-26 -59.5t-9.5 -64q0 -62 24 -117t71.5 -96.5t117.5 -66t163 -24.5q85 0 163 27.5t140 92.5t102 172.5t48 267.5zM617 1423q72 0 135 -13.5t119 -39.5q-73 81 -172 128.5
t-228 47.5q-56 0 -99.5 -13.5t-73 -37t-44.5 -54.5t-15 -66t22 -67q71 51 157.5 83t198.5 32zM540 768q1 7 1.5 13t0.5 12q0 52 -38 77t-104 25q-33 0 -55.5 -9.5t-36.5 -23.5t-20 -32t-6 -34q0 -17 4 -28h254z" />
    <glyph glyph-name="sin_cha.virama" unicode="&#xda1;&#xdca;" horiz-adv-x="1228" 
d="M561 779q3 91 38.5 168t109.5 137v518q51 -2 111.5 -12t113 -34t87.5 -63.5t35 -99.5q0 -58 -36.5 -93.5t-103.5 -35.5q-44 0 -101 18v-134q45 21 98 37t116 27l43 -112q-75 -12 -128 -22.5t-91 -23t-64.5 -28.5t-48.5 -39q45 15 88 15q53 0 99.5 -20.5t81 -57.5
t54.5 -88t20 -111q0 -48 -13 -92t-36 -81q3 -13 6 -21.5t4.5 -17t2.5 -19t1 -26.5q0 -44 -12.5 -95.5t-38.5 -103.5t-65 -100.5t-93 -86t-122.5 -60t-152.5 -22.5q-94 0 -183.5 31.5t-159.5 89.5t-112.5 141t-42.5 185q0 88 26 151t72 103t109.5 59t137.5 19h43
q-10 29 -27.5 51t-39.5 36.5t-46.5 21.5t-47.5 7q-24 0 -49 -8.5t-47.5 -22.5t-41 -31t-28.5 -34l-62 96q6 10 24 30.5t47 41t68.5 36t88.5 15.5q55 0 101.5 -20t81 -53.5t56.5 -76.5t29 -89zM833 441q-49 0 -91 15t-75 43t-57 68t-37 89h-116q-63 0 -113 -9t-84.5 -33
t-53 -65t-18.5 -104q0 -74 36 -133.5t91 -101.5t121.5 -64.5t127.5 -22.5q69 0 134.5 26.5t115.5 72.5t80.5 108t30.5 134q-22 -9 -44.5 -16t-47.5 -7zM960 719q0 30 -12 58.5t-32.5 50.5t-48 35t-59.5 13q-47 0 -79.5 -29t-40.5 -68h14q78 0 143.5 -21t112.5 -68
q1 7 1.5 14t0.5 15zM815 1364q39 -15 71 -15q30 0 48.5 14.5t18.5 43.5q0 26 -15.5 45t-37 32t-45.5 21l-40 13v-154zM831 564q31 0 57 14q-28 38 -74.5 55t-109.5 21q21 -40 56.5 -65t70.5 -25z" />
    <glyph glyph-name="sin_ja.virama" unicode="&#xda2;&#xdca;" horiz-adv-x="1204" 
d="M722 779q54 0 113.5 -16t109 -54t82 -100.5t32.5 -155.5q0 -47 -13.5 -98.5t-40.5 -101.5t-68.5 -96t-96.5 -81t-124.5 -55.5t-153.5 -20.5q-123 0 -216 41.5t-155.5 107t-94 146t-31.5 158.5q0 90 27 152t74 101t111.5 56t138.5 17h43q-10 29 -27.5 51t-39.5 36.5
t-46.5 21.5t-47.5 7q-24 0 -49 -8.5t-47.5 -22.5t-41 -31t-28.5 -34l-62 96q6 10 24 30.5t47 41t68.5 36t88.5 15.5q55 0 100.5 -20t79.5 -53.5t55.5 -76.5t28.5 -89q4 32 16 63.5t31 60t44 51.5t57 38v588q51 -2 111.5 -12t113 -34t87.5 -63.5t35 -99.5q0 -58 -36.5 -93.5
t-103.5 -35.5q-44 0 -101 18v-210l51.5 28t44.5 29.5t35.5 39t23.5 57.5l101 -42q-9 -40 -30.5 -61.5t-47.5 -35.5t-53.5 -25t-47.5 -30q32 -8 59.5 -23t48.5 -32t34.5 -33t17.5 -27l-61 -96q-15 23 -34.5 41t-41.5 30t-44 18.5t-42 6.5q-63 0 -103 -30.5t-63 -85.5h58z
M462 656q-63 0 -113 -8t-84.5 -30t-53 -62t-18.5 -103q0 -78 32 -139t84 -102t118 -62.5t134 -21.5q70 0 136.5 23.5t118.5 66.5t83.5 103t31.5 132q0 68 -22 108.5t-58.5 61.5t-85.5 27t-103 6h-200zM816 1342q39 -15 71 -15q30 0 48.5 14.5t18.5 43.5q0 26 -15.5 45
t-37 32t-45.5 21l-40 13v-154z" />
    <glyph glyph-name="sin_jha.virama" unicode="&#xda3;&#xdca;" horiz-adv-x="2510" 
d="M2365 622q0 -177 -33 -296t-88 -191.5t-127.5 -103.5t-151.5 -31q-47 0 -83.5 11.5t-64 29.5t-46 39.5t-28.5 40.5q-13 -23 -33 -45t-46 -39t-58 -27t-68 -10q-80 0 -145 28.5t-111.5 81.5t-71.5 128t-25 167q0 69 16 124t42 98.5t59 76t67 56.5q-82 66 -177 100t-195 34
q-84 0 -167 -34t-162 -84q94 -10 177.5 -44.5t145.5 -89.5t98 -129t36 -163q0 -98 -26 -165t-66.5 -108t-89.5 -59t-96 -18q-48 0 -84.5 12.5t-63 31t-43.5 40t-24 39.5q-14 -23 -36 -45.5t-49.5 -39.5t-60.5 -27.5t-69 -10.5q-63 0 -112 21t-82 57.5t-50.5 85t-17.5 104.5
q0 17 4 36.5t10.5 38t15 34t17.5 24.5h-62l-80 90l152 113l64 47.5l64 47.5l59 43.5l49 36.5v20q0 53 -25.5 74.5t-62.5 21.5t-63 -21t-26 -70v-65h-131v71q0 48 18.5 87.5t49 67.5t70 43.5t81.5 15.5q32 0 65 -10.5t61 -30.5t49.5 -49t30.5 -67q108 73 218.5 111t226.5 38
q133 0 269.5 -52.5t282.5 -164.5l-70 -117q-36 -15 -68.5 -39.5t-57 -59t-39 -79.5t-14.5 -101q0 -62 14.5 -113t43 -87t70 -55.5t95.5 -19.5q31 0 57.5 12.5t45.5 33.5t29.5 48.5t10.5 58.5v69h128v-71q0 -44 15.5 -73t39 -46.5t51 -24.5t50.5 -7q25 0 55 7.5t60.5 27.5
t59 55t50.5 89.5t35.5 131.5t13.5 181q0 75 -21 151t-59.5 145.5t-92 130.5t-118.5 105.5t-140 70.5t-155 26q-61 0 -120 -5.5t-122 -25t-131 -57.5t-147 -104l-78 90q31 26 60 47l57 40q-18 29 -25.5 59.5t-7.5 65.5q0 59 33 111t91 90.5t136.5 61t169.5 22.5
q134 0 245.5 -38.5t200.5 -108t155 -165t110 -209t65.5 -241t21.5 -260.5zM503 656l-80.5 -58.5l-75 -53l-55 -38.5l-21.5 -15h78v-90q-37 -29 -53 -63.5t-16 -65.5q0 -45 14 -73t35 -44t45.5 -21.5t45.5 -5.5q37 0 65.5 12.5t47 33.5t28 48.5t9.5 58.5v69h124v-69
q0 -40 12.5 -69t33.5 -47.5t48.5 -27.5t58.5 -9q29 0 57 11.5t49.5 37.5t34.5 68.5t13 104.5q0 75 -36.5 132.5t-94.5 96t-128.5 58t-138.5 19.5h-100zM1651 1372q62 0 125.5 -14t125 -40.5t120 -65t109.5 -87.5q-38 78 -91 143.5t-122.5 113t-155.5 73.5t-190 26
q-68 0 -123.5 -13.5t-95.5 -37t-62 -54.5t-22 -66q0 -27 13 -52q54 26 102 41t93 22.5t88 9t86 1.5z" />
    <glyph glyph-name="sin_nya.virama" unicode="&#xda4;&#xdca;" horiz-adv-x="2278" 
d="M1458 721q-71 93 -133 135t-123 42q-36 0 -71.5 -12t-68.5 -30t-62.5 -39.5l-53.5 -40.5q95 -10 178.5 -44t146 -89t99 -129t36.5 -164q0 -98 -25.5 -165t-66 -108t-89.5 -59t-96 -18q-48 0 -84.5 12.5t-63 31t-43 40t-24.5 39.5q-14 -23 -36 -45.5t-49.5 -39.5
t-60.5 -27.5t-69 -10.5q-63 0 -112 21.5t-82 58.5t-50.5 86t-17.5 105q0 13 3.5 31t9.5 36t15 34.5t21 28.5h-63l-66 96l373 282v20q0 54 -25.5 76.5t-65.5 22.5q-13 0 -27 -5.5t-26 -16.5t-19.5 -29t-7.5 -42v-66h-122v78q-65 -7 -110.5 -37t-74.5 -75t-42 -100.5
t-13 -113.5q0 -55 11 -109t31.5 -103.5t48.5 -92.5t63 -76l-80 -100q-48 35 -86 87t-64.5 114t-41 131t-14.5 138q0 89 24 172.5t72.5 148t123 103.5t175.5 39h15q29 38 72 59.5t94 21.5q32 0 64.5 -10.5t60.5 -30t49 -48.5t31 -66l71.5 51.5t84.5 50.5t94.5 38t102.5 15
q79 0 160.5 -43t161.5 -149q20 48 50 83t65.5 59t76 36t81.5 14v429q51 -2 110 -12t109.5 -34t84 -63.5t33.5 -99.5q0 -58 -31.5 -93.5t-98.5 -35.5q-44 0 -101 18v-125q47 -15 88.5 -46t73 -77.5t50 -108.5t18.5 -140q0 -29 -3 -60q-81 29 -148 41.5t-122 12.5
q-74 0 -125.5 -20.5t-84 -56t-47.5 -82t-15 -97.5q0 -54 19 -100t51 -79.5t75.5 -52.5t91.5 -19q43 0 79.5 18t64.5 45t47 59.5t26 61.5l94 -61q-13 -61 -45 -105.5t-73.5 -74.5t-88.5 -46t-91 -19q-27 -19 -44 -43t-17 -56q0 -26 7.5 -44t22 -32t34 -24.5t43.5 -20.5
l-53 -88q-17 0 -46.5 12.5t-58.5 36.5t-50 58t-21 77q0 42 18.5 77t48.5 60q-41 12 -87 36t-85 66.5t-64.5 105.5t-25.5 152q0 66 21 133t66 120.5t114.5 87t165.5 33.5q39 0 82.5 -6t91.5 -20v9q0 27 -15 56.5t-41.5 54t-63.5 40.5t-80 16q-28 0 -56.5 -8.5t-56 -29
t-53 -54.5t-47.5 -85h-127zM777 656l-218 -159h73v-96q-19 -9 -32.5 -24t-22.5 -32t-13.5 -35.5t-4.5 -33.5q0 -42 13 -71.5t33.5 -47.5t45 -26t48.5 -8q38 0 66.5 13t48 35t29.5 50.5t10 59.5v69h123v-69q0 -40 12.5 -70t33.5 -49.5t48.5 -29t58.5 -9.5q29 0 57 12t49.5 39
t34.5 70.5t13 105.5q0 50 -17 92.5t-46 76.5t-68 59.5t-83 43t-91 26t-92 8.5h-109zM1900 1215q39 -15 71 -15q30 0 43.5 14.5t13.5 43.5q0 26 -14 45t-33.5 32t-42 21t-38.5 13v-154z" />
    <glyph glyph-name="sin_jnya.virama" unicode="&#xda5;&#xdca;" horiz-adv-x="2094" 
d="M1643 1453q51 -2 111.5 -12t113 -34t87.5 -63.5t35 -99.5q0 -58 -36.5 -93.5t-103.5 -35.5q-44 0 -101 18v-144q41 -20 77 -51.5t62.5 -76t42 -101t15.5 -125.5q0 -29 -3 -59q-81 29 -148 41.5t-122 12.5q-74 0 -125.5 -20.5t-84 -56t-47.5 -82t-15 -97.5q0 -54 19 -100
t51 -79.5t75.5 -52.5t91.5 -19q43 0 79.5 18t64.5 45t47 59.5t26 61.5l94 -61q-13 -61 -45 -105.5t-73.5 -74.5t-88.5 -46t-91 -19q-27 -19 -44 -43t-17 -56q0 -26 7.5 -44t22 -32t34 -24.5t43.5 -20.5l-53 -88q-17 0 -46.5 12.5t-58.5 36.5t-50 58t-21 77q0 42 18.5 77
t48.5 60q-41 12 -87 36t-85 66.5t-64.5 105.5t-25.5 152q0 66 21 133t66 120.5t114.5 87t165.5 33.5q39 0 82.5 -6t91.5 -20v8q0 28 -12.5 58t-39 55t-67 41t-96.5 16q-27 0 -54.5 -8t-54 -25t-49.5 -45.5t-41 -68.5q0 -1 -20 -1h-44h-64q-9 30 -27 57t-43.5 47t-57 32
t-66.5 12q-48 0 -86 -17.5t-64.5 -50.5t-41.5 -79.5t-18 -103.5q27 32 57.5 45t56.5 13q49 0 85 -28.5t60 -72.5t36 -98t12 -106q0 -86 -28.5 -159.5t-79.5 -127.5t-121 -84.5t-152 -30.5q-77 0 -138.5 23t-108.5 62t-81 90.5t-55.5 108.5t-31.5 115.5t-10 112.5
q0 134 42.5 232t122.5 152h-38q-72 0 -128 -29t-94.5 -80t-58.5 -121.5t-20 -153.5q0 -81 18.5 -147t44.5 -117t54 -86t47 -52l-80 -100q-47 37 -86 90t-67.5 117.5t-44.5 139t-16 155.5q0 104 30 197t86 163t136 111t179 41h289v-128q-41 -5 -91 -22.5t-94 -59.5
t-73.5 -114.5t-29.5 -187.5q0 -87 25 -158t66 -121t94.5 -77.5t110.5 -27.5q64 0 112.5 22.5t81.5 60.5t50 88.5t17 106.5q0 36 -8 68.5t-21.5 56.5t-32 38.5t-39.5 14.5q-25 0 -48.5 -21.5t-37.5 -70.5h-123v147q0 74 22.5 143.5t65.5 123t105 86t140 32.5q33 0 70 -7
t72 -25t65.5 -49t51.5 -78q19 39 47.5 68.5t63.5 49.5t74.5 30t81.5 10q19 0 40 -3v433zM1749 1215q39 -15 71 -15q30 0 48.5 14.5t18.5 43.5q0 26 -15.5 45t-37 32t-45.5 21l-40 13v-154z" />
    <glyph glyph-name="sin_nyja.virama" unicode="&#xda6;&#xdca;" horiz-adv-x="1411" 
d="M513 896q-84 0 -144.5 -33.5t-99.5 -85t-57.5 -114.5t-18.5 -122q0 -36 3 -79.5t14.5 -94.5t34.5 -108.5t63 -121.5l-96 -78q-17 22 -42.5 66.5t-48.5 106.5t-39.5 140.5t-16.5 168.5q0 55 12.5 112.5t37.5 111t62 101t87 82.5t112 55.5t137 20.5q55 0 99.5 -21
t76.5 -55.5t52.5 -78.5t27.5 -90q4 33 16.5 65.5t32.5 61t46.5 51.5t59.5 38v552q51 -2 111.5 -12t113 -34t87.5 -63.5t35 -99.5q0 -58 -36.5 -93.5t-103.5 -35.5q-44 0 -101 18v-176q30 14 60 26.5t58.5 28.5t54.5 39t49 58l90 -65q-9 -40 -39 -59t-67.5 -29.5t-75 -17.5
t-60.5 -22q32 -8 59.5 -23t48.5 -32t34.5 -33t17.5 -27l-61 -96q-15 23 -34.5 41t-41.5 30t-44 18.5t-42 6.5q-63 0 -103 -30.5t-63 -85.5h58q54 0 113.5 -16t109 -54t82 -100.5t32.5 -155.5q0 -47 -13.5 -98.5t-40.5 -101.5t-68.5 -96t-96.5 -81t-124.5 -55.5t-153.5 -20.5
q-123 0 -216 40.5t-155.5 105t-94 145.5t-31.5 162q0 93 27 155.5t74 100.5t111.5 54t138.5 16h43q-20 59 -63.5 88t-89.5 29zM669 656q-63 0 -113 -6.5t-84.5 -28t-53 -61.5t-18.5 -107q0 -83 32 -144.5t84 -101.5t118 -59.5t134 -19.5q70 0 136.5 23.5t118.5 66.5
t83.5 103t31.5 132q0 68 -22 108.5t-58.5 61.5t-85.5 27t-103 6h-200zM1030 1309q39 -15 71 -15q30 0 48.5 14.5t18.5 43.5q0 26 -15.5 45t-37 32t-45.5 21l-40 13v-154z" />
    <glyph glyph-name="sin_tta.virama" unicode="&#xda7;&#xdca;" horiz-adv-x="1298" 
d="M605 0q-118 0 -217 40t-171 111.5t-112 169t-40 212.5q0 59 14 119t42 114.5t70.5 101.5t99.5 81.5t128.5 54.5t157.5 20v-128q-96 0 -168 -30.5t-120 -81t-72 -116t-24 -136.5q0 -87 28 -161t81 -128t129.5 -84.5t173.5 -30.5q25 0 66 7.5t87.5 29t94 61t86 103.5
t62.5 156t24 219q0 114 -24 218t-77.5 183t-138.5 126t-208 47q-64 0 -121.5 -17t-105.5 -43.5t-86 -59t-62 -63.5l-101 92q19 20 38.5 38t39.5 34q-18 30 -25.5 60t-7.5 65q0 59 31 111t86 90.5t131.5 61t167.5 22.5q106 0 191.5 -36.5t151.5 -102.5t113 -157.5t77 -201.5
t44.5 -235.5t14.5 -258.5q0 -142 -29.5 -247t-77 -180t-107.5 -123.5t-121 -76.5t-117.5 -39t-96.5 -11zM577 1406q100 0 183 -27.5t150 -80.5q-59 116 -149 182t-216 66q-68 0 -118 -13.5t-83 -37t-49.5 -54.5t-16.5 -66q0 -22 9 -43q137 74 290 74z" />
    <glyph glyph-name="sin_ttha.virama" unicode="&#xda8;&#xdca;" horiz-adv-x="1362" 
d="M870 1669q51 -2 111.5 -12t113 -34t87.5 -63.5t35 -99.5q0 -58 -36.5 -93.5t-103.5 -35.5q-44 0 -101 18v-116q55 -68 99.5 -145.5t76 -161t48.5 -172t17 -178.5q0 -115 -27 -219.5t-76.5 -183.5t-121 -126t-159.5 -47q-47 0 -81.5 12.5t-59.5 31.5t-41.5 40t-26.5 39
q-12 -21 -31.5 -42.5t-45 -39.5t-57 -29.5t-67.5 -11.5q-75 0 -140.5 37.5t-114 103.5t-76 156.5t-27.5 195.5q0 102 27.5 195.5t79 166.5t126.5 118t170 51v-129q-72 -7 -123.5 -42t-85.5 -90t-50 -125t-16 -146q0 -75 16 -141t46 -115.5t72 -78.5t94 -29q31 0 56.5 11
t43 30.5t27 47t9.5 59.5v74h129v-69q0 -47 16 -76.5t39 -46.5t48 -23.5t44 -6.5q52 0 99 32t81.5 90.5t55 141.5t20.5 185q0 126 -39.5 244t-102.5 221q-32 -32 -76 -54.5t-96 -22.5q-51 0 -95.5 16.5t-78 48t-53 77t-19.5 103.5q0 29 3.5 54t8.5 49l10 49.5t7 55.5
q-29 15 -59 24l43 106q88 -29 171 -80t157 -120v321zM652 1210q0 -19 7.5 -40.5t22.5 -40t38 -30.5t55 -12q38 0 63.5 15t43.5 36q-48 63 -100 114.5t-106 92.5q-7 -37 -15.5 -70t-8.5 -65zM976 1431q39 -15 71 -15q30 0 48.5 14.5t18.5 43.5q0 26 -15.5 45t-37 32t-45.5 21
l-40 13v-154z" />
    <glyph glyph-name="sin_dda.virama" unicode="&#xda9;&#xdca;" horiz-adv-x="1466" 
d="M65 651v128h98q-6 24 -6 49q0 40 17 76t48.5 64t76.5 44.5t101 16.5q133 0 198.5 -61.5t65.5 -171.5q0 -64 -23 -145h-273q-30 -22 -54.5 -51.5t-42.5 -62.5t-28 -68.5t-10 -68.5q0 -56 13.5 -105.5t40.5 -86.5t67.5 -58.5t94.5 -21.5q31 0 61.5 10.5t54 30.5t38 48.5
t14.5 65.5v69h128v-69q0 -41 13.5 -70.5t34 -48t45.5 -27.5t48 -9q25 0 57.5 6.5t67 26.5t67 56t58.5 94.5t41.5 143t15.5 201.5q0 75 -14.5 151.5t-44 147.5t-74.5 133t-105.5 108t-137.5 72.5t-171 26.5q-64 0 -131.5 -20t-131 -53t-119 -74t-94.5 -83l-86 96
q15 17 32 32.5l35 30.5q-32 38 -45 76.5t-13 83.5q0 59 33 111t91 90.5t136.5 61t169.5 22.5q134 0 245.5 -36.5t200.5 -102.5t155 -157.5t110 -201.5t65.5 -235.5t21.5 -258.5v-21q0 -137 -19.5 -239t-52.5 -175t-76.5 -120t-91.5 -74t-98.5 -37.5t-96.5 -10.5
q-29 0 -59.5 8t-58 23.5t-50.5 38.5t-36 53q-37 -63 -99 -93t-134 -30q-80 0 -143.5 30.5t-108 84t-68.5 126t-24 156.5q0 35 8.5 72t23.5 70.5t35.5 62.5t43.5 49h-151zM645 1423q111 0 205 -32.5t172 -90.5q-40 56 -90.5 101.5t-112 77.5t-134 49.5t-157.5 17.5
q-68 0 -123.5 -13.5t-95.5 -37t-62 -54.5t-22 -66q0 -39 28 -77q91 57 192 91t200 34zM540 779q1 7 1.5 13t0.5 12q0 52 -38 77t-104 25q-33 0 -55.5 -9.5t-36.5 -23.5t-20 -32t-6 -34q0 -17 4 -28h254z" />
    <glyph glyph-name="sin_ddha.virama" unicode="&#xdaa;&#xdca;" horiz-adv-x="1402" 
d="M911 1670q51 -2 111.5 -12t113 -34t87.5 -63.5t35 -99.5q0 -58 -36.5 -93.5t-103.5 -35.5q-44 0 -101 18v-149q113 -140 176.5 -312.5t63.5 -376.5q0 -123 -29.5 -218.5t-81 -160.5t-121.5 -99t-152 -34q-42 0 -77 12.5t-63 31.5t-47.5 40t-30.5 39q-12 -21 -32.5 -42.5
t-49.5 -39.5t-66 -29.5t-82 -11.5q-72 0 -131 26t-101 74.5t-65 118t-23 156.5q0 38 9.5 76t25 73.5t36 68t42.5 58.5h-153v128h98q-6 24 -6 49q0 40 17 76t48.5 64t76.5 44.5t101 16.5q133 0 198.5 -61.5t65.5 -171.5q0 -64 -23 -145h-265q-22 -19 -47 -49t-46.5 -66.5
t-35.5 -77.5t-14 -83q0 -55 13 -100.5t38 -78t60.5 -50.5t80.5 -18q31 0 61 11t53.5 30.5t37.5 47t14 59.5v74h123v-51q0 -53 18 -86.5t43 -52.5t52.5 -25.5t45.5 -6.5q43 0 88.5 20.5t83 66t61 119t23.5 178.5q0 158 -41.5 287.5t-110.5 236.5q-31 -34 -75 -55t-93 -21
q-51 0 -97 19t-81.5 52.5t-56.5 80.5t-21 104q0 35 4.5 56t10 38.5l11.5 37t9 52.5q-17 11 -33 20l-33 18l51 110q94 -47 179 -105t159 -128v355zM681 1216q0 -19 8 -41.5t24.5 -41.5t40 -32t55.5 -13q35 0 58.5 13t37.5 33q-46 56 -97.5 103t-105.5 88q-8 -29 -14.5 -55.5
t-6.5 -53.5zM540 779q1 7 1.5 13t0.5 12q0 52 -38 77t-104 25q-33 0 -55.5 -9.5t-36.5 -23.5t-20 -32t-6 -34q0 -17 4 -28h254zM1017 1432q39 -15 71 -15q30 0 48.5 14.5t18.5 43.5q0 26 -15.5 45t-37 32t-45.5 21l-40 13v-154z" />
    <glyph glyph-name="sin_nna.virama" unicode="&#xdab;&#xdca;" horiz-adv-x="1873" 
d="M1399 1453q51 -2 108.5 -12t106 -34t80.5 -63.5t32 -99.5q0 -58 -26.5 -93.5t-93.5 -35.5q-44 0 -101 18v-119q38 -11 77.5 -38t72 -78t53 -129.5t20.5 -192.5q0 -136 -35.5 -243t-98 -181t-146 -113t-179.5 -39q-72 0 -125 21t-88.5 50t-55 60.5t-25.5 52.5l113 63
q49 -119 181 -119q61 0 120.5 25t106.5 79t75.5 139t28.5 205q0 51 -6.5 107.5t-23.5 104t-48.5 78t-80.5 30.5q-22 0 -40 -12t-30.5 -33.5t-19.5 -50.5t-7 -63v-245h-128v243q0 46 -8.5 77t-23.5 49.5t-35 26.5t-42 8q-30 0 -54.5 -24t-42 -66t-27.5 -99t-11 -124
q2 -22 2.5 -44.5t0.5 -46.5q0 -58 -12 -117t-36 -113.5t-60 -102.5t-83.5 -83t-107.5 -55.5t-131 -20.5q-35 0 -57.5 9.5t-44 21t-46.5 21t-65 9.5q-31 0 -62.5 -14.5t-62.5 -46.5h-93q-7 11 -15.5 27t-16 35t-12.5 40.5t-5 45.5q0 30 10.5 62.5t38.5 65.5l116 139
q-26 41 -40 91t-14 108q0 69 23.5 141t72.5 130.5t124 95.5t179 37q29 0 63 -6.5t71 -21.5l302 362l84 -84l-22.5 -26.5l-61 -72.5l-90.5 -107.5l-110 -131.5l25 -23.5t27.5 -29.5t25.5 -34.5t20 -37.5q6 48 22 88t41 69t59 45.5t76 16.5q74 0 118 -35.5t55 -92.5
q11 47 44 79t75 43v435zM719 514q0 -48 -20 -91.5t-54.5 -76t-80.5 -51.5t-99 -19q-84 0 -155 51l-54 -66t-19 -25q-17 -20 -27.5 -42t-10.5 -42q0 -15 8 -29q23 22 61 41.5t92 19.5q30 0 52 -9.5t42 -21t41 -21t50 -9.5q62 0 117.5 29t97.5 79.5t67 117.5t25 143
q0 48 -7 97t-21.5 94t-37.5 84t-54 68l-103 -122q25 -15 42.5 -36.5t28 -47.5t15 -55.5t4.5 -59.5zM575 895q-67 0 -118.5 -21t-86.5 -58.5t-53 -89t-18 -112.5q0 -57 14 -99l313 375q-12 2 -24.5 3.5t-26.5 1.5zM387 420q20 -11 40 -16t38 -5q17 0 39.5 6.5t43 21t34.5 36
t14 51.5q0 38 -11 64.5t-35 38.5zM1505 1215q39 -15 71 -15q30 0 38.5 14.5t8.5 43.5q0 26 -12.5 45t-30.5 32t-38.5 21t-36.5 13v-154z" />
    <glyph glyph-name="sin_nndda.virama" unicode="&#xdac;&#xdca;" horiz-adv-x="1741" 
d="M917 1423q104 0 192 -23.5t162 -67.5q-40 49 -88.5 88.5t-107 67.5t-126.5 43t-147 15q-68 0 -123.5 -13.5t-95.5 -37t-62 -54.5t-22 -66q0 -21 8 -41t23 -41q89 59 188 94.5t199 35.5zM383 384q0 30 7.5 59.5t20.5 55.5t29 46t33 31h-115v128h546q3 13 4 25t1 23
q0 37 -14.5 64t-40.5 45t-63 26.5t-83 8.5q-32 0 -64 -9t-58 -28.5t-43.5 -49.5t-19.5 -71h-130q0 37 14 78t40 79q-59 -6 -107 -37t-82 -82t-52 -119t-18 -147q0 -81 19.5 -148t47 -118.5t57 -87t48.5 -52.5l-80 -100q-47 37 -86.5 90t-68 118t-44.5 140t-16 156
q0 104 29 198t82 164.5t128 112t168 41.5q28 0 60.5 -4t67.5 -12q23 8 48.5 12t54.5 4q98 0 162.5 -24.5t102.5 -64.5t53 -91t15 -103q0 -45 -8.5 -87.5t-20.5 -77.5h-312q-30 0 -62 -10t-59 -32.5t-44.5 -59.5t-17.5 -90q0 -65 17.5 -113t47.5 -79.5t69 -47.5t82 -16
q31 0 59.5 12.5t50 34t34 49.5t12.5 59v69h128v-71q0 -44 14.5 -74t36.5 -49t48.5 -27t49.5 -8q24 0 56 6.5t65.5 26.5t66 58t58.5 101t42.5 154.5t17.5 218.5v16q0 35 -3 68q-8 105 -43.5 199.5t-102 166.5t-166.5 114.5t-235 42.5q-72 0 -138 -20t-124 -53t-107.5 -74
t-88.5 -83l-86 96l28.5 28l29.5 28q-35 41 -49.5 80.5t-14.5 86.5q0 59 33 111t91 90.5t136.5 61t169.5 22.5q179 0 317 -62.5t236 -172t157 -258.5t79 -321q5 -36 7.5 -74t2.5 -77q0 -146 -19.5 -254.5t-52.5 -187t-76.5 -129t-92 -80.5t-98.5 -41.5t-96 -11.5
q-47 0 -82 12t-60.5 30.5t-42 40t-26.5 40.5q-13 -23 -34 -45.5t-49.5 -39.5t-63.5 -27.5t-75 -10.5q-72 0 -135 25.5t-109.5 75t-73.5 120.5t-27 163z" />
    <glyph glyph-name="sin_ta.virama" unicode="&#xdad;&#xdca;" horiz-adv-x="1504" 
d="M1030 1453q51 -2 108.5 -12t106 -34t80.5 -63.5t32 -99.5q0 -58 -26.5 -93.5t-93.5 -35.5q-44 0 -101 18v-166q106 -62 164.5 -183t58.5 -295q0 -124 -37.5 -216t-98.5 -152.5t-139.5 -90.5t-160.5 -30v123q87 8 146 42.5t95 85.5t51.5 113t15.5 125q0 91 -23 166
t-65 128.5t-101 83t-131 29.5q-48 0 -103 -18.5t-106 -56.5l-30 -22q73 -2 134 -28t104 -74t67 -115.5t24 -151.5q0 -107 -40 -187.5t-105 -134t-148 -80.5t-169 -27q-98 0 -173 18.5t-125 53t-75.5 83t-25.5 109.5q0 23 7 44t17 39t21.5 31.5t21.5 21.5h-67l-80 91l298 226
q24 23 34.5 48.5t10.5 48.5q0 34 -19.5 57.5t-48.5 23.5q-64 0 -64 -95v-64h-131v65q0 50 14 91t39.5 70t61 45t78.5 16q41 0 74.5 -12.5t57.5 -34.5t37 -52t13 -65v-12t-1 -12l79 59q87 65 167 97t151 32q63 0 119 -15v444zM537 129q67 0 128.5 18t108.5 55t75.5 93.5
t28.5 134.5q0 62 -19 108t-52.5 77t-79.5 46t-101 15q-24 0 -52.5 -5.5t-59 -16t-61.5 -27t-59 -37.5l-131 -98h87v-91q-9 -5 -22.5 -16t-26 -26t-21.5 -33t-9 -36q0 -45 22.5 -76t60 -50t85 -27t98.5 -8zM1136 1215q39 -15 71 -15q30 0 38.5 14.5t8.5 43.5q0 26 -12.5 45
t-30.5 32t-38.5 21t-36.5 13v-154z" />
    <glyph glyph-name="sin_tha.virama" unicode="&#xdae;&#xdca;" horiz-adv-x="1306" 
d="M833 1671q51 -2 108.5 -12t106 -34t80.5 -63.5t32 -99.5q0 -58 -26.5 -93.5t-93.5 -35.5q-44 0 -101 18v-145q48 -61 89 -131t70.5 -148t46 -163.5t16.5 -178.5q0 -60 -12.5 -126.5t-40 -131.5t-72 -124.5t-108.5 -104.5t-149 -71.5t-194 -26.5q-88 0 -160.5 24t-130 65
t-100.5 95.5t-72 116t-43 126.5t-14 126q0 95 29.5 176.5t79.5 143t117.5 99.5t142.5 46v-123q-59 -13 -104.5 -43.5t-77 -75t-48 -101.5t-16.5 -122q0 -42 9.5 -90t30 -95t52.5 -90.5t76 -76.5t101 -53t128 -20q120 0 205 39t139 103t79 146t25 169q0 136 -37.5 251
t-97.5 210q-32 -38 -80 -65t-106 -27q-51 0 -95.5 16.5t-77.5 48t-52.5 77t-19.5 104.5q0 29 3.5 53.5t8 48.5l9.5 49t7 55q-32 16 -59 26l43 106q86 -27 177.5 -81.5t176.5 -135.5v350zM614 1338q-7 -38 -15.5 -71.5t-8.5 -66.5q0 -19 7.5 -40.5t22.5 -40t38 -30.5t54 -12
q44 0 72.5 19.5t45.5 44.5q-50 61 -105 110t-111 87zM939 1433q39 -15 71 -15q30 0 38.5 14.5t8.5 43.5q0 26 -12.5 45t-30.5 32t-38.5 21t-36.5 13v-154z" />
    <glyph glyph-name="sin_da.virama" unicode="&#xdaf;&#xdca;" horiz-adv-x="1129" 
d="M609 1453q51 -2 108.5 -12t106 -34t80.5 -63.5t32 -99.5q0 -58 -26.5 -93.5t-93.5 -35.5q-44 0 -101 18v-164q68 -41 108 -115t40 -189q0 -11 -0.5 -22.5t-1.5 -28.5h-368q-58 0 -112 -10t-96 -34.5t-67 -66t-25 -105.5q0 -70 27.5 -121t71 -84t97 -49t104.5 -16
q77 0 134.5 22.5t96 57.5t57.5 77.5t19 83.5h123q0 -65 -24 -131t-76 -119t-133.5 -86t-196.5 -33h-21t-21 1q-14 -17 -18 -34.5t-4 -30.5q0 -23 12.5 -46t36.5 -41t58 -29.5t78 -11.5q57 0 100.5 17t74.5 48t49 73t23 93h123q0 -84 -30 -150.5t-81 -113t-117.5 -71
t-139.5 -24.5q-70 0 -127 18.5t-97.5 52.5t-62.5 81t-22 104q0 49 24 90q-67 23 -117 64t-83 91.5t-49.5 107t-16.5 111.5q0 88 31.5 151.5t88.5 104.5t135.5 61t172.5 20h245q0 81 -62.5 120t-182.5 39q-35 0 -73 -5t-71.5 -21.5t-58.5 -48.5t-33 -85h-128q14 84 50 139.5
t85.5 88.5t108.5 46.5t120 13.5q30 0 59 -3t57 -10v442zM715 1215q39 -15 71 -15q30 0 38.5 14.5t8.5 43.5q0 26 -12.5 45t-30.5 32t-38.5 21t-36.5 13v-154z" />
    <glyph glyph-name="sin_dha.virama" unicode="&#xdb0;&#xdca;" horiz-adv-x="1435" 
d="M1290 694q0 -143 -20 -250t-53.5 -184.5t-77.5 -127.5t-93 -79.5t-99.5 -41t-96.5 -11.5q-47 0 -82 12t-60.5 30.5t-42 40t-26.5 40.5q-13 -23 -32.5 -45.5t-44.5 -39.5t-55.5 -27.5t-66.5 -10.5q-80 0 -147 37.5t-116 103.5t-76 156.5t-27 195.5q0 100 33 194.5
t96.5 168t156.5 118t213 44.5v-123q-88 0 -157 -33t-116.5 -88.5t-72.5 -128t-25 -150.5q0 -74 16 -140.5t46 -117t73 -80t97 -29.5q31 0 57 12.5t44 34t28 49.5t10 59v69h123v-71q0 -44 15.5 -73.5t38.5 -47t50 -25t50 -7.5q25 0 58 5.5t67.5 23.5t68 52t60 91t42.5 140
t16 200q0 126 -35.5 244t-106 209.5t-175.5 146.5t-243 55q-64 0 -127.5 -20t-122.5 -53t-110.5 -74t-90.5 -83l-86 96q14 15 28.5 29t30.5 28q-35 41 -49 80.5t-14 85.5q0 59 33 111t91 90.5t136.5 61t169.5 22.5q133 0 243.5 -35.5t198.5 -100t154.5 -154.5t110.5 -198.5
t67 -232t25 -254.5zM602 1423q111 0 207 -30.5t177 -87.5q-40 55 -90 99.5t-111 76t-133 48.5t-156 17q-68 0 -123.5 -13.5t-95.5 -37t-62 -54.5t-22 -66q0 -40 30 -80q87 58 183 93t196 35z" />
    <glyph glyph-name="sin_na.virama" unicode="&#xdb1;&#xdca;" 
d="M953 1453q51 -2 108.5 -12t106 -34t80.5 -63.5t32 -99.5q0 -58 -26.5 -93.5t-93.5 -35.5q-44 0 -101 18v-171q50 -31 91 -75.5t70 -102.5t45 -129t16 -153q0 -123 -37.5 -217t-98.5 -157.5t-139.5 -95.5t-160.5 -32v123q81 0 139 36t95.5 91.5t55.5 122.5t18 129
q0 96 -26 170t-70 123.5t-102 75t-122 25.5q-51 0 -105 -30t-103 -75q77 -14 134 -47.5t94.5 -84t55.5 -116t18 -142.5q0 -96 -40 -170.5t-104 -126t-144 -78t-161 -26.5q-104 0 -181 34.5t-129 89t-77.5 121t-25.5 130.5v213h128v-27q15 -27 28.5 -33t25.5 -6q30 0 53 14
t40 36.5t28.5 50.5t18.5 57t10 56t3 46q0 53 -25 83t-65 30t-67 -22.5t-27 -71.5v-64h-123v64q0 50 18.5 90t49 68.5t70.5 43.5t83 15q36 0 68.5 -13t58.5 -36t45 -56t28 -73q30 37 64 70.5t73.5 58.5t84.5 40t97 15q31 0 61 -4t59 -12v445zM256 399q-12 0 -24.5 3.5
t-38.5 25.5v-51q0 -51 23.5 -96.5t62.5 -79.5t90.5 -53.5t108.5 -19.5q63 0 121 19.5t103 55t71.5 86t26.5 112.5q0 63 -19 113t-54.5 84.5t-86 54t-112.5 22.5l-20.5 -33t-16.5 -33q-17 -38 -40 -75.5t-52 -67.5t-65 -48.5t-78 -18.5zM1059 1215q39 -15 71 -15
q30 0 38.5 14.5t8.5 43.5q0 26 -12.5 45t-30.5 32t-38.5 21t-36.5 13v-154z" />
    <glyph glyph-name="sin_nda.virama" unicode="&#xdb3;&#xdca;" horiz-adv-x="1418" 
d="M876 1453q51 -2 108.5 -12t106 -34t80.5 -63.5t32 -99.5q0 -58 -26.5 -93.5t-93.5 -35.5q-44 0 -101 18v-148q79 -37 124.5 -114t45.5 -201v-27.5t-2 -28.5h-368q-58 0 -113 -10t-98 -35t-69.5 -66.5t-26.5 -105.5q0 -70 29 -120.5t74 -83.5t99 -49t105 -16
q78 0 135.5 22.5t95.5 57.5t57 77.5t19 83.5h123q0 -65 -24 -131t-76 -119t-133.5 -86t-196.5 -33h-18t-17 1q-14 -15 -20.5 -31.5t-6.5 -30.5q0 -23 12.5 -45.5t36 -39.5t58 -27.5t78.5 -10.5q57 0 100 16t73.5 45t48.5 70t23 92h123q0 -84 -30 -148.5t-81 -108.5
t-117.5 -66.5t-139.5 -22.5q-67 0 -123.5 17t-97.5 49t-64 77.5t-23 102.5q0 49 19 88q-66 23 -115.5 63.5t-82.5 90t-49.5 105.5t-16.5 111q0 88 32 152t89 106t136 62.5t173 20.5h245q0 81 -62.5 119.5t-182.5 38.5q-35 0 -74.5 -5t-75 -21.5t-62 -48t-34.5 -84.5h-123
q8 50 24 89t39 69q-5 1 -14 1q-57 0 -107 -29t-87 -81t-58.5 -122.5t-21.5 -153.5q0 -81 19.5 -148t47 -118.5t57 -87t48.5 -52.5l-80 -100q-47 37 -86.5 90t-68 118t-44.5 140t-16 156q0 104 31 198t85.5 164.5t129 112t161.5 41.5q36 0 66 -9.5t53 -26.5q44 20 92 28t99 8
q25 0 48 -2t46 -5v436zM982 1215q39 -15 71 -15q30 0 38.5 14.5t8.5 43.5q0 26 -12.5 45t-30.5 32t-38.5 21t-36.5 13v-154z" />
    <glyph glyph-name="sin_pa.virama" unicode="&#xdb4;&#xdca;" horiz-adv-x="1204" 
d="M722 779q54 0 113.5 -16t109 -54t82 -100.5t32.5 -155.5q0 -47 -13.5 -98.5t-40.5 -101.5t-68.5 -96t-96.5 -81t-124.5 -55.5t-153.5 -20.5q-123 0 -216 40.5t-155.5 105t-94 145.5t-31.5 162q0 93 27 155.5t74 100.5t111.5 54t138.5 16h43q-10 29 -27.5 51t-39.5 36.5
t-46.5 21.5t-47.5 7q-24 0 -49 -8.5t-47.5 -22.5t-41 -31t-28.5 -34l-62 96q6 10 24.5 31.5t48 43t69.5 38t89 16.5q55 0 100 -21t78.5 -55.5t54.5 -78.5t28 -90q5 35 19 69.5t35.5 64.5t51.5 54t67 38v448q51 -2 108.5 -12t106 -34t80.5 -63.5t32 -99.5q0 -58 -26.5 -93.5
t-93.5 -35.5q-44 0 -101 18v-109q40 -1 76.5 -16.5t65 -36.5t47 -42t23.5 -34l-61 -96q-15 23 -34.5 41t-41.5 30t-44 18.5t-42 6.5q-63 0 -103 -30.5t-63 -85.5h58zM462 656q-63 0 -113 -6.5t-84.5 -28t-53 -61.5t-18.5 -107q0 -83 32 -144.5t84 -101.5t118 -59.5
t134 -19.5q70 0 136.5 23.5t118.5 66.5t83.5 103t31.5 132q0 68 -22 108.5t-58.5 61.5t-85.5 27t-103 6h-200zM841 1215q39 -15 71 -15q30 0 38.5 14.5t8.5 43.5q0 26 -12.5 45t-30.5 32t-38.5 21t-36.5 13v-154z" />
    <glyph glyph-name="sin_pha.virama" unicode="&#xdb5;&#xdca;" horiz-adv-x="1397" 
d="M927 1669q51 -2 108.5 -12t106 -34t80.5 -63.5t32 -99.5q0 -58 -26.5 -93.5t-93.5 -35.5q-44 0 -101 18v-118q49 -56 89 -121.5t69 -139.5t45 -156.5t16 -173.5q0 -64 -11.5 -136.5t-39 -143.5t-73 -136t-113.5 -115t-160 -79.5t-213 -29.5q-120 0 -225 25t-183.5 79
t-123.5 139t-45 205q0 58 22.5 110t64 92t101 63.5t133.5 23.5h171q1 5 1 9.5v9.5q0 35 -16.5 61t-43 43.5t-59.5 26t-66 8.5q-31 0 -60 -7t-54 -24t-43.5 -45t-27.5 -69h-123q6 60 34.5 109.5t71 85t95 54.5t107.5 19q71 0 129 -22t99.5 -62.5t64.5 -98.5t23 -130
q0 -43 -9 -91h-294q-30 0 -64 -8.5t-62.5 -28t-47 -51.5t-18.5 -78q0 -64 17.5 -112.5t49 -84t74 -59.5t92.5 -38t104.5 -20t110.5 -6q131 0 222.5 44t149.5 116t84 164t26 188q0 127 -34 231.5t-89 190.5q-16 -22 -37 -41.5t-46.5 -34.5t-54.5 -23.5t-60 -8.5
q-51 0 -95.5 16.5t-77.5 48t-52.5 77t-19.5 104.5q0 29 3.5 54t8 49l9.5 49.5t7 55.5q-15 7 -30 13t-29 11l43 106q91 -30 182 -80.5t175 -121.5v333zM706 1344q-7 -40 -16 -74.5t-9 -69.5q0 -19 7.5 -40.5t22.5 -40t38 -30.5t54 -12q25 0 45 7t35 18t26.5 25t20.5 28
q-51 60 -108.5 106.5t-115.5 82.5zM1033 1431q39 -15 71 -15q30 0 38.5 14.5t8.5 43.5q0 26 -12.5 45t-30.5 32t-38.5 21t-36.5 13v-154z" />
    <glyph glyph-name="sin_ba.virama" unicode="&#xdb6;&#xdca;" horiz-adv-x="1462" 
d="M1187 704q-7 130 -37.5 239t-93 187t-161 121.5t-240.5 43.5q-63 0 -118 -13.5t-101.5 -35t-84.5 -48t-67.5 -52t-50 -48l-31.5 -35.5l-88 92l24 25.5t25 24.5q-42 44 -59 86.5t-17 92.5q0 59 33 111t91 90.5t136.5 61t169.5 22.5q132 0 242 -35t197.5 -99t153.5 -152.5
t111 -195.5t68.5 -229.5t25.5 -252.5q1 -22 1.5 -43.5t0.5 -44.5q0 -119 -23.5 -230.5t-71.5 -197.5t-120.5 -137.5t-170.5 -51.5q-83 0 -137.5 27t-86.5 69t-45 92.5t-13 96.5q0 40 15 85t33 90.5t33 91.5t15 88q0 61 -18 109t-49 80.5t-73.5 49.5t-91.5 17
q-81 0 -141 -33.5t-99.5 -89t-59.5 -129t-20 -152.5q0 -68 8.5 -129t27.5 -109.5t48.5 -81.5t70.5 -44q-35 39 -51.5 80.5t-16.5 92.5q0 45 12.5 80.5t34 60t49.5 37.5t58 13q46 0 80.5 -20.5t57.5 -53.5t34.5 -73.5t11.5 -80.5q0 -53 -15.5 -101t-45 -84t-72 -57.5
t-96.5 -21.5q-86 0 -147.5 45t-100.5 116t-57.5 159.5t-18.5 175.5q0 100 28 195t84.5 169t140.5 119t195 45q87 0 154 -26.5t113 -76t69.5 -120.5t23.5 -161q0 -46 -16.5 -93.5t-36 -93t-35.5 -88t-16 -79.5q0 -30 8.5 -58.5t28 -50.5t49.5 -35.5t74 -13.5q58 0 105.5 37.5
t82 103.5t53.5 156t19 195q0 17 -0.5 36t-1.5 48zM660 1423q92 0 169 -16.5t140 -48.5q-79 87 -189.5 137.5t-257.5 50.5q-68 0 -123.5 -13.5t-95.5 -37t-62 -54.5t-22 -66q0 -23 9.5 -44t27.5 -44q38 30 81 55t92.5 43t106.5 28t124 10zM495 264q0 16 -2.5 34.5t-9 34.5
t-18.5 26.5t-31 10.5q-12 0 -21.5 -8.5t-15.5 -21t-9 -27.5t-3 -28q0 -32 18 -69t55 -63q20 23 28.5 55t8.5 56z" />
    <glyph glyph-name="sin_bha.virama" unicode="&#xdb7;&#xdca;" horiz-adv-x="1666" 
d="M1190 1453q51 -2 108.5 -12t106 -34t80.5 -63.5t32 -99.5q0 -58 -26.5 -93.5t-93.5 -35.5q-44 0 -101 18v-163q61 -36 104 -90.5t70 -116.5t39 -126.5t12 -121.5q0 -119 -34.5 -214.5t-95.5 -162t-143.5 -102.5t-178.5 -36v123q46 4 102.5 23.5t105.5 63.5t82.5 117.5
t33.5 184.5q0 90 -26.5 161.5t-70 121t-98 75.5t-111.5 26q-58 0 -107 -19t-87.5 -50.5t-66.5 -73t-44 -86.5q25 20 52.5 28.5t49.5 8.5q43 0 82.5 -16.5t69.5 -51t48 -88.5t18 -129q0 -66 -21.5 -123t-58 -103.5t-85 -82.5t-103.5 -60.5t-113 -37t-113 -12.5
q-121 0 -210.5 27t-148.5 77t-88 121t-29 158q0 42 18 85t44 80.5t55 65t50 37.5h-234v128h98q-6 24 -6 49q0 40 15.5 75.5t45 62.5t73 42.5t99.5 15.5q133 0 193.5 -59t60.5 -169q0 -64 -23 -145q-79 -9 -145 -36.5t-114 -66.5t-74.5 -85.5t-26.5 -92.5q0 -78 31 -125.5
t80.5 -73.5t112 -34.5t125.5 -8.5q77 0 144 23t116 62.5t77 92.5t28 113q0 49 -11 80t-28 48.5t-37.5 24t-39.5 6.5q-11 0 -25.5 -3.5t-28.5 -13.5t-25.5 -26.5t-17.5 -42.5h-123v61q0 92 30.5 177t88.5 150.5t140.5 104.5t186.5 39q29 0 54.5 -3.5t50.5 -8.5v441zM520 779
q1 7 1.5 13t0.5 12q0 52 -33 74.5t-99 22.5q-33 0 -54 -8.5t-33 -22t-16.5 -30.5t-4.5 -33q0 -17 4 -28h234zM1296 1215q39 -15 71 -15q30 0 38.5 14.5t8.5 43.5q0 26 -12.5 45t-30.5 32t-38.5 21t-36.5 13v-154z" />
    <glyph glyph-name="sin_ma.virama" unicode="&#xdb8;&#xdca;" horiz-adv-x="1398" 
d="M73 1163q7 8 15.5 16.5l18.5 18.5q-47 46 -65 90t-18 96q0 59 33 111t91 90.5t136.5 61t169.5 22.5q162 0 290.5 -51t224.5 -142t160 -217t96 -276q17 -80 22 -154.5t5 -151.5q0 -150 -45 -275t-125 -214t-189.5 -138.5t-238.5 -49.5q-122 0 -229 42.5t-187 119
t-126.5 184t-46.5 236.5q0 100 23 181.5t63.5 139.5t97 89.5t123.5 31.5q44 0 73.5 -10t47 -27.5t24.5 -41t7 -50.5q0 -37 -9.5 -77.5t-21.5 -79l-21.5 -71t-9.5 -53.5q0 -62 49 -101t151 -39q31 0 62.5 12t58 34.5t45.5 55t24 73.5q-50 -31 -99 -31q-37 0 -67.5 18
t-52.5 45.5t-34 61t-12 65.5q0 43 13 82.5t37 69.5t58.5 47.5t78.5 17.5q58 0 97.5 -30t64 -74.5t35 -96.5t10.5 -96q0 -70 -22 -138.5t-63 -122.5t-101 -87t-136 -33q-65 0 -123 18.5t-101.5 53t-69.5 84t-26 111.5q0 24 9.5 56t21.5 65t21.5 64.5t9.5 54.5q0 19 -9 30
t-31 11q-26 0 -55.5 -15.5t-54.5 -52.5t-41.5 -98.5t-16.5 -153.5q0 -103 35.5 -186t97.5 -141t146 -89t182 -31q109 0 196 44.5t148 121t93.5 179t32.5 217.5q0 57 -3 105.5t-11 94.5q-16 92 -53.5 167.5t-98.5 129.5t-146.5 83.5t-196.5 29.5q-64 0 -128.5 -19.5
t-124.5 -51.5t-112 -73.5t-91 -84.5zM615 1423q83 0 155 -16.5t134 -46.5q-79 86 -189 136t-256 50q-68 0 -123.5 -13.5t-95.5 -37t-62 -54.5t-22 -66q0 -25 11 -48t33 -48q36 27 80 53t95.5 46t111.5 32.5t128 12.5zM688 816q0 -19 6.5 -35.5t17.5 -29t26 -19.5t32 -7
q23 0 44 9.5t38 22.5q-3 21 -7.5 46.5t-14 47t-26.5 36t-44 14.5q-19 0 -32.5 -7.5t-22.5 -19.5t-13 -27.5t-4 -30.5z" />
    <glyph glyph-name="sin_mba.virama" unicode="&#xdb9;&#xdca;" 
d="M648 991q20 11 43.5 19t46.5 8q32 0 65 -11.5t59.5 -36t43.5 -62.5t17 -91q0 -66 -17 -110.5t-50.5 -72t-83 -39t-114.5 -11.5q-73 0 -117.5 15.5t-69 39.5t-32.5 53t-8 56q0 19 5 32t10.5 23.5l10.5 21t5 25.5q0 13 -7 21.5t-17 14t-22 7.5t-22 2q-38 0 -74 -24.5
t-64 -74t-45.5 -125t-17.5 -178.5q0 -74 17.5 -140t49 -116t75 -79.5t96.5 -29.5q51 0 71.5 15t20.5 34q0 22 -7 36.5t-17 25.5t-22 21t-22 24t-17 34t-7 51q0 71 65 112t181 41q57 0 103 -11t77.5 -31t48.5 -48.5t17 -62.5q0 -46 -14.5 -71t-32 -42t-32 -32.5t-14.5 -43.5
q0 -26 13 -39t54 -13q37 0 81.5 30t83.5 96.5t65 172t26 256.5q0 146 -34.5 260t-100 192.5t-159.5 119.5t-213 41q-63 0 -118.5 -13.5t-102.5 -35t-86 -48t-69 -52t-51 -48t-32 -35.5l-88 92l19.5 20t20.5 20q-47 46 -66 90.5t-19 97.5q0 59 33 111t91 90.5t136.5 61
t169.5 22.5q134 0 245.5 -36.5t200.5 -102.5t155 -157.5t110 -201.5t65.5 -235.5t21.5 -258.5q0 -160 -31 -286t-84 -213t-123.5 -132.5t-149.5 -45.5q-97 0 -141.5 42t-44.5 112q0 31 14.5 50.5t31.5 37.5t31.5 38.5t14.5 53.5q0 26 -28.5 41.5t-94.5 15.5
q-72 0 -97.5 -15.5t-25.5 -41.5q0 -33 14.5 -53.5t31.5 -38.5t31.5 -37.5t14.5 -50.5q0 -35 -15 -63.5t-42.5 -48.5t-67 -31t-88.5 -11q-80 0 -147.5 37t-116.5 102.5t-76.5 156t-27.5 197.5q0 65 10.5 129t30 122.5t48.5 108.5t66.5 86.5t83 57.5t98.5 21q58 0 93.5 -17.5
t55.5 -42.5t27 -52t7 -46q0 -18 -5 -29t-10.5 -20t-10.5 -18.5t-5 -24.5q0 -29 24.5 -45t86.5 -16q73 0 104 23t31 83q0 34 -16.5 58t-59.5 24q-9 0 -19.5 -3.5t-19.5 -8.5zM648 1424q81 0 154.5 -18t137.5 -53q-80 89 -191 141t-260 52q-68 0 -123.5 -13.5t-95.5 -37
t-62 -54.5t-22 -66q0 -26 11 -48.5t33 -48.5q39 31 83.5 58t96 46.5t110.5 30.5t128 11z" />
    <glyph glyph-name="sin_ya.virama" unicode="&#xdba;&#xdca;" horiz-adv-x="1346" 
d="M876 1453q51 -2 108.5 -12t106 -34t80.5 -63.5t32 -99.5q0 -58 -26.5 -93.5t-93.5 -35.5q-44 0 -101 18v-132q39 -16 68 -42.5t48 -61t28 -75.5t9 -85h-123q0 28 -6.5 56t-23.5 50.5t-47 37t-77 14.5q-44 0 -73.5 -12t-47 -33t-25 -50t-7.5 -63h153q72 0 135 -20.5
t109 -62t72.5 -103.5t26.5 -146q0 -108 -27 -185t-73 -126t-105.5 -71.5t-125.5 -22.5q-47 0 -83.5 12.5t-64.5 31.5t-47 40t-30 39q-12 -21 -32.5 -42.5t-47.5 -39.5t-59.5 -29.5t-68.5 -11.5q-75 0 -142.5 33.5t-118.5 97.5t-81 156.5t-30 209.5q0 115 32 211t88.5 165
t134.5 107t170 38v-123q-73 0 -128.5 -32.5t-93 -88t-56.5 -128t-19 -151.5q0 -84 18 -152t50.5 -116t76.5 -73.5t97 -25.5q31 0 58 11t47 30.5t31 47t11 59.5v74h123v-69q0 -47 19 -76.5t45 -46.5t54.5 -23.5t46.5 -6.5q27 0 62 9t66.5 38t53 84t21.5 147q0 57 -19 96.5
t-50 64.5t-69 36t-77 11h-276q-1 11 -1 21.5v21.5q0 181 66 274t211 93h9t9 -1v430zM982 1215q39 -15 71 -15q30 0 38.5 14.5t8.5 43.5q0 26 -12.5 45t-30.5 32t-38.5 21t-36.5 13v-154z" />
    <glyph glyph-name="sin_ra.virama" unicode="&#xdbb;&#xdca;" horiz-adv-x="1199" 
d="M177 1453q51 -2 108.5 -12t106 -34t80.5 -63.5t32 -99.5q0 -58 -26.5 -93.5t-93.5 -35.5q-44 0 -101 18v-179q91 51 204 65q35 19 73.5 50.5t75 79t68 113t52.5 151.5l139 -61q-18 -62 -47.5 -113t-64.5 -92.5t-72 -73.5t-69 -54q91 -11 167 -47.5t130.5 -95t84.5 -139
t30 -179.5q0 -119 -33 -221t-96.5 -177t-155.5 -117.5t-210 -42.5q-115 0 -206.5 45.5t-155.5 122t-98 176.5t-34 209q0 100 29.5 179t82.5 138v583zM928 553q0 76 -23.5 139t-70 108.5t-116.5 70.5t-162 25t-160.5 -26t-114 -71.5t-68 -108.5t-22.5 -137q0 -92 28 -170
t77.5 -134.5t117 -88.5t145.5 -32q82 0 150 32t117 88.5t75.5 134.5t26.5 170zM283 1215q39 -15 71 -15q30 0 38.5 14.5t8.5 43.5q0 26 -12.5 45t-30.5 32t-38.5 21t-36.5 13v-154z" />
    <glyph glyph-name="sin_la.virama" unicode="&#xdbd;&#xdca;" horiz-adv-x="1346" 
d="M872 1453q51 -2 108.5 -12t106 -34t80.5 -63.5t32 -99.5q0 -58 -26.5 -93.5t-93.5 -35.5q-44 0 -101 18v-216q52 -39 93 -89t69.5 -108.5t44 -124t15.5 -134.5q0 -131 -37 -219.5t-94.5 -142t-127.5 -76.5t-136 -23q-52 0 -108 16t-102 49.5t-75.5 86t-29.5 125.5
q0 35 9.5 67.5t25 60.5t35.5 50t40 36h-207v122h490v-122h-120q-68 -28 -109.5 -76t-41.5 -114q0 -47 21 -79t51.5 -52t64.5 -28.5t61 -8.5q40 0 87 14t87 52.5t66.5 107.5t26.5 179q0 83 -33.5 157.5t-91 130.5t-136 89t-168.5 33q-94 0 -177 -38.5t-144.5 -112
t-97.5 -180.5t-36 -245q0 -117 30 -224t91.5 -189.5t154.5 -132.5t218 -53q78 2 139 19t108 50.5t81.5 84t58.5 119.5l116 -43q-32 -96 -80.5 -164t-113 -111.5t-142.5 -63.5t-168 -20q-127 0 -240 47.5t-197.5 140t-134 227.5t-49.5 310q0 162 43 292.5t120.5 222.5
t184.5 142t236 50q61 0 116.5 -12t106.5 -34v475zM978 1215q39 -15 71 -15q30 0 38.5 14.5t8.5 43.5q0 26 -12.5 45t-30.5 32t-38.5 21t-36.5 13v-154z" />
    <glyph glyph-name="sin_va.virama" unicode="&#xdc0;&#xdca;" horiz-adv-x="1325" 
d="M1180 677q-9 -132 -40 -233.5t-77 -177t-103.5 -126.5t-119.5 -82t-124.5 -44.5t-118.5 -13.5q-104 0 -195.5 29.5t-160.5 85t-109 136t-40 182.5q0 66 27 121.5t76.5 96t120.5 63.5t158 23h123q1 5 1 10v10q0 34 -16.5 61t-43 45.5t-59.5 28t-66 9.5q-31 0 -60 -7
t-53.5 -24t-43 -45t-27.5 -69h-123q6 60 34.5 109.5t71 85t95 54.5t106.5 19q71 0 129 -22.5t99.5 -64.5t64.5 -101t23 -131q0 -43 -9 -91h-246q-49 0 -95 -11.5t-81 -34.5t-56.5 -57.5t-21.5 -80.5q0 -69 27 -125t76.5 -95t119 -60.5t153.5 -21.5q47 0 99.5 17.5
t103.5 52.5t97.5 86.5t82 119t56.5 151t21 181.5q0 67 -10.5 134t-33.5 129.5t-58.5 116.5t-86.5 93.5t-117.5 62.5t-150.5 23q-79 0 -150 -25t-129 -61t-100.5 -75t-63.5 -67l-96 94l47 45q-42 44 -58.5 86t-16.5 92q0 59 33 111t91 90.5t136.5 61t169.5 22.5
q136 0 245 -47t192.5 -129.5t141 -196t91.5 -245.5q12 -34 21 -67t15 -75t9 -98t3 -134zM599 1423q75 0 141.5 -14.5t124.5 -42.5q-69 84 -166.5 132t-231.5 48q-68 0 -123.5 -13.5t-95.5 -37t-62 -54.5t-22 -66q0 -44 39 -90q84 61 182 99.5t214 38.5z" />
    <glyph glyph-name="sin_sha.virama" unicode="&#xdc1;&#xdca;" horiz-adv-x="1490" 
d="M1018 1453q51 -2 108.5 -12t106 -34t80.5 -63.5t32 -99.5q0 -58 -26.5 -93.5t-93.5 -35.5q-44 0 -101 18v-169q58 -36 100 -88t69 -111.5t39.5 -122t12.5 -119.5q0 -119 -39.5 -216t-106.5 -165t-154.5 -105t-183.5 -37v123q6 0 9 1q23 5 38 32.5t15 66.5q0 18 -3 30.5
l-6.5 26t-6.5 30t-3 42.5q0 39 15 65.5t37 43t46.5 24t42.5 7.5q64 0 101 -32t51 -78q20 63 20 143q0 86 -26 155t-70.5 117t-102.5 73.5t-121 25.5t-113 -18t-89 -49t-67 -71t-47 -84q22 17 45 25t43 8q49 0 85.5 -28.5t60.5 -73t35.5 -99t11.5 -106.5v-15.5t-1 -15.5
q-6 -88 -40 -156.5t-86 -116t-118.5 -72t-136.5 -24.5q-73 0 -132.5 23t-105.5 62t-79.5 90.5t-55 108.5t-32 115.5t-10.5 112.5q0 128 37 221t98 154.5t139.5 94.5t161.5 42v-123q-27 -4 -60.5 -14t-68 -29t-66.5 -48.5t-57.5 -71.5t-40.5 -98t-15 -128q0 -84 23 -154.5
t62 -121.5t90.5 -79.5t108.5 -28.5q52 0 97 15.5t79.5 46.5t57 76.5t28.5 104.5q1 8 1.5 17t0.5 17q0 36 -8 68.5t-21.5 57t-32 39t-39.5 14.5q-25 0 -48.5 -21.5t-37.5 -70.5h-123v61q0 92 35.5 177t98 150.5t148.5 104.5t188 39q32 0 61 -4t56 -11v444zM1130 258
q1 5 1 9.5v9.5q0 39 -18 65.5t-51 26.5q-35 0 -49.5 -18.5t-14.5 -43.5q0 -26 8.5 -48t8.5 -50q0 -17 -8 -46q33 16 64.5 39.5t58.5 55.5zM1124 1215q39 -15 71 -15q30 0 38.5 14.5t8.5 43.5q0 26 -12.5 45t-30.5 32t-38.5 21t-36.5 13v-154z" />
    <glyph glyph-name="sin_ssa.virama" unicode="&#xdc2;&#xdca;" horiz-adv-x="1197" 
d="M557 779q5 36 18.5 71.5t35 66.5t51.5 54.5t68 37.5v444q51 -2 108.5 -12t106 -34t80.5 -63.5t32 -99.5q0 -58 -26.5 -93.5t-93.5 -35.5q-44 0 -101 18v-110q57 -3 97.5 -23t67 -51t39 -70.5t12.5 -79.5q0 -48 -13.5 -98t-36.5 -82q11 -18 19.5 -36t14.5 -37.5t9 -42
t3 -50.5q0 -43 -13 -93.5t-39.5 -101t-67 -97t-95 -82.5t-123.5 -57.5t-153 -21.5q-82 0 -150.5 19t-123 52.5t-95.5 77.5t-68.5 94.5t-41 104t-13.5 105.5q0 93 26 155.5t72.5 100.5t110 54t137.5 16h43q-10 29 -27.5 51t-39.5 36.5t-46.5 21.5t-47.5 7q-24 0 -49 -8.5
t-47.5 -22.5t-41 -31t-28.5 -34l-62 96q6 10 24 31.5t46.5 43t67.5 38t88 16.5q55 0 101 -21t80 -55.5t56 -78.5t29 -90zM457 656q-63 0 -113 -6.5t-84.5 -28t-53 -61.5t-18.5 -107q0 -83 32 -145t84 -103t118.5 -61.5t134.5 -20.5q70 0 136 24.5t118 68t83.5 104.5
t31.5 133q0 28 -3.5 41.5t-11.5 31.5l-2 5q-33 -22 -67 -36.5t-66 -22.5q0 -58 -17.5 -100.5t-47 -70.5t-68.5 -41.5t-82 -13.5q-35 0 -72.5 10t-69.5 34t-52.5 63.5t-20.5 98.5q0 34 15 54.5t35.5 31.5t42 14.5t35.5 3.5h257q37 10 65 24.5t50 31.5q-38 26 -86.5 35
t-102.5 9h-200zM717 779q50 0 102.5 -15.5t98.5 -50.5q3 9 5.5 21t4 24t2 23t0.5 18q0 44 -32 70.5t-89 26.5q-54 0 -90.5 -31t-59.5 -86h58zM561 338q27 0 49.5 5t39 19t25.5 40.5t9 69.5h-129q-26 0 -47 -0.5t-37 -5t-24.5 -13.5t-8.5 -25q0 -27 10.5 -44t28 -27.5
t39.5 -14.5t45 -4zM836 1215q39 -15 71 -15q30 0 38.5 14.5t8.5 43.5q0 26 -12.5 45t-30.5 32t-38.5 21t-36.5 13v-154z" />
    <glyph glyph-name="sin_sa.virama" unicode="&#xdc3;&#xdca;" horiz-adv-x="1400" 
d="M928 1453q51 -2 108.5 -12t106 -34t80.5 -63.5t32 -99.5q0 -58 -26.5 -93.5t-93.5 -35.5q-44 0 -101 18v-117q53 -12 88 -41t56 -67.5t30 -82t9 -85.5h-128q0 28 -5 55.5t-19 50t-39 36.5t-65 14q-22 0 -42.5 -6.5t-37 -21.5t-26.5 -39.5t-11 -60.5h73q72 0 134 -26
t107.5 -73t71 -114t25.5 -148q0 -101 -30 -177.5t-78 -127.5t-108 -76.5t-119 -25.5q-47 0 -82 13.5t-61 33t-43.5 41.5t-28.5 40q-11 -18 -28.5 -40t-43.5 -41.5t-61.5 -33t-81.5 -13.5q-61 0 -121 28.5t-107.5 81t-77 128t-29.5 169.5v5q0 66 19 124t53 104h-162v128h129
q4 54 24.5 100.5t53.5 81t78 54.5t99 20q59 0 103.5 -16.5t74 -53.5t44 -95t14.5 -141q0 -36 -3 -78h-196q-38 0 -74.5 -14t-65 -42.5t-46 -71.5t-17.5 -102q0 -82 23.5 -136t56.5 -86.5t68.5 -46t60.5 -13.5q18 0 44 6.5t49 23.5t39.5 46.5t16.5 76.5v69h128v-69
q0 -47 16.5 -76.5t39.5 -46.5t49 -23.5t44 -6.5q16 0 38 5t45 17.5t46 33.5t41 52t29 73.5t11 98.5q0 60 -18.5 103.5t-48.5 72t-68 42.5t-77 14h-196q-1 15 -1.5 29.5t-0.5 28.5q0 81 16 140t44.5 98t66.5 60t83 26v431zM558 768q0 39 -9.5 63.5t-25.5 39t-37 20t-43 5.5
q-28 0 -49 -11t-35.5 -29t-23.5 -41t-12 -47h235zM1034 1215q39 -15 71 -15q30 0 38.5 14.5t8.5 43.5q0 26 -12.5 45t-30.5 32t-38.5 21t-36.5 13v-154z" />
    <glyph glyph-name="sin_ha.virama" unicode="&#xdc4;&#xdca;" horiz-adv-x="1599" 
d="M1125 1453q51 -2 108.5 -12t106 -34t80.5 -63.5t32 -99.5q0 -58 -26.5 -93.5t-93.5 -35.5q-44 0 -101 18v-165q61 -36 103.5 -90.5t69 -116t38.5 -125.5t12 -121q0 -119 -34.5 -214.5t-95.5 -162t-143.5 -102.5t-178.5 -36v123q46 4 102.5 23.5t105.5 63.5t82.5 117.5
t33.5 184.5q0 90 -26.5 161.5t-70 121t-98 75.5t-111.5 26q-58 0 -107 -19t-87.5 -50.5t-66.5 -73t-44 -86.5q25 20 52.5 28.5t49.5 8.5q43 0 80 -16.5t64 -51t42 -88.5t15 -129q0 -66 -20.5 -123t-56.5 -103.5t-84 -82.5t-103 -60.5t-114 -37t-116 -12.5
q-121 0 -207.5 36.5t-142.5 96t-82.5 135t-26.5 152.5q0 33 7.5 70.5t25.5 74.5t47 71t72 61t100.5 45t132.5 22q3 11 4 22.5t1 17.5q0 52 -33 74.5t-99 22.5q-33 0 -54 -8.5t-33 -22t-16.5 -30.5t-4.5 -33t4 -27h-123q-6 24 -6 48q0 40 15.5 75.5t45 62.5t73 42.5
t99.5 15.5q133 0 193.5 -59t60.5 -169q0 -62 -22 -140q-173 0 -267.5 -60t-94.5 -188q0 -71 28.5 -123t75 -87t106.5 -52t123 -17q84 0 152 22.5t115 62t72.5 92.5t25.5 113q0 49 -8.5 80t-22 48.5t-31.5 24t-37 6.5q-11 0 -25.5 -3.5t-28.5 -13.5t-25.5 -26.5t-17.5 -42.5
h-123v61q0 92 30.5 177t88.5 150.5t140.5 104.5t186.5 39q29 0 55.5 -3.5t51.5 -9.5v442zM1231 1215q39 -15 71 -15q30 0 38.5 14.5t8.5 43.5q0 26 -12.5 45t-30.5 32t-38.5 21t-36.5 13v-154z" />
    <glyph glyph-name="sin_lla.virama" unicode="&#xdc5;&#xdca;" horiz-adv-x="1456" 
d="M981 1453q51 -2 108.5 -12t106 -34t80.5 -63.5t32 -99.5q0 -58 -26.5 -93.5t-93.5 -35.5q-44 0 -101 18v-163q51 -46 80 -122.5t29 -171.5h-737q-66 0 -123 -34q4 -135 37 -232.5t84.5 -160t116 -92t131.5 -29.5q48 0 94 18t87 49t75 73t59 89t39 97.5t14 98.5h123
q0 -44 -12 -101.5t-38 -119t-65 -121t-94 -106.5t-125 -76t-157 -29q-117 0 -201.5 41t-142 110.5t-91 161.5t-46.5 193q-31 -73 -31 -165q0 -138 39 -258.5t107.5 -210t162 -141t203.5 -51.5q97 0 177 39.5t142 102.5t105 142t67 159l115 -47q-17 -59 -44.5 -121
t-66.5 -120t-89 -109.5t-111.5 -90t-135 -61t-158.5 -22.5q-137 0 -254 57t-203 160.5t-135 249t-49 322.5q0 52 9.5 102.5t28.5 97.5t46.5 88.5t63.5 74.5q4 68 23.5 126.5t52 101.5t75.5 67.5t93 24.5q53 0 95.5 -18t74 -48.5t51.5 -71.5t27 -87q7 46 26.5 87t51.5 71.5
t75 48.5t96 18q7 0 13.5 -0.5t13.5 -1.5v431zM459 799h143q-23 55 -56 75.5t-81 20.5q-47 0 -76 -29.5t-42 -83.5q53 17 112 17zM944 895q-48 0 -81 -20.5t-56 -75.5h259q-17 45 -48 70.5t-74 25.5zM1087 1215q39 -15 71 -15q30 0 38.5 14.5t8.5 43.5q0 26 -12.5 45
t-30.5 32t-38.5 21t-36.5 13v-154z" />
    <glyph glyph-name="sin_fa.virama" unicode="&#xdc6;&#xdca;" horiz-adv-x="1362" 
d="M577 601q0 47 -8.5 99t-30 95.5t-59 72t-94.5 28.5q-48 0 -84 -26.5t-60 -71.5t-36 -106t-12 -130q0 -87 26.5 -165.5t70.5 -138t102 -95t121 -35.5v-128q-72 0 -132.5 24t-110.5 65t-88 96t-64 117.5t-39.5 129t-13.5 130.5q0 119 26.5 206t70.5 144t102 84.5t121 27.5
t108 -19.5t75.5 -49.5t47.5 -65t25 -66q7 30 24 64.5t46 64t72.5 49.5t104.5 22v429q51 -2 108.5 -12t106 -34t80.5 -63.5t32 -99.5q0 -58 -26.5 -93.5t-93.5 -35.5q-44 0 -101 18v-125q47 -16 87.5 -50t70.5 -88.5t47.5 -131t17.5 -176.5q0 -64 -13.5 -130.5t-39.5 -129
t-64 -117.5t-88 -96t-111 -65t-132 -24v128q63 0 121 35.5t102 95t70.5 138t26.5 165.5q0 74 -12 135.5t-36 105.5t-60 68.5t-84 24.5q-57 0 -94.5 -28.5t-59 -72t-30 -95.5t-8.5 -99v-122h-128v122zM994 1215q39 -15 71 -15q30 0 38.5 14.5t8.5 43.5q0 26 -12.5 45
t-30.5 32t-38.5 21t-36.5 13v-154z" />
    <glyph glyph-name="sin_k_ssa" unicode="&#xd9a;&#xdca;&#x200d;&#xdc2;" horiz-adv-x="2316" 
d="M357 492v-91q-44 -30 -62 -69t-18 -70q0 -42 14.5 -69t37 -42.5t49 -21.5t50.5 -6q33 0 58.5 13t43.5 35t27 50.5t9 59.5v69h128v-69q0 -40 12.5 -70t33.5 -49.5t48.5 -29t58.5 -9.5q29 0 56.5 12t49 39t34.5 70.5t13 105.5q0 75 -22.5 135.5t-67.5 103t-112 65
t-156 22.5q-23 0 -49.5 -2t-54.5 -8.5t-57.5 -19.5t-57.5 -34l-160 -120h94zM1546 780q-32 29 -80 53t-107.5 41t-128 26t-140.5 9q-104 0 -214 -25.5t-207 -85.5q5 0 9 0.5t9 0.5q102 0 183 -34t137 -94t86 -142t30 -179q0 -98 -25.5 -165t-65.5 -108t-89 -59t-96 -18
q-48 0 -85 12.5t-64 31t-44 40t-24 39.5q-14 -23 -35.5 -45.5t-49 -39.5t-60.5 -27.5t-69 -10.5q-63 0 -111.5 18t-82 51t-51 79t-17.5 102q0 20 6 42t15.5 42t22 37.5t26.5 29.5h-84l-80 91l301 227q35 26 50 53t15 50q0 32 -23 53t-56 21q-32 0 -58 -23t-26 -72v-64h-123
v64q0 50 15.5 91t43 70.5t65.5 45.5t83 16q33 0 66.5 -12t60.5 -34t45.5 -53t23.5 -69q69 52 143.5 85t147.5 51.5t139 25t119 6.5q67 0 146 -9t157.5 -35.5t151 -74.5t128.5 -126q7 46 26.5 90t52 78.5t78.5 55.5t105 21q61 0 105.5 -19.5t72.5 -51t41.5 -72t13.5 -82.5
q0 -48 -13.5 -98t-36.5 -82q11 -18 19.5 -36t14.5 -37.5t9 -42t3 -50.5q0 -43 -13 -93.5t-39.5 -101t-67 -97t-95 -82.5t-123.5 -57.5t-153 -21.5q-82 0 -150.5 19t-123 52.5t-95.5 77.5t-68.5 94.5t-41 104t-13.5 105.5q0 93 26 154t72.5 98t110 54t137.5 20zM1575 656
q-63 0 -113 -6.5t-84.5 -28t-53 -61.5t-18.5 -107q0 -83 32 -145t84 -103t118.5 -61.5t134.5 -20.5q70 0 136 24.5t118 68t83.5 104.5t31.5 133q0 28 -3.5 41.5t-11.5 31.5l-2 5q-33 -22 -67 -36.5t-66 -22.5q0 -58 -17.5 -100.5t-47 -70.5t-68.5 -41.5t-82 -13.5
q-35 0 -72.5 10t-69.5 34t-52.5 63.5t-20.5 98.5q0 34 15 54.5t35.5 31.5t42 14.5t35.5 3.5h257q37 10 65 24.5t50 31.5q-38 26 -86.5 35t-102.5 9h-200zM1679 338q27 0 49.5 5t39 19t25.5 40.5t9 69.5h-129q-26 0 -47 -0.5t-37 -5t-24.5 -13.5t-8.5 -25q0 -27 10.5 -44
t28 -27.5t39.5 -14.5t45 -4zM1835 779q50 0 102.5 -15.5t98.5 -50.5q3 9 5.5 21t4 24t2 23t0.5 18q0 44 -32 70.5t-89 26.5q-54 0 -90.5 -31t-59.5 -86h58z" />
    <glyph glyph-name="sin_n_nda" unicode="&#xdb1;&#xdca;&#x200d;&#xdb3;" horiz-adv-x="1949" 
d="M625 791q77 -14 134 -47.5t94.5 -84t55.5 -116t18 -142.5q0 -96 -40 -170.5t-104 -126t-144 -78t-161 -26.5q-104 0 -181 34.5t-129 89t-77.5 121t-25.5 130.5v213h128v-27q15 -27 28.5 -33t25.5 -6q30 0 53 14t40 36.5t28.5 50.5t18.5 57t10 56t3 46q0 53 -25 83t-65 30
t-67 -22.5t-27 -71.5v-64h-123v64q0 50 18.5 90t49 68.5t70.5 43.5t83 15q36 0 68.5 -13t58.5 -36t45 -56t28 -73q48 55 98.5 90.5t104 56.5t108.5 29t111 8q84 0 147 -17.5t108 -40.5q15 13 44 24t62 18.5t66.5 11.5t58.5 4q83 0 151.5 -19.5t117 -62.5t75 -110t26.5 -162
v-27.5t-2 -28.5h-368q-58 0 -113 -10t-98 -35t-69.5 -66.5t-26.5 -105.5q0 -70 29 -120.5t74 -83.5t99 -49t105 -16q78 0 135.5 22.5t95.5 57.5t57 77.5t19 83.5h123q0 -65 -24 -131t-76 -119t-133.5 -86t-196.5 -33h-18t-17 1q-14 -15 -20.5 -31.5t-6.5 -30.5
q0 -23 12.5 -45.5t36 -39.5t58 -27.5t78.5 -10.5q57 0 100 16t73.5 45t48.5 70t23 92h123q0 -84 -30 -148.5t-81 -108.5t-117.5 -66.5t-139.5 -22.5q-67 0 -123.5 17t-97.5 49t-64 77.5t-23 102.5q0 49 19 88q-66 23 -115.5 63.5t-82.5 90t-49.5 105.5t-16.5 111
q0 88 32 152t89 106t136 62.5t173 20.5h245q0 81 -62.5 119.5t-182.5 38.5q-35 0 -74.5 -5t-75 -21.5t-62 -48t-34.5 -84.5h-123q8 50 19 84t37 66q-8 4 -23 9.5t-38 11t-54.5 9t-73.5 3.5q-89 0 -167.5 -29t-127.5 -100zM256 399q-12 0 -24.5 3.5t-38.5 25.5v-51
q0 -51 23.5 -96.5t62.5 -79.5t90.5 -53.5t108.5 -19.5q63 0 121 19.5t103 55t71.5 86t26.5 112.5q0 63 -19 113t-54.5 84.5t-86 54t-112.5 22.5l-20.5 -33t-16.5 -33q-17 -38 -40 -75.5t-52 -67.5t-65 -48.5t-78 -18.5z" />
    <glyph glyph-name="sin_yansaya" unicode="&#xdca;&#x200d;&#xdba;" horiz-adv-x="1127" 
d="M75 697q-16 27 -24.5 55.5t-8.5 57.5q0 43 15 82t44 68.5t71.5 46.5t98.5 17q101 0 157 -65t56 -180q0 -69 -20 -128t-50.5 -110.5t-66.5 -98.5l-69.5 -93t-58.5 -92t-33 -97q18 13 43 26t53 23.5t56 17t51 6.5q50 0 90 -17.5t76 -38.5t70.5 -38.5t72.5 -17.5
q94 0 137 50t43 132q0 46 -25 82.5t-63 69.5t-82 67t-82 76t-63.5 95.5t-25.5 125.5q0 46 17 84t47.5 65t72 41.5t91.5 14.5q48 0 87 -14.5t66.5 -42t42.5 -67.5t15 -90q0 -25 -10 -52t-25 -55h-123q30 55 30 99q0 43 -26 70.5t-63 27.5q-14 0 -28.5 -6.5t-25.5 -18
t-18 -28.5t-7 -38q0 -50 24 -90t60.5 -76t78.5 -70.5t78.5 -73.5t60.5 -85t24 -105q0 -151 -83 -230t-238 -79q-51 0 -87 14.5t-68.5 32.5t-67 32.5t-83.5 14.5q-30 0 -59 -10.5t-53.5 -25t-43.5 -30.5t-28 -28h-139q-14 51 -14 96q0 74 22.5 137.5t56.5 120t73.5 108.5
t73.5 103t56.5 103.5t22.5 110.5q0 24 -4.5 46t-15 38.5t-28.5 26.5t-45 10q-42 0 -63 -25t-21 -60q0 -32 11 -64.5t29 -53.5h-135z" />
    <glyph glyph-name="sin_ka.i" unicode="&#xd9a;&#xdd2;" horiz-adv-x="1532" 
d="M286 719q35 26 50 53t15 50q0 32 -23 53t-56 21q-32 0 -58 -23t-26 -72v-64h-123v64q0 50 15.5 91t43 70.5t65.5 45.5t83 16q33 0 66.5 -12t60.5 -34t45.5 -53t23.5 -69l78 59q34 25 75 45.5t84.5 34.5t87 21.5t82.5 7.5q63 0 125.5 -14.5t119.5 -43.5t105.5 -73
t84.5 -103t56.5 -133.5t20.5 -164.5q0 -124 -32.5 -210.5t-81 -144.5t-104.5 -90t-102 -47l-39 121q71 27 116 70t70.5 94t35 105t9.5 102q0 83 -25.5 156.5t-75.5 128.5t-124 87t-172 32q-25 0 -54 -3.5t-58.5 -11t-56.5 -18.5t-48 -27l-51 -38q5 0 9 0.5t9 0.5
q102 0 183 -34t137 -94t86 -142t30 -179q0 -98 -25.5 -165t-65.5 -108t-89 -59t-96 -18q-48 0 -85 12.5t-64 31t-44 40t-24 39.5q-14 -23 -35.5 -45.5t-49 -39.5t-60.5 -27.5t-69 -10.5q-63 0 -111.5 18t-82 51t-51 79t-17.5 102q0 20 6 42t15.5 42t22 37.5t26.5 29.5h-84
l-80 91zM282 492v-91q-44 -30 -62 -69t-18 -70q0 -42 14.5 -69t37 -42.5t49 -21.5t50.5 -6q33 0 58.5 13t43.5 35t27 50.5t9 59.5v69h128v-69q0 -40 12.5 -70t33.5 -49.5t48.5 -29t58.5 -9.5q29 0 56.5 12t49 39t34.5 70.5t13 105.5q0 75 -22.5 135.5t-67.5 103t-112 65
t-156 22.5q-23 0 -49.5 -2t-54.5 -8.5t-57.5 -19.5t-57.5 -34l-160 -120h94zM858 1383q-32 0 -72 -4t-81 -13t-80 -23t-69.5 -35t-49 -49t-18.5 -64q0 -28 8.5 -48.5t21 -36t26.5 -26.5l25 -19l-81 -89q-24 21 -46 42.5t-39.5 47t-27.5 57t-10 72.5q0 53 21.5 96.5t58 77.5
t85 59t103.5 41t112.5 24t112.5 8t112.5 -8t112.5 -24t103.5 -41t85 -59t58 -77.5t21.5 -96.5q0 -41 -10 -72.5t-27.5 -57t-39.5 -47t-46 -42.5l-81 89l25 19t26.5 26.5t21 36t8.5 48.5q0 36 -18.5 64t-49 49t-69.5 35t-80 23t-81 13t-72 4z" />
    <glyph glyph-name="sin_kha.i" unicode="&#xd9b;&#xdd2;" horiz-adv-x="1520" 
d="M673 1375q184 0 317 -50.5t218.5 -143.5t126 -224t40.5 -291q0 -84 -9.5 -166t-29 -156t-47.5 -137t-65.5 -109t-84 -72t-101.5 -26q-25 0 -54 15t-57.5 33l-53.5 33t-42 15q-13 0 -20 -10t-7 -36q0 -10 1.5 -22.5t3.5 -27.5h-133q-5 39 -7.5 73t-2.5 65q0 69 11 121
t27 93t35.5 74.5t35.5 66.5t27 68t11 79q0 75 -26.5 124t-67 78.5t-88.5 41.5t-91 12q-81 0 -145.5 -30t-110 -84t-70 -128t-24.5 -161q0 -68 11.5 -130t33 -112t53.5 -84t73 -46q-68 77 -68 180q0 46 13.5 81.5t35 60t49 37t56.5 12.5q43 0 77.5 -20.5t58 -53.5t36 -73.5
t12.5 -80.5q0 -53 -15.5 -101t-45 -84t-72 -57.5t-96.5 -21.5q-86 0 -149.5 42.5t-105 112t-62 158.5t-20.5 183q0 107 32.5 203t94 168t150 114.5t199.5 42.5q72 0 142.5 -22t127 -69t91 -119.5t34.5 -173.5q0 -73 -22 -134t-48 -112l-48 -93.5t-22 -78.5q0 -3 0.5 -5.5
t0.5 -5.5q28 11 49 11q31 0 56.5 -14.5t48.5 -32.5t46 -32.5t49 -14.5q45 0 82.5 46.5t63.5 122.5t40.5 172.5t14.5 196.5q0 135 -32.5 244t-102 186t-178.5 118.5t-263 41.5h-274q-57 0 -110 11t-94 33.5t-65.5 57t-24.5 82.5q0 70 47 115t126 70t183 34.5t218 9.5
q125 0 228.5 -19.5t178 -52.5t116 -78t41.5 -96q0 -56 -19.5 -96t-41.5 -60l-96 79q13 13 25 30.5t12 46.5q0 20 -21 37t-56 31t-80.5 24.5t-94.5 18t-99 11.5t-93 4q-42 0 -91.5 -1t-100 -5t-98 -11.5t-84 -19.5t-58.5 -29.5t-22 -42.5q0 -24 19 -37.5t46.5 -19.5t57.5 -7
t51 -1h276zM508 264q0 16 -2.5 34.5t-9 34t-18.5 26t-31 10.5q-28 -2 -45 -24.5t-17 -59.5q0 -42 18 -81.5t55 -62.5q14 11 23.5 26.5t15.5 32t8.5 33.5t2.5 31z" />
    <glyph glyph-name="sin_ga.i" unicode="&#xd9c;&#xdd2;" 
d="M554 492h-123v61q0 92 29 177t84.5 150.5t135.5 104.5t181 39q108 0 187 -46.5t130.5 -120.5t77 -165t25.5 -180q0 -131 -29.5 -227t-84.5 -159.5t-132.5 -94.5t-173.5 -31v123q46 4 97.5 20t94.5 58t71.5 116.5t28.5 194.5q0 90 -25.5 162t-66.5 122.5t-93.5 77.5
t-106.5 27q-59 0 -106 -20t-83.5 -52.5t-61.5 -75t-39 -87.5q24 22 49.5 31.5t48.5 9.5q49 0 85.5 -28.5t60.5 -73t35.5 -99t11.5 -106.5q0 -86 -29 -159t-80 -126.5t-121 -84t-152 -30.5q-77 0 -137.5 23t-106.5 62t-78.5 90.5t-53 108.5t-30 115.5t-9.5 112.5
q0 128 35.5 221t95 154.5t137 94t160.5 41.5v-123q-27 -4 -60 -12.5t-66.5 -26t-64.5 -45.5t-55.5 -70t-39 -99.5t-14.5 -134.5q0 -87 23.5 -158.5t63.5 -123t91.5 -79.5t108.5 -28q64 0 112.5 23t81.5 62t50 90t17 107q0 36 -8 68.5t-21.5 57t-32 39t-39.5 14.5
q-25 0 -48.5 -21.5t-37.5 -70.5zM688 1383q-32 0 -74.5 -4t-86.5 -13t-87 -23t-77 -35t-54.5 -49t-20.5 -64q0 -28 8.5 -48.5t21 -36t26.5 -26.5l25 -19l-81 -89q-24 21 -46 42.5t-39.5 47t-27.5 57t-10 72.5q0 53 23.5 96.5t63.5 77.5t92.5 59t110.5 41t118 24t115 8
t115 -8t118 -24t110.5 -41t92.5 -59t63.5 -77.5t23.5 -96.5q0 -41 -10 -72.5t-27.5 -57t-39.5 -47t-46 -42.5l-81 89l25 19t26.5 26.5t21 36t8.5 48.5q0 36 -20.5 64t-54.5 49t-77 35t-87 23t-86.5 13t-74.5 4z" />
    <glyph glyph-name="sin_gha.i" unicode="&#xd9d;&#xdd2;" horiz-adv-x="1285" 
d="M65 656v123h446q-10 29 -27.5 51t-39.5 36.5t-46.5 21.5t-47.5 7q-24 0 -49 -8.5t-47.5 -22.5t-41 -31t-28.5 -34l-62 96q7 11 28.5 37t57.5 49q-23 20 -44 41t-37 46.5t-25.5 56t-9.5 70.5q0 53 23.5 96.5t63.5 77.5t92.5 59t110.5 41t118 24t115 8t115 -8t118 -24
t110.5 -41t92.5 -59t63.5 -77.5t23.5 -96.5q0 -40 -9.5 -71t-26 -56t-37.5 -46t-44 -41q34 -23 56.5 -47.5t27.5 -38.5l-61 -96q-15 23 -34.5 41t-41.5 30t-44 18.5t-42 6.5q-63 0 -103 -30.5t-63 -85.5h58q36 0 77.5 -7t82 -22.5t78 -40.5t66 -61.5t45.5 -84.5t17 -110
q0 -91 -23.5 -173t-64.5 -144.5t-97 -99t-120 -36.5q-97 0 -141.5 42t-44.5 112q0 31 14.5 50.5t31.5 37.5t31.5 38.5t14.5 53.5q0 26 -28.5 41.5t-94.5 15.5q-72 0 -97.5 -15.5t-25.5 -41.5q0 -33 14.5 -53.5t31.5 -38.5t31.5 -37.5t14.5 -50.5q0 -70 -47 -112t-135 -42
q-64 0 -120 36.5t-98 99t-66.5 144.5t-24.5 173q0 75 21 121.5t69 81.5h-121zM615 1383q-32 0 -74.5 -4t-86.5 -13t-87 -23t-77 -35t-54.5 -49t-20.5 -64q0 -28 8.5 -48.5t21 -36t26.5 -26.5l25 -19l-63 -69q24 13 52.5 20.5t61.5 7.5q55 0 101 -21t80.5 -55.5t56.5 -78.5
t29 -90q7 46 28.5 90t56 78.5t82 55.5t106.5 21q30 0 58 -8.5t53 -21.5l-64 71l25 19t26.5 26.5t21 36t8.5 48.5q0 36 -20.5 64t-54.5 49t-77 35t-87 23t-86.5 13t-74.5 4zM514 656q-63 0 -117 -6.5t-93.5 -28t-62 -61.5t-22.5 -107q0 -78 17.5 -138.5t44.5 -102t60 -63
t64 -21.5q27 2 43 14t16 38q-2 32 -17 48.5t-31.5 32t-30 39t-13.5 69.5q0 71 65 112t181 41q58 0 103.5 -11t77 -31t48.5 -48.5t17 -62.5q0 -46 -14.5 -71t-31.5 -42l-31.5 -32.5t-14.5 -43.5q0 -13 2 -23t8 -16.5t18 -9.5t33 -3q38 0 71.5 21.5t58.5 63t39.5 102
t14.5 138.5q0 68 -27 108.5t-70.5 61.5t-97.5 27t-108 6h-200z" />
    <glyph glyph-name="sin_nga.i" unicode="&#xd9e;&#xdd2;" horiz-adv-x="1445" 
d="M1300 704q0 -139 -20.5 -245t-55.5 -184t-80.5 -131t-95.5 -85t-101.5 -45.5t-97.5 -13.5q-47 0 -81.5 12t-60 30.5t-42.5 40t-27 40.5q-13 -23 -35.5 -45.5t-52 -39.5t-63.5 -27.5t-70 -10.5q-70 0 -131 25.5t-106.5 75t-72 120.5t-26.5 163q0 86 36 146.5t92 99
t124 56.5t133 18h120q3 4 6 12.5t5 17.5t3 17.5t1 13.5q0 78 -56.5 118.5t-174.5 40.5h-19q8 -16 13 -41.5t5 -42.5q0 -32 -10.5 -59t-29 -46.5t-44.5 -30.5t-57 -11q-26 0 -51.5 8.5t-46 25.5t-33.5 43t-13 62q0 35 15 69.5t48.5 61.5t87.5 44t132 17q99 0 166.5 -25
t109 -66.5t59 -94.5t17.5 -109q0 -18 -3.5 -38.5t-9 -41.5t-12.5 -40t-14 -33h-217q-43 0 -89 -9.5t-83.5 -32t-62 -59.5t-24.5 -91q0 -65 17.5 -113t46.5 -79.5t68 -47.5t82 -16q31 0 59.5 12.5t49.5 34t33.5 49.5t12.5 59v69h123v-71q0 -44 16 -73.5t39.5 -47t50.5 -25
t50 -7.5q25 0 58.5 10.5t69 36t70 68t62 106.5t44 151.5t16.5 203.5q0 71 -10 139.5t-34 129.5t-63 113t-97 90t-136.5 59t-180.5 21h-274q-57 0 -110 11t-94 33.5t-65.5 57t-24.5 82.5q0 70 47 115t126 70t183 34.5t218 9.5q125 0 228.5 -19.5t178 -52.5t116 -78t41.5 -96
q0 -56 -19.5 -96t-41.5 -60l-96 79q13 13 25 30.5t12 46.5q0 20 -21 37t-56 31t-80.5 24.5t-94.5 18t-99 11.5t-93 4q-42 0 -91.5 -1t-100 -5t-98 -11.5t-84 -19.5t-58.5 -29.5t-22 -42.5q0 -24 19 -37.5t46.5 -19.5t57.5 -7t51 -1h276q123 0 219 -24t167.5 -67.5
t121.5 -104.5t80.5 -135.5t44.5 -160.5t14 -179zM175 845q0 -17 5 -26t12 -13.5t14.5 -5.5t12.5 -1q28 0 42 18t14 43q0 10 -3.5 26.5t-10.5 28.5q-17 -2 -32.5 -8t-27.5 -16t-19 -22t-7 -24z" />
    <glyph glyph-name="sin_nnga.i" unicode="&#xd9f;&#xdd2;" horiz-adv-x="1701" 
d="M969 1383q-32 0 -74.5 -4t-86.5 -13t-87 -23t-77 -35t-54.5 -49t-20.5 -64q0 -28 8.5 -48.5t21 -36t26.5 -26.5l25 -19l-38 -41h176v-128q-27 -4 -59 -12.5t-64 -26.5t-61.5 -46t-52.5 -70.5t-36.5 -100t-13.5 -134.5q0 -87 21.5 -157.5t59 -121t87.5 -77.5t107 -27
q64 0 112.5 23.5t81.5 62.5t49.5 90t16.5 107q0 36 -8 68.5t-21.5 56.5t-32 38.5t-39.5 14.5q-25 0 -48.5 -21.5t-37.5 -70.5h-123v61q0 92 29.5 177t85.5 150.5t136.5 104.5t181.5 39q72 0 129 -24t101.5 -64.5t76 -93t51.5 -109.5t29.5 -114t9.5 -107q0 -117 -26.5 -212
t-77.5 -161.5t-125.5 -102.5t-170.5 -36v123q46 4 95 21t89.5 59.5t66.5 116.5t26 192q0 86 -22.5 157.5t-60.5 123t-87.5 80t-103.5 28.5q-59 0 -106.5 -19.5t-84 -52t-62 -75t-39.5 -88.5q24 22 49 31.5t48 9.5q49 0 85 -28.5t60 -72.5t36 -98t12 -106q0 -86 -28.5 -159.5
t-79.5 -127.5t-121 -84.5t-152 -30.5q-77 0 -136.5 22.5t-103.5 61t-74.5 89t-49 106.5t-26.5 114.5t-8 112.5q0 67 12.5 127.5t35 110.5t52.5 89t66 63h-45q-72 0 -127.5 -29t-94 -80t-58.5 -121.5t-20 -153.5q0 -81 18.5 -148t44.5 -119t54 -88t47 -53l-80 -100
q-47 37 -86.5 91t-69 119.5t-46 141t-16.5 156.5q0 104 30.5 197t87 163t137 111t179.5 41h18q-31 32 -51 71.5t-20 99.5q0 53 23.5 96.5t63.5 77.5t92.5 59t110.5 41t118 24t115 8t115 -8t118 -24t110.5 -41t92.5 -59t63.5 -77.5t23.5 -96.5q0 -41 -10 -72.5t-27.5 -57
t-39.5 -47t-46 -42.5l-81 89l25 19t26.5 26.5t21 36t8.5 48.5q0 36 -20.5 64t-54.5 49t-77 35t-87 23t-86.5 13t-74.5 4z" />
    <glyph glyph-name="sin_ca.i" unicode="&#xda0;&#xdd2;" horiz-adv-x="1363" 
d="M1218 768q0 -149 -26 -263.5t-70 -199.5t-102 -143.5t-122 -94.5t-130 -51.5t-126 -15.5q-127 0 -223 35t-160 94t-96.5 137t-32.5 164q0 30 7.5 61t20 58.5t28 51t32.5 39.5h-153v128h98q-6 24 -6 49q0 40 17 76t48.5 64t76.5 44.5t101 16.5q133 0 198.5 -61.5
t65.5 -171.5q0 -64 -23 -145h-265q-23 -12 -44.5 -34.5t-38 -50.5t-26 -60t-9.5 -64q0 -62 25.5 -117t74 -96.5t120 -65.5t164.5 -24q48 0 100 13.5t101.5 44t94.5 79.5t78.5 120t53.5 166t20 217q0 51 -7 107t-25.5 110t-51 103.5t-82 86.5t-119.5 59t-164 22h-214
q-57 0 -110 11t-94 33.5t-65.5 57t-24.5 82.5q0 70 37.5 115t105.5 70t162.5 34.5t208.5 9.5q125 0 219.5 -19.5t157.5 -52.5t95 -78t32 -96q0 -56 -19.5 -96t-41.5 -60l-96 79q13 13 25 30.5t12 46.5q0 30 -35.5 53t-91.5 39.5t-124 25t-133 8.5q-63 0 -132 -3
t-127.5 -14.5t-96.5 -33t-38 -58.5q0 -24 19 -37.5t46.5 -19.5t57.5 -7t51 -1h216q115 0 202.5 -25t151 -69t106.5 -103t68.5 -126t36 -140t10.5 -144zM540 768q1 7 1.5 13t0.5 12q0 52 -38 77t-104 25q-33 0 -55.5 -9.5t-36.5 -23.5t-20 -32t-6 -34q0 -17 4 -28h254z" />
    <glyph glyph-name="sin_cha.i" unicode="&#xda1;&#xdd2;" horiz-adv-x="1228" 
d="M561 779q2 54 13 110.5t34 110.5q-35 -8 -74 -8q-34 0 -67.5 9t-56.5 32q-65 65 -65 160q0 61 29.5 125.5t91.5 122.5q63 59 129.5 84.5t126.5 25.5q58 0 104.5 -20t74.5 -54q25 -30 33.5 -58t8.5 -60q0 -17 -2 -35t-4 -38q15 4 31 7.5t33 6.5l43 -112
q-75 -12 -127 -34.5t-86.5 -51t-55.5 -58.5t-35 -57q45 15 88 15q53 0 99.5 -20.5t81 -57.5t54.5 -88t20 -111q0 -48 -13 -92t-36 -81q3 -13 6 -21.5t4.5 -17t2.5 -19t1 -26.5q0 -44 -12.5 -95.5t-38.5 -103.5t-65 -100.5t-93 -86t-122.5 -60t-152.5 -22.5
q-94 0 -183.5 31.5t-159.5 89.5t-112.5 141t-42.5 185q0 88 26 151t72 103t109.5 59t137.5 19h43q-10 29 -27.5 51t-39.5 36.5t-46.5 21.5t-47.5 7q-24 0 -49 -8.5t-47.5 -22.5t-41 -31t-28.5 -34l-62 96q6 10 24 30.5t47 41t68.5 36t88.5 15.5q55 0 101.5 -20t81 -53.5
t56.5 -76.5t29 -89zM833 441q-49 0 -91 15t-75 43t-57 68t-37 89h-116q-63 0 -113 -9t-84.5 -33t-53 -65t-18.5 -104q0 -74 36 -133.5t91 -101.5t121.5 -64.5t127.5 -22.5q69 0 134.5 26.5t115.5 72.5t80.5 108t30.5 134q-22 -9 -44.5 -16t-47.5 -7zM551 1364
q-45 -43 -68 -87t-23 -82q0 -42 27 -69q15 -15 34 -20t37 -5q17 0 31 2.5t22 4.5q2 0 2.5 0.5t1.5 0.5l3 -87q20 42 48 81t65 72.5t84 60.5t105 45l-98 6q2 12 4.5 25.5t2.5 27.5q0 16 -5.5 33t-22.5 36q-29 32 -84 32q-37 0 -80 -17.5t-86 -59.5zM960 719q0 30 -12 58.5
t-32.5 50.5t-48 35t-59.5 13q-47 0 -79.5 -29t-40.5 -68h14q78 0 143.5 -21t112.5 -68q1 7 1.5 14t0.5 15zM831 564q31 0 57 14q-28 38 -74.5 55t-109.5 21q21 -40 56.5 -65t70.5 -25z" />
    <glyph glyph-name="sin_ja.i" unicode="&#xda2;&#xdd2;" horiz-adv-x="1204" 
d="M722 779q54 0 113.5 -16t109 -54t82 -100.5t32.5 -155.5q0 -47 -13.5 -98.5t-40.5 -101.5t-68.5 -96t-96.5 -81t-124.5 -55.5t-153.5 -20.5q-123 0 -216 41.5t-155.5 107t-94 146t-31.5 158.5q0 90 27 152t74 101t111.5 56t138.5 17h43q-10 29 -27.5 51t-39.5 36.5
t-46.5 21.5t-47.5 7q-24 0 -49 -8.5t-47.5 -22.5t-41 -31t-28.5 -34l-62 96q6 10 24 30.5t47 41t68.5 36t88.5 15.5q55 0 100.5 -20t79.5 -53.5t55.5 -76.5t28.5 -89q5 37 20.5 73.5t39.5 67.5t56.5 54t73.5 34q36 28 71 64.5t64 77.5t50.5 85.5t32.5 89.5l101 -42
q-9 -40 -30 -80.5t-47.5 -77t-53.5 -66.5t-47 -49q32 -8 59.5 -23t48.5 -32t34.5 -33t17.5 -27l-61 -96q-15 23 -34.5 41t-41.5 30t-44 18.5t-42 6.5q-63 0 -103 -30.5t-63 -85.5h58zM462 656q-63 0 -113 -8t-84.5 -30t-53 -62t-18.5 -103q0 -78 32 -139t84 -102t118 -62.5
t134 -21.5q70 0 136.5 23.5t118.5 66.5t83.5 103t31.5 132q0 68 -22 108.5t-58.5 61.5t-85.5 27t-103 6h-200zM551 1364q-45 -43 -68 -87t-23 -82q0 -42 27 -69q15 -15 34 -20t37 -5q17 0 31 2.5t22 4.5q2 0 2.5 0.5t1.5 0.5l4 -106q-18 -5 -40 -8t-45 -3q-34 0 -67.5 9
t-56.5 32q-65 65 -65 160q0 61 29.5 125.5t91.5 122.5q63 59 129.5 84.5t126.5 25.5q58 0 104.5 -20t74.5 -54q25 -30 33.5 -58t8.5 -60q0 -18 -2 -37t-4 -42l-115 7q2 12 4.5 25.5t2.5 27.5q0 16 -5.5 33t-22.5 36q-29 32 -84 32q-37 0 -80 -17.5t-86 -59.5z" />
    <glyph glyph-name="sin_jha.i" unicode="&#xda3;&#xdd2;" horiz-adv-x="2435" 
d="M428 656l-80.5 -58.5l-75 -53l-55 -38.5l-21.5 -15h78v-90q-37 -29 -53 -63.5t-16 -65.5q0 -45 14 -73t35 -44t45.5 -21.5t45.5 -5.5q37 0 65.5 12.5t47 33.5t28 48.5t9.5 58.5v69h124v-69q0 -40 12.5 -69t33.5 -47.5t48.5 -27.5t58.5 -9q29 0 57 11.5t49.5 37.5
t34.5 68.5t13 104.5q0 75 -36.5 132.5t-94.5 96t-128.5 58t-138.5 19.5h-100zM1574 1305q157 0 271 -34.5t193.5 -91t129 -129t76.5 -148.5t36.5 -149.5t9.5 -131.5q0 -176 -33 -295t-88 -191.5t-127.5 -103.5t-151.5 -31q-47 0 -83.5 11.5t-64 29.5t-46 39.5t-28.5 40.5
q-13 -23 -33 -45t-46 -39t-58 -27t-68 -10q-80 0 -145 28.5t-111.5 81.5t-71.5 128t-25 167q0 69 16 124t42 98.5t59 76t67 56.5q-82 66 -177 100t-195 34q-84 0 -167 -34t-162 -84q94 -10 177.5 -44.5t145.5 -89.5t98 -129t36 -163q0 -98 -26 -165t-66.5 -108t-89.5 -59
t-96 -18q-48 0 -84.5 12.5t-63 31t-43.5 40t-24 39.5q-14 -23 -36 -45.5t-49.5 -39.5t-60.5 -27.5t-69 -10.5q-63 0 -112 21t-82 57.5t-50.5 85t-17.5 104.5q0 17 4 36.5t10.5 38t15 34t17.5 24.5h-62l-80 90l152 113l64 47.5l64 47.5l59 43.5l49 36.5v20q0 53 -25.5 74.5
t-62.5 21.5t-63 -21t-26 -70v-65h-131v71q0 48 18.5 87.5t49 67.5t70 43.5t81.5 15.5q32 0 65 -10.5t61 -30.5t49.5 -49t30.5 -67q108 73 218.5 111t226.5 38q133 0 269.5 -52.5t282.5 -164.5l-70 -117q-36 -15 -68.5 -39.5t-57 -59t-39 -79.5t-14.5 -101q0 -62 14.5 -113
t43 -87t70 -55.5t95.5 -19.5q31 0 57.5 12.5t45.5 33.5t29.5 48.5t10.5 58.5v69h128v-71q0 -44 15.5 -73t39 -46.5t51 -24.5t50.5 -7q25 0 55 7.5t60.5 27.5t59 55t50.5 89.5t35.5 131.5t13.5 181q0 124 -34 228t-105 179t-181 117t-261 42h-51q-76 0 -142 12t-115 36
t-77 60t-28 84q0 47 22 81.5t60 59t87.5 40.5t105 24.5t113 12t110.5 3.5q105 0 197.5 -18.5t162 -52t110 -80t40.5 -101.5q0 -34 -8 -62t-19.5 -50t-25.5 -37.5t-26 -24.5l-96 79q7 5 17 14.5t18 23t14 29.5t6 34q0 25 -29 47.5t-82 40t-127.5 28t-166.5 10.5
q-57 0 -121 -2t-117.5 -10.5t-89 -25.5t-35.5 -47q0 -20 14 -34.5t36 -24.5t49.5 -16t54.5 -9t50.5 -4t37.5 -1h44z" />
    <glyph glyph-name="sin_nya.i" unicode="&#xda4;&#xdd2;" horiz-adv-x="2278" 
d="M1458 721q-71 93 -133 135t-123 42q-36 0 -71.5 -12t-68.5 -30t-62.5 -39.5l-53.5 -40.5q95 -10 178.5 -44t146 -89t99 -129t36.5 -164q0 -98 -25.5 -165t-66 -108t-89.5 -59t-96 -18q-48 0 -84.5 12.5t-63 31t-43 40t-24.5 39.5q-14 -23 -36 -45.5t-49.5 -39.5
t-60.5 -27.5t-69 -10.5q-63 0 -112 21.5t-82 58.5t-50.5 86t-17.5 105q0 13 3.5 31t9.5 36t15 34.5t21 28.5h-63l-66 96l373 282v20q0 54 -25.5 76.5t-65.5 22.5q-13 0 -27 -5.5t-26 -16.5t-19.5 -29t-7.5 -42v-66h-122v78q-65 -7 -110.5 -37t-74.5 -75t-42 -100.5
t-13 -113.5q0 -55 11 -109t31.5 -103.5t48.5 -92.5t63 -76l-80 -100q-48 35 -86 87t-64.5 114t-41 131t-14.5 138q0 89 24 172.5t72.5 148t123 103.5t175.5 39h15q29 38 72 59.5t94 21.5q32 0 64.5 -10.5t60.5 -30t49 -48.5t31 -66q32 24 81 51.5t105 50.5t115 38t112 15
q39 0 70 -10t60.5 -33t60.5 -59.5t71 -89.5q21 49 52 85t68 60t79 35.5t84 11.5q61 0 119.5 -24t104.5 -72.5t74 -121.5t28 -170q0 -29 -3 -60q-81 29 -148 41.5t-122 12.5q-74 0 -125.5 -20.5t-84 -56t-47.5 -82t-15 -97.5q0 -54 19 -100t51 -79.5t75.5 -52.5t91.5 -19
q43 0 79.5 18t64.5 45t47 59.5t26 61.5l94 -61q-13 -61 -45 -105.5t-73.5 -74.5t-88.5 -46t-91 -19q-27 -19 -44 -43t-17 -56q0 -26 7.5 -44t22 -32t34 -24.5t43.5 -20.5l-53 -88q-17 0 -46.5 12.5t-58.5 36.5t-50 58t-21 77q0 42 18.5 77t48.5 60q-41 12 -87 36t-85 66.5
t-64.5 105.5t-25.5 152q0 66 21 133t66 120.5t114.5 87t165.5 33.5q39 0 82.5 -6t91.5 -20v9q0 27 -15 56.5t-41.5 54t-63.5 40.5t-80 16q-28 0 -56.5 -8.5t-56 -29t-53 -54.5t-47.5 -85h-127zM777 656l-218 -159h73v-96q-19 -9 -32.5 -24t-22.5 -32t-13.5 -35.5t-4.5 -33.5
q0 -42 13 -71.5t33.5 -47.5t45 -26t48.5 -8q38 0 66.5 13t48 35t29.5 50.5t10 59.5v69h123v-69q0 -40 12.5 -70t33.5 -49.5t48.5 -29t58.5 -9.5q29 0 57 12t49.5 39t34.5 70.5t13 105.5q0 50 -17 92.5t-46 76.5t-68 59.5t-83 43t-91 26t-92 8.5h-109zM1787 1383
q-45 0 -95.5 -10t-94 -32.5t-72 -58t-28.5 -87.5q0 -24 8.5 -44.5t21 -37t26.5 -28.5t25 -20l-81 -89q-25 19 -47 42.5t-39 50.5t-27 58.5t-10 67.5q0 78 36 135.5t94.5 95.5t132.5 56.5t150 18.5q78 0 152.5 -19t132.5 -57t93 -95.5t35 -134.5q0 -41 -10 -73.5t-27.5 -58.5
t-39.5 -47.5t-46 -39.5l-81 89q11 8 25 20t26.5 28.5t21 37t8.5 44.5q0 51 -29 87t-72.5 58.5t-94 32.5t-94.5 10z" />
    <glyph glyph-name="sin_jnya.i" unicode="&#xda5;&#xdd2;" horiz-adv-x="2094" 
d="M1336 865q19 39 47.5 68.5t63.5 49.5t74.5 30t81.5 10q63 0 124 -23.5t110 -71.5t79 -121t30 -172q0 -29 -3 -59q-81 29 -148 41.5t-122 12.5q-74 0 -125.5 -20.5t-84 -56t-47.5 -82t-15 -97.5q0 -54 19 -100t51 -79.5t75.5 -52.5t91.5 -19q43 0 79.5 18t64.5 45t47 59.5
t26 61.5l94 -61q-13 -61 -45 -105.5t-73.5 -74.5t-88.5 -46t-91 -19q-27 -19 -44 -43t-17 -56q0 -26 7.5 -44t22 -32t34 -24.5t43.5 -20.5l-53 -88q-17 0 -46.5 12.5t-58.5 36.5t-50 58t-21 77q0 42 18.5 77t48.5 60q-41 12 -87 36t-85 66.5t-64.5 105.5t-25.5 152
q0 66 21 133t66 120.5t114.5 87t165.5 33.5q39 0 82.5 -6t91.5 -20v8q0 28 -12.5 58t-39 55t-67 41t-96.5 16q-27 0 -54.5 -8t-54 -25t-49.5 -45.5t-41 -68.5q0 -1 -20 -1h-44h-64q-9 30 -27 57t-43.5 47t-57 32t-66.5 12q-48 0 -86 -17.5t-64.5 -50.5t-41.5 -79.5
t-18 -103.5q27 32 57.5 45t56.5 13q49 0 85 -28.5t60 -72.5t36 -98t12 -106q0 -86 -28.5 -159.5t-79.5 -127.5t-121 -84.5t-152 -30.5q-77 0 -138.5 23t-108.5 62t-81 90.5t-55.5 108.5t-31.5 115.5t-10 112.5q0 134 42.5 232t122.5 152h-38q-72 0 -128 -29t-94.5 -80
t-58.5 -121.5t-20 -153.5q0 -81 18.5 -147t44.5 -117t54 -86t47 -52l-80 -100q-47 37 -86 90t-67.5 117.5t-44.5 139t-16 155.5q0 104 30 197t86 163t136 111t179 41h289v-128q-41 -5 -91 -22.5t-94 -59.5t-73.5 -114.5t-29.5 -187.5q0 -87 25 -158t66 -121t94.5 -77.5
t110.5 -27.5q64 0 112.5 22.5t81.5 60.5t50 88.5t17 106.5q0 36 -8 68.5t-21.5 56.5t-32 38.5t-39.5 14.5q-25 0 -48.5 -21.5t-37.5 -70.5h-123v147q0 74 22.5 143.5t65.5 123t105 86t140 32.5q33 0 70 -7t72 -25t65.5 -49t51.5 -78zM1615 1383q-45 0 -95.5 -10t-94 -32.5
t-72 -58t-28.5 -87.5q0 -24 8.5 -44.5t21 -37t26.5 -28.5t25 -20l-81 -89q-25 19 -47 42.5t-39 50.5t-27 58.5t-10 67.5q0 78 36 135.5t94.5 95.5t132.5 56.5t150 18.5q78 0 152.5 -19t132.5 -57t93 -95.5t35 -134.5q0 -41 -10 -73.5t-27.5 -58.5t-39.5 -47.5t-46 -39.5
l-81 89q11 8 25 20t26.5 28.5t21 37t8.5 44.5q0 51 -29 87t-72.5 58.5t-94 32.5t-94.5 10z" />
    <glyph glyph-name="sin_nyja.i" unicode="&#xda6;&#xdd2;" horiz-adv-x="1411" 
d="M959 1008q36 28 71 64.5t64 77.5t50.5 85.5t32.5 89.5l101 -42q-9 -40 -30 -80.5t-47.5 -77t-53.5 -66.5t-47 -49q32 -8 59.5 -23t48.5 -32t34.5 -33t17.5 -27l-61 -96q-15 23 -34.5 41t-41.5 30t-44 18.5t-42 6.5q-63 0 -103 -30.5t-63 -85.5h58q54 0 113.5 -16t109 -54
t82 -100.5t32.5 -155.5q0 -47 -13.5 -98.5t-40.5 -101.5t-68.5 -96t-96.5 -81t-124.5 -55.5t-153.5 -20.5q-123 0 -216 40.5t-155.5 105t-94 145.5t-31.5 162q0 93 27 155.5t74 100.5t111.5 54t138.5 16h43q-20 59 -63.5 88t-89.5 29q-84 0 -144.5 -33.5t-99.5 -85
t-57.5 -114.5t-18.5 -122q0 -36 3 -79.5t14.5 -94.5t34.5 -108.5t63 -121.5l-96 -78q-17 22 -42.5 66.5t-48.5 106.5t-39.5 140.5t-16.5 168.5q0 55 12.5 112.5t37.5 111t62 101t87 82.5t112 55.5t137 20.5q55 0 99.5 -21t76.5 -55.5t52.5 -78.5t27.5 -90q5 37 20.5 73.5
t39.5 67.5t56.5 54t73.5 34zM669 656q-63 0 -113 -6.5t-84.5 -28t-53 -61.5t-18.5 -107q0 -83 32 -144.5t84 -101.5t118 -59.5t134 -19.5q70 0 136.5 23.5t118.5 66.5t83.5 103t31.5 132q0 68 -22 108.5t-58.5 61.5t-85.5 27t-103 6h-200zM758 1364q-45 -43 -68 -87t-23 -82
q0 -42 27 -69q15 -15 34 -20t37 -5q17 0 31 2.5t22 4.5q2 0 2.5 0.5t1.5 0.5l4 -106q-18 -5 -40 -8t-45 -3q-34 0 -67.5 9t-56.5 32q-65 65 -65 160q0 61 29.5 125.5t91.5 122.5q63 59 129.5 84.5t126.5 25.5q58 0 104.5 -20t74.5 -54q25 -30 33.5 -58t8.5 -60q0 -18 -2 -37
t-4 -42l-115 7q2 12 4.5 25.5t2.5 27.5q0 16 -5.5 33t-22.5 36q-29 32 -84 32q-37 0 -80 -17.5t-86 -59.5z" />
    <glyph glyph-name="sin_tta.i" unicode="&#xda7;&#xdd2;" horiz-adv-x="1298" 
d="M1153 704q0 -147 -29 -256.5t-76.5 -187.5t-107 -128.5t-120.5 -79.5t-117.5 -40.5t-97.5 -11.5q-118 0 -217 40t-171 111.5t-112 169t-40 212.5q0 59 14 119t42 114.5t70.5 101.5t99.5 81.5t128.5 54.5t157.5 20v-128q-96 0 -168 -30.5t-120 -81t-72 -116t-24 -136.5
q0 -87 28 -161t81 -128t129.5 -84.5t173.5 -30.5q25 0 66 7.5t87.5 29t94 61t86 103.5t62.5 156t24 219q0 41 -9.5 98t-32 118.5t-60 121.5t-93.5 107.5t-133 77t-178 29.5h-42q-63 0 -124.5 12t-110.5 36t-79 60t-30 84q0 70 40 113.5t104.5 67.5t144 32t159.5 8
q105 0 190 -18.5t145 -52t92.5 -80t32.5 -101.5q0 -34 -8 -62t-19.5 -50t-25.5 -37.5t-26 -24.5l-96 79q7 5 17 14.5t18 23t14 29.5t6 34q0 25 -21 47.5t-64.5 40t-110.5 28t-159 10.5q-57 0 -113 -2t-100.5 -10.5t-72 -25.5t-27.5 -47t25.5 -48t61 -27t72 -11.5t57.5 -2.5
h64q122 0 215.5 -34.5t162.5 -90.5t115 -127.5t74.5 -146t40.5 -146t12 -126.5z" />
    <glyph glyph-name="sin_ttha.i" unicode="&#xda8;&#xdd2;" horiz-adv-x="1362" 
d="M454 1163q-51 3 -89.5 26t-65 56t-40 72.5t-13.5 75.5q0 78 34 135.5t91 95.5t132 56.5t156 18.5q85 0 160 -19t131 -57t89 -95.5t33 -134.5q0 -62 -22.5 -105.5t-56.5 -76.5q51 -67 92.5 -142.5t70.5 -156t45 -165.5t16 -171q0 -115 -27 -219.5t-76.5 -183.5t-121 -126
t-159.5 -47q-47 0 -81.5 12.5t-59.5 31.5t-41.5 40t-26.5 39q-12 -21 -31.5 -42.5t-45 -39.5t-57 -29.5t-67.5 -11.5q-75 0 -140.5 37.5t-114 103.5t-76 156.5t-27.5 195.5q0 102 27.5 195.5t79 166.5t126.5 118t170 51v-129q-72 -7 -123.5 -42t-85.5 -90t-50 -125t-16 -146
q0 -75 16 -141t46 -115.5t72 -78.5t94 -29q31 0 56.5 11t43 30.5t27 47t9.5 59.5v74h129v-69q0 -47 16 -76.5t39 -46.5t48 -23.5t44 -6.5q52 0 99 32t81.5 90.5t55 141.5t20.5 185q0 126 -39.5 244t-102.5 221q-32 -32 -76 -54.5t-96 -22.5q-45 0 -86 13t-73.5 38.5
t-54.5 62.5t-29 84h-78zM558 1418q-29 15 -59 24l43 106q102 -33 196.5 -95.5t175.5 -148.5q14 17 24.5 39.5t10.5 49.5q0 51 -27.5 87t-70 58.5t-94 32.5t-98.5 10q-50 0 -101.5 -10.5t-93.5 -33t-68.5 -58t-26.5 -86.5q0 -22 6.5 -43.5t21 -39.5t38.5 -30.5t60 -16.5h37
q5 38 13.5 73.5t12.5 81.5zM652 1210q0 -19 7.5 -40.5t22.5 -40t38 -30.5t55 -12q38 0 63.5 15t43.5 36q-48 63 -100 114.5t-106 92.5q-7 -37 -15.5 -70t-8.5 -65z" />
    <glyph glyph-name="sin_dda.i" unicode="&#xda9;&#xdd2;" horiz-adv-x="1466" 
d="M540 779q1 7 1.5 13t0.5 12q0 52 -38 77t-104 25q-33 0 -55.5 -9.5t-36.5 -23.5t-20 -32t-6 -34q0 -17 4 -28h254zM627 1253h-230q-57 0 -110 11t-94 33.5t-65.5 57t-24.5 82.5q0 70 47 115.5t125.5 71t182.5 35.5t218 10q125 0 229 -20t178.5 -53.5t116 -79t41.5 -96.5
q0 -56 -19.5 -96t-41.5 -60l-96 79q13 13 25 30.5t12 46.5q0 20 -21 37t-56 31.5t-80.5 25.5t-95 19t-99.5 12t-93 4q-42 0 -91.5 -1.5t-100 -5.5t-97.5 -12t-83.5 -20t-58.5 -30t-22 -43q0 -24 19 -37.5t46.5 -19.5t57.5 -7t51 -1h232q130 0 232 -30.5t179 -83.5
t130.5 -123.5t87 -150t48.5 -164t15 -164.5q0 -137 -19.5 -239t-52.5 -175t-76.5 -120t-91.5 -74t-98.5 -37.5t-96.5 -10.5q-29 0 -59.5 8t-58 23.5t-50.5 38.5t-36 53q-37 -63 -99 -93t-134 -30q-80 0 -143.5 30.5t-108 84t-68.5 126t-24 156.5q0 35 8.5 72t23.5 70.5
t35.5 62.5t43.5 49h-151v128h98q-6 24 -6 49q0 40 17 76t48.5 64t76.5 44.5t101 16.5q133 0 198.5 -61.5t65.5 -171.5q0 -64 -23 -145h-273q-30 -22 -54.5 -51.5t-42.5 -62.5t-28 -68.5t-10 -68.5q0 -56 13.5 -105.5t40.5 -86.5t67.5 -58.5t94.5 -21.5q31 0 61.5 10.5
t54 30.5t38 48.5t14.5 65.5v69h128v-69q0 -41 13.5 -70.5t34 -48t45.5 -27.5t48 -9q25 0 57.5 6.5t67 26.5t67 56t58.5 94.5t41.5 143t15.5 201.5q0 53 -11.5 118.5t-38 131.5t-69.5 128.5t-105.5 111t-147.5 78t-194 29.5z" />
    <glyph glyph-name="sin_ddha.i" unicode="&#xdaa;&#xdd2;" horiz-adv-x="1402" 
d="M504 1163q-51 3 -89.5 26t-65 56t-40 72.5t-13.5 75.5q0 78 34 135.5t91 95.5t132 56.5t156 18.5q85 0 160 -19t131 -57t89 -95.5t33 -134.5q0 -35 -8 -64.5t-21.5 -54t-31.5 -44.5t-38 -37q110 -140 172 -310t62 -371q0 -123 -29.5 -218.5t-81 -160.5t-121.5 -99
t-152 -34q-42 0 -77 12.5t-63 31.5t-47.5 40t-30.5 39q-12 -21 -32.5 -42.5t-49.5 -39.5t-66 -29.5t-82 -11.5q-72 0 -131 26t-101 74.5t-65 118t-23 156.5q0 38 9.5 76t25 73.5t36 68t42.5 58.5h-153v128h98q-6 24 -6 49q0 40 17 76t48.5 64t76.5 44.5t101 16.5
q133 0 198.5 -61.5t65.5 -171.5q0 -64 -23 -145h-265q-22 -19 -47 -49t-46.5 -66.5t-35.5 -77.5t-14 -83q0 -55 13 -100.5t38 -78t60.5 -50.5t80.5 -18q31 0 61 11t53.5 30.5t37.5 47t14 59.5v74h123v-51q0 -53 18 -86.5t43 -52.5t52.5 -25.5t45.5 -6.5q43 0 88.5 20.5
t83 66t61 119t23.5 178.5q0 158 -41.5 287.5t-110.5 236.5q-31 -34 -75 -55t-93 -21q-45 0 -86 14.5t-75 41t-57.5 64t-32.5 83.5h-54zM588 1400q-17 11 -33 20l-33 18l51 110q106 -52 199 -118t172 -147q20 19 37.5 46t17.5 64q0 51 -27.5 87t-70 58.5t-94 32.5t-98.5 10
q-50 0 -101.5 -10.5t-93.5 -33t-68.5 -58t-26.5 -86.5q0 -22 6.5 -43.5t21 -39.5t38.5 -30.5t60 -16.5h11q3 19 7 33t9 28t9 31.5t7 44.5zM681 1216q0 -19 8 -41.5t24.5 -41.5t40 -32t55.5 -13q35 0 58.5 13t37.5 33q-46 56 -97.5 103t-105.5 88q-8 -29 -14.5 -55.5
t-6.5 -53.5zM540 779q1 7 1.5 13t0.5 12q0 52 -38 77t-104 25q-33 0 -55.5 -9.5t-36.5 -23.5t-20 -32t-6 -34q0 -17 4 -28h254z" />
    <glyph glyph-name="sin_nna.i" unicode="&#xdab;&#xdd2;" horiz-adv-x="1873" 
d="M1008 1383q-45 0 -95.5 -10t-94 -32.5t-72 -58t-28.5 -87.5q0 -40 21 -70t43 -48l229 275l84 -84l-22.5 -26.5l-61 -72.5l-90.5 -107.5l-110 -131.5l25 -23.5t27.5 -29.5t25.5 -34.5t20 -37.5q6 48 22 88t41 69t59 45.5t76 16.5q74 0 118 -35.5t55 -92.5q7 29 23 52.5
t37.5 40.5t47 26t51.5 9t57.5 -7t63.5 -26t62 -51t53.5 -81.5t38 -119.5t14.5 -163q0 -136 -35.5 -243t-98 -181t-146 -113t-179.5 -39q-72 0 -125 21t-88.5 50t-55 60.5t-25.5 52.5l113 63q49 -119 181 -119q61 0 120.5 25t106.5 79t75.5 139t28.5 205q0 51 -6.5 107.5
t-23.5 104t-48.5 78t-80.5 30.5q-22 0 -40 -12t-30.5 -33.5t-19.5 -50.5t-7 -63v-245h-128v243q0 46 -8.5 77t-23.5 49.5t-35 26.5t-42 8q-30 0 -54.5 -24t-42 -66t-27.5 -99t-11 -124q2 -22 2.5 -44.5t0.5 -46.5q0 -58 -12 -117t-36 -113.5t-60 -102.5t-83.5 -83
t-107.5 -55.5t-131 -20.5q-35 0 -57.5 9.5t-44 21t-46.5 21t-65 9.5q-31 0 -62.5 -14.5t-62.5 -46.5h-93q-7 11 -15.5 27t-16 35t-12.5 40.5t-5 45.5q0 30 10.5 62.5t38.5 65.5l116 139q-26 41 -40 91t-14 108q0 69 23.5 141t72.5 130.5t124 95.5t179 37q26 0 56 -5.5
t63 -17.5q-42 38 -70.5 86.5t-28.5 113.5q0 78 36 135.5t94.5 95.5t132.5 56.5t150 18.5q78 0 152.5 -19t132.5 -57t93 -95.5t35 -134.5q0 -41 -10 -73.5t-27.5 -58.5t-39.5 -47.5t-46 -39.5l-81 89q11 8 25 20t26.5 28.5t21 37t8.5 44.5q0 51 -29 87t-72.5 58.5t-94 32.5
t-94.5 10zM719 514q0 -48 -20 -91.5t-54.5 -76t-80.5 -51.5t-99 -19q-84 0 -155 51l-54 -66t-19 -25q-17 -20 -27.5 -42t-10.5 -42q0 -15 8 -29q23 22 61 41.5t92 19.5q30 0 52 -9.5t42 -21t41 -21t50 -9.5q62 0 117.5 29t97.5 79.5t67 117.5t25 143q0 48 -7 97t-21.5 94
t-37.5 84t-54 68l-103 -122q25 -15 42.5 -36.5t28 -47.5t15 -55.5t4.5 -59.5zM575 895q-67 0 -118.5 -21t-86.5 -58.5t-53 -89t-18 -112.5q0 -57 14 -99l313 375q-12 2 -24.5 3.5t-26.5 1.5zM387 420q20 -11 40 -16t38 -5q17 0 39.5 6.5t43 21t34.5 36t14 51.5
q0 38 -11 64.5t-35 38.5z" />
    <glyph glyph-name="sin_nndda.i" unicode="&#xdac;&#xdd2;" horiz-adv-x="1741" 
d="M909 752q0 37 -14.5 64t-40.5 45t-63 26.5t-83 8.5q-32 0 -64 -9.5t-58.5 -29t-44 -49.5t-19.5 -71h-129q0 38 14 79t40 79q-59 -6 -107 -37t-82 -82t-52 -119t-18 -147q0 -81 19.5 -148t47 -118.5t57 -87t48.5 -52.5l-80 -100q-47 37 -86.5 90t-68 118t-44.5 140
t-16 156q0 104 29 198t82 164.5t128 112t168 41.5q28 0 60.5 -4t67.5 -12q23 8 48.5 12t54.5 4q98 0 162.5 -24.5t102.5 -64.5t53 -91t15 -103q0 -45 -8.5 -87.5t-20.5 -77.5h-312q-30 0 -62 -10t-59 -32.5t-44.5 -59.5t-17.5 -90q0 -65 17.5 -113t47.5 -79.5t69 -47.5
t82 -16q31 0 59.5 12.5t50 34t34 49.5t12.5 59v69h128v-71q0 -44 14.5 -74t36.5 -49t48.5 -27t49.5 -8q24 0 56 7.5t66.5 29t67.5 58.5t59.5 96.5t42.5 143.5t16 198q0 58 -11.5 125t-38 133.5t-69.5 127.5t-105.5 108t-147.5 75t-194 28h-230q-57 0 -110 11t-94 33.5
t-65.5 57t-24.5 82.5q0 70 47 115.5t125.5 71t182.5 35.5t218 10q125 0 229 -20t178.5 -53.5t116 -79t41.5 -96.5q0 -56 -19.5 -96t-41.5 -60l-96 79q13 13 25 30.5t12 46.5q0 20 -21 37t-56 31.5t-80.5 25.5t-95 19t-99.5 12t-93 4q-42 0 -91.5 -1.5t-100 -5.5t-97.5 -12
t-83.5 -20t-58.5 -30t-22 -43q0 -24 19 -37.5t46.5 -19.5t57.5 -7t51 -1h232q130 0 232 -30.5t179 -83.5t130.5 -123.5t87 -150t48.5 -164t15 -164.5q-4 -135 -25 -235.5t-54.5 -173.5t-77 -120.5t-90.5 -76t-96 -39.5t-93 -11q-47 0 -82 12t-60.5 30.5t-42 40t-26.5 40.5
q-13 -23 -34 -45.5t-49.5 -39.5t-63.5 -27.5t-75 -10.5q-72 0 -135 25.5t-109.5 75t-73.5 120.5t-27 163q0 30 7.5 59.5t20.5 55.5t29 46t33 31h-115v128h546q3 13 4 25t1 23z" />
    <glyph glyph-name="sin_ta.i" unicode="&#xdad;&#xdd2;" horiz-adv-x="1504" 
d="M335 896q-64 0 -64 -95v-64h-131v65q0 50 14 91t39.5 70t61 45t78.5 16q41 0 74.5 -12.5t57.5 -34.5t37 -52t13 -65v-12t-1 -12l79 59q87 65 167 97t151 32q102 0 184.5 -36.5t141 -105.5t90.5 -168t32 -225q0 -124 -37.5 -216t-98.5 -152.5t-139.5 -90.5t-160.5 -30v123
q87 8 146 42.5t95 85.5t51.5 113t15.5 125q0 91 -23 166t-65 128.5t-101 83t-131 29.5q-48 0 -103 -18.5t-106 -56.5l-30 -22q73 -2 134 -28t104 -74t67 -115.5t24 -151.5q0 -107 -40 -187.5t-105 -134t-148 -80.5t-169 -27q-98 0 -173 18.5t-125 53t-75.5 83t-25.5 109.5
q0 23 7 44t17 39t21.5 31.5t21.5 21.5h-67l-80 91l298 226q24 23 34.5 48.5t10.5 48.5q0 34 -19.5 57.5t-48.5 23.5zM537 129q67 0 128.5 18t108.5 55t75.5 93.5t28.5 134.5q0 62 -19 108t-52.5 77t-79.5 46t-101 15q-24 0 -52.5 -5.5t-59 -16t-61.5 -27t-59 -37.5l-131 -98
h87v-91q-9 -5 -22.5 -16t-26 -26t-21.5 -33t-9 -36q0 -45 22.5 -76t60 -50t85 -27t98.5 -8zM923 1383q-45 0 -95.5 -10t-94 -32.5t-72 -58t-28.5 -87.5q0 -24 8.5 -44.5t21 -37t26.5 -28.5t25 -20l-81 -89q-25 19 -47 42.5t-39 50.5t-27 58.5t-10 67.5q0 78 36 135.5
t94.5 95.5t132.5 56.5t150 18.5q78 0 152.5 -19t132.5 -57t93 -95.5t35 -134.5q0 -41 -10 -73.5t-27.5 -58.5t-39.5 -47.5t-46 -39.5l-81 89q11 8 25 20t26.5 28.5t21 37t8.5 44.5q0 51 -29 87t-72.5 58.5t-94 32.5t-94.5 10z" />
    <glyph glyph-name="sin_tha.i" unicode="&#xdae;&#xdd2;" horiz-adv-x="1306" 
d="M404 1163q-51 3 -89.5 26t-65 56t-40 72.5t-13.5 75.5q0 78 34 135.5t91 95.5t132 56.5t156 18.5q85 0 160 -19t131 -57t89 -95.5t33 -134.5q0 -64 -24.5 -108.5t-59.5 -77.5q49 -61 90 -131t70.5 -148.5t46 -164t16.5 -178.5q0 -60 -12.5 -126.5t-40 -131.5t-72 -124.5
t-108.5 -104.5t-149 -71.5t-194 -26.5q-88 0 -160.5 24t-130 65t-100.5 95.5t-72 116t-43 126.5t-14 126q0 95 29.5 176.5t79.5 143t117.5 99.5t142.5 46v-123q-59 -13 -104.5 -43.5t-77 -75t-48 -101.5t-16.5 -122q0 -42 9.5 -90t30 -95t52.5 -90.5t76 -76.5t101 -53
t128 -20q120 0 205 39t139 103t79 146t25 169q0 136 -37.5 251t-97.5 210q-32 -38 -80 -65t-106 -27q-47 0 -88.5 14t-73.5 40.5t-53.5 65.5t-27.5 89h-65zM495 1406q-32 16 -59 26l43 106q92 -29 190.5 -89.5t188.5 -151.5q17 18 29 42t12 54q0 51 -27.5 87t-70 58.5
t-94 32.5t-98.5 10q-50 0 -101.5 -10.5t-93.5 -33t-68.5 -58t-26.5 -86.5q0 -22 6.5 -43.5t21 -39.5t38.5 -30.5t60 -16.5h26q5 35 13 67.5t11 75.5zM614 1338q-7 -38 -15.5 -71.5t-8.5 -66.5q0 -19 7.5 -40.5t22.5 -40t38 -30.5t54 -12q44 0 72.5 19.5t45.5 44.5
q-50 61 -105 110t-111 87z" />
    <glyph glyph-name="sin_da.i" unicode="&#xdaf;&#xdd2;" horiz-adv-x="1129" 
d="M861 614h-368q-58 0 -112 -10t-96 -34.5t-67 -66t-25 -105.5q0 -70 27.5 -121t71 -84t97 -49t104.5 -16q77 0 134.5 22.5t96 57.5t57.5 77.5t19 83.5h123q0 -65 -24 -131t-76 -119t-133.5 -86t-196.5 -33h-21t-21 1q-14 -17 -18 -34.5t-4 -30.5q0 -23 12.5 -46t36.5 -41
t58 -29.5t78 -11.5q57 0 100.5 17t74.5 48t49 73t23 93h123q0 -84 -30 -150.5t-81 -113t-117.5 -71t-139.5 -24.5q-70 0 -127 18.5t-97.5 52.5t-62.5 81t-22 104q0 49 24 90q-67 23 -117 64t-83 91.5t-49.5 107t-16.5 111.5q0 88 31.5 151.5t88.5 104.5t135.5 61t172.5 20
h245q0 81 -62.5 120t-182.5 39q-35 0 -73 -5t-71.5 -21.5t-58.5 -48.5t-33 -85h-128q14 84 50 139.5t85.5 88.5t108.5 46.5t120 13.5q76 0 143.5 -20t118 -63t79.5 -111.5t29 -164.5q0 -11 -0.5 -22.5t-1.5 -28.5zM500 1383q-45 0 -95.5 -10t-94 -32.5t-72 -58t-28.5 -87.5
q0 -24 8.5 -44.5t21 -37t26.5 -28.5t25 -20l-81 -89q-25 19 -47 42.5t-39 50.5t-27 58.5t-10 67.5q0 78 36 135.5t94.5 95.5t132.5 56.5t150 18.5q78 0 152.5 -19t132.5 -57t93 -95.5t35 -134.5q0 -41 -10 -73.5t-27.5 -58.5t-39.5 -47.5t-46 -39.5l-81 89q11 8 25 20
t26.5 28.5t21 37t8.5 44.5q0 51 -29 87t-72.5 58.5t-94 32.5t-94.5 10z" />
    <glyph glyph-name="sin_dha.i" unicode="&#xdb0;&#xdd2;" horiz-adv-x="1435" 
d="M1292 656q0 -130 -20 -229t-53.5 -172t-78.5 -122t-94 -78.5t-99.5 -42t-96.5 -12.5q-47 0 -82 12t-60.5 30.5t-42 40t-26.5 40.5q-13 -23 -32.5 -45.5t-44.5 -39.5t-55.5 -27.5t-66.5 -10.5q-80 0 -147 37.5t-116 103.5t-76 156.5t-27 195.5q0 100 33 194.5t96.5 168
t156.5 118t213 44.5v-123q-88 0 -157 -33t-116.5 -88.5t-72.5 -128t-25 -150.5q0 -74 16 -140.5t46 -117t73 -80t97 -29.5q31 0 57 12.5t44 34t28 49.5t10 59v69h123v-71q0 -44 15.5 -73.5t38.5 -47t50 -25t50 -7.5q25 0 58 6.5t68 26.5t68.5 56t60 94.5t43 143t16.5 201.5
q0 58 -11.5 125t-38.5 133t-70 127t-106 108t-148 75t-194 28h-138q-57 0 -113 11t-100.5 34t-72.5 57.5t-28 82.5q0 70 45 115.5t116.5 71t161.5 35.5t180 10q112 0 203.5 -20t156.5 -53.5t100 -79t35 -96.5q0 -56 -19.5 -96t-41.5 -60l-96 79q13 13 25 30.5t12 46.5
q0 30 -36.5 53.5t-92 40.5t-121.5 26t-125 9q-54 0 -120.5 -3.5t-125 -15.5t-98 -34t-39.5 -59q0 -21 24 -34t57.5 -20t68.5 -9.5t56 -2.5h130q130 0 232 -30.5t179 -83.5t130.5 -123.5t87 -149.5t48.5 -163.5t15 -164.5z" />
    <glyph glyph-name="sin_na.i" unicode="&#xdb1;&#xdd2;" 
d="M216 737h-123v64q0 50 18.5 90t49 68.5t70.5 43.5t83 15q36 0 68.5 -13t58.5 -36t45 -56t28 -73q30 37 64 70.5t73.5 58.5t84.5 40t97 15q93 0 174.5 -35t142.5 -102t96 -164t35 -221q0 -123 -37.5 -217t-98.5 -157.5t-139.5 -95.5t-160.5 -32v123q81 0 139 36t95.5 91.5
t55.5 122.5t18 129q0 96 -26 170t-70 123.5t-102 75t-122 25.5q-51 0 -105 -30t-103 -75q77 -14 134 -47.5t94.5 -84t55.5 -116t18 -142.5q0 -96 -40 -170.5t-104 -126t-144 -78t-161 -26.5q-104 0 -181 34.5t-129 89t-77.5 121t-25.5 130.5v213h128v-27q15 -27 28.5 -33
t25.5 -6q30 0 53 14t40 36.5t28.5 50.5t18.5 57t10 56t3 46q0 53 -25 83t-65 30t-67 -22.5t-27 -71.5v-64zM256 399q-12 0 -24.5 3.5t-38.5 25.5v-51q0 -51 23.5 -96.5t62.5 -79.5t90.5 -53.5t108.5 -19.5q63 0 121 19.5t103 55t71.5 86t26.5 112.5q0 63 -19 113t-54.5 84.5
t-86 54t-112.5 22.5l-20.5 -33t-16.5 -33q-17 -38 -40 -75.5t-52 -67.5t-65 -48.5t-78 -18.5zM844 1383q-45 0 -95.5 -10t-94 -32.5t-72 -58t-28.5 -87.5q0 -24 8.5 -44.5t21 -37t26.5 -28.5t25 -20l-81 -89q-25 19 -47 42.5t-39 50.5t-27 58.5t-10 67.5q0 78 36 135.5
t94.5 95.5t132.5 56.5t150 18.5q78 0 152.5 -19t132.5 -57t93 -95.5t35 -134.5q0 -41 -10 -73.5t-27.5 -58.5t-39.5 -47.5t-46 -39.5l-81 89q11 8 25 20t26.5 28.5t21 37t8.5 44.5q0 51 -29 87t-72.5 58.5t-94 32.5t-94.5 10z" />
    <glyph glyph-name="sin_nda.i" unicode="&#xdb3;&#xdd2;" horiz-adv-x="1418" 
d="M793 1383q-45 0 -95.5 -10t-94 -32.5t-72 -58t-28.5 -87.5q0 -24 8.5 -44.5t21 -37t26.5 -28.5t25 -20l-46 -51q15 -5 28 -11.5t25 -14.5q44 20 92 28t99 8q83 0 151.5 -19.5t117 -62.5t75 -110t26.5 -162v-27.5t-2 -28.5h-368q-58 0 -113 -10t-98 -35t-69.5 -66.5
t-26.5 -105.5q0 -70 29 -120.5t74 -83.5t99 -49t105 -16q78 0 135.5 22.5t95.5 57.5t57 77.5t19 83.5h123q0 -65 -24 -131t-76 -119t-133.5 -86t-196.5 -33h-18t-17 1q-14 -15 -20.5 -31.5t-6.5 -30.5q0 -23 12.5 -45.5t36 -39.5t58 -27.5t78.5 -10.5q57 0 100 16t73.5 45
t48.5 70t23 92h123q0 -84 -30 -148.5t-81 -108.5t-117.5 -66.5t-139.5 -22.5q-67 0 -123.5 17t-97.5 49t-64 77.5t-23 102.5q0 49 19 88q-66 23 -115.5 63.5t-82.5 90t-49.5 105.5t-16.5 111q0 88 32 152t89 106t136 62.5t173 20.5h245q0 81 -62.5 119.5t-182.5 38.5
q-35 0 -74.5 -5t-75 -21.5t-62 -48t-34.5 -84.5h-123q8 50 24 89t39 69q-5 1 -14 1q-57 0 -107 -29t-87 -81t-58.5 -122.5t-21.5 -153.5q0 -81 19.5 -148t47 -118.5t57 -87t48.5 -52.5l-80 -100q-47 37 -86.5 90t-68 118t-44.5 140t-16 156q0 101 29 192.5t80.5 161
t122.5 113t154 48.5q-31 34 -51 76t-20 96q0 78 36 135.5t94.5 95.5t132.5 56.5t150 18.5q78 0 152.5 -19t132.5 -57t93 -95.5t35 -134.5q0 -41 -10 -73.5t-27.5 -58.5t-39.5 -47.5t-46 -39.5l-81 89q11 8 25 20t26.5 28.5t21 37t8.5 44.5q0 51 -29 87t-72.5 58.5t-94 32.5
t-94.5 10z" />
    <glyph glyph-name="sin_pa.i" unicode="&#xdb4;&#xdd2;" horiz-adv-x="1204" 
d="M722 779q54 0 113.5 -16t109 -54t82 -100.5t32.5 -155.5q0 -47 -13.5 -98.5t-40.5 -101.5t-68.5 -96t-96.5 -81t-124.5 -55.5t-153.5 -20.5q-123 0 -216 40.5t-155.5 105t-94 145.5t-31.5 162q0 93 27 155.5t74 100.5t111.5 54t138.5 16h43q-10 29 -27.5 51t-39.5 36.5
t-46.5 21.5t-47.5 7q-24 0 -49 -8.5t-47.5 -22.5t-41 -31t-28.5 -34l-62 96q5 8 18 24t33 33.5t47.5 34.5t61.5 27q-35 35 -57.5 79.5t-22.5 101.5q0 78 36 135.5t94.5 95.5t132.5 56.5t150 18.5q78 0 152.5 -19t132.5 -57t93 -95.5t35 -134.5q0 -62 -22.5 -105.5
t-55.5 -75.5q31 -9 57.5 -25t47 -33.5t33.5 -34t17 -26.5l-61 -96q-15 23 -34.5 41t-41.5 30t-44 18.5t-42 6.5q-63 0 -103 -30.5t-63 -85.5h58zM462 656q-63 0 -113 -6.5t-84.5 -28t-53 -61.5t-18.5 -107q0 -83 32 -144.5t84 -101.5t118 -59.5t134 -19.5q70 0 136.5 23.5
t118.5 66.5t83.5 103t31.5 132q0 68 -22 108.5t-58.5 61.5t-85.5 27t-103 6h-200zM563 1383q-45 0 -95.5 -10t-94 -32.5t-72 -58t-28.5 -87.5q0 -24 8.5 -44.5t21 -37t26.5 -28.5t25 -20l-38 -42q52 -3 94 -25t73.5 -56t51.5 -76.5t27 -86.5q6 43 26 85t51.5 76t74.5 56
t96 27l-38 42q11 8 25 20t26.5 28.5t21 37t8.5 44.5q0 51 -29 87t-72.5 58.5t-94 32.5t-94.5 10z" />
    <glyph glyph-name="sin_pha.i" unicode="&#xdb5;&#xdd2;" horiz-adv-x="1397" 
d="M504 1163q-51 3 -89.5 26t-65 56t-40 72.5t-13.5 75.5q0 78 34 135.5t91 95.5t132 56.5t156 18.5q85 0 160 -19t131 -57t89 -95.5t33 -134.5q0 -60 -22 -103.5t-54 -75.5q46 -56 84 -119.5t65 -135.5t42 -151.5t15 -167.5q0 -64 -11.5 -136.5t-39 -143.5t-73 -136
t-113.5 -115t-160 -79.5t-213 -29.5q-120 0 -225 25t-183.5 79t-123.5 139t-45 205q0 58 22.5 110t64 92t101 63.5t133.5 23.5h171q1 5 1 9.5v9.5q0 35 -16.5 61t-43 43.5t-59.5 26t-66 8.5q-31 0 -60 -7t-54 -24t-43.5 -45t-27.5 -69h-123q6 60 34.5 109.5t71 85t95 54.5
t107.5 19q71 0 129 -22t99.5 -62.5t64.5 -98.5t23 -130q0 -43 -9 -91h-294q-30 0 -64 -8.5t-62.5 -28t-47 -51.5t-18.5 -78q0 -64 17.5 -112.5t49 -84t74 -59.5t92.5 -38t104.5 -20t110.5 -6q131 0 222.5 44t149.5 116t84 164t26 188q0 127 -34 231.5t-89 190.5
q-16 -22 -37 -41.5t-46.5 -34.5t-54.5 -23.5t-60 -8.5q-47 0 -88.5 14t-73.5 40.5t-53.5 65.5t-27.5 89h-56zM586 1408q-15 7 -30 13t-29 11l43 106q101 -33 202 -91.5t191 -143.5q14 17 25 39.5t11 50.5q0 51 -27.5 87t-70 58.5t-94 32.5t-98.5 10q-50 0 -101.5 -10.5
t-93.5 -33t-68.5 -58t-26.5 -86.5q0 -22 6.5 -43.5t21 -39.5t38.5 -30.5t60 -16.5h17q5 35 13 68.5t11 76.5zM706 1344q-7 -40 -16 -74.5t-9 -69.5q0 -19 7.5 -40.5t22.5 -40t38 -30.5t54 -12q25 0 45 7t35 18t26.5 25t20.5 28q-51 60 -108.5 106.5t-115.5 82.5z" />
    <glyph glyph-name="sin_ba.i" unicode="&#xdb6;&#xdd2;" horiz-adv-x="1462" 
d="M1318 656q0 -125 -23.5 -243t-71.5 -210t-121 -147.5t-171 -55.5q-83 0 -137.5 27t-86.5 69t-45 92.5t-13 96.5q0 40 15 85t33 90.5t33 91.5t15 88q0 61 -18 109t-49 80.5t-73.5 49.5t-91.5 17q-81 0 -141 -33.5t-99.5 -89t-59.5 -129t-20 -152.5q0 -68 8.5 -129
t27.5 -109.5t48.5 -81.5t70.5 -44q-35 39 -51.5 80.5t-16.5 92.5q0 45 12.5 80.5t34 60t49.5 37.5t58 13q46 0 80.5 -20.5t57.5 -53.5t34.5 -73.5t11.5 -80.5q0 -53 -15.5 -101t-45 -84t-72 -57.5t-96.5 -21.5q-86 0 -147.5 45t-100.5 116t-57.5 159.5t-18.5 175.5
q0 100 28 195t84.5 169t140.5 119t195 45q87 0 154 -26.5t113 -76t69.5 -120.5t23.5 -161q0 -46 -16.5 -93.5t-36 -93t-35.5 -88t-16 -79.5q0 -30 8.5 -58.5t28 -50.5t49.5 -35.5t74 -13.5q58 0 106 40t82.5 110.5t53.5 167t19 210.5q0 58 -11.5 125t-38 133.5t-69.5 127.5
t-105.5 108t-147.5 75t-194 28h-230q-57 0 -110 11t-94 33.5t-65.5 57t-24.5 82.5q0 70 47 115.5t125.5 71t182.5 35.5t218 10q125 0 229 -20t178.5 -53.5t116 -79t41.5 -96.5q0 -56 -19.5 -96t-41.5 -60l-96 79q13 13 25 30.5t12 46.5q0 20 -21 37t-56 31.5t-80.5 25.5
t-95 19t-99.5 12t-93 4q-42 0 -91.5 -1.5t-100 -5.5t-97.5 -12t-83.5 -20t-58.5 -30t-22 -43q0 -24 19 -37.5t46.5 -19.5t57.5 -7t51 -1h232q130 0 232 -30.5t179 -83.5t130.5 -123.5t87 -150t48.5 -164t15 -164.5zM495 264q0 16 -2.5 34.5t-9 34.5t-18.5 26.5t-31 10.5
q-12 0 -21.5 -8.5t-15.5 -21t-9 -27.5t-3 -28q0 -32 18 -69t55 -63q20 23 28.5 55t8.5 56z" />
    <glyph glyph-name="sin_bha.i" unicode="&#xdb7;&#xdd2;" horiz-adv-x="1666" 
d="M65 651v128h98q-6 24 -6 49q0 40 15.5 75.5t45 62.5t73 42.5t99.5 15.5q133 0 193.5 -59t60.5 -169q0 -64 -23 -145q-79 -9 -145 -36.5t-114 -66.5t-74.5 -85.5t-26.5 -92.5q0 -78 31 -125.5t80.5 -73.5t112 -34.5t125.5 -8.5q77 0 144 23t116 62.5t77 92.5t28 113
q0 49 -11 80t-28 48.5t-37.5 24t-39.5 6.5q-11 0 -25.5 -3.5t-28.5 -13.5t-25.5 -26.5t-17.5 -42.5h-123v61q0 92 30.5 177t88.5 150.5t140.5 104.5t186.5 39q81 0 145 -23.5t112.5 -63t82.5 -91t55.5 -108t31 -114.5t9.5 -109q0 -119 -34.5 -214.5t-95.5 -162
t-143.5 -102.5t-178.5 -36v123q46 4 102.5 23.5t105.5 63.5t82.5 117.5t33.5 184.5q0 90 -26.5 161.5t-70 121t-98 75.5t-111.5 26q-58 0 -107 -19t-87.5 -50.5t-66.5 -73t-44 -86.5q25 20 52.5 28.5t49.5 8.5q43 0 82.5 -16.5t69.5 -51t48 -88.5t18 -129q0 -66 -21.5 -123
t-58 -103.5t-85 -82.5t-103.5 -60.5t-113 -37t-113 -12.5q-121 0 -210.5 27t-148.5 77t-88 121t-29 158q0 42 18 85t44 80.5t55 65t50 37.5h-234zM520 779q1 7 1.5 13t0.5 12q0 52 -33 74.5t-99 22.5q-33 0 -54 -8.5t-33 -22t-16.5 -30.5t-4.5 -33q0 -17 4 -28h234z
M1071 1383q-45 0 -95.5 -10t-94 -32.5t-72 -58t-28.5 -87.5q0 -24 8.5 -44.5t21 -37t26.5 -28.5t25 -20l-81 -89q-25 19 -47 42.5t-39 50.5t-27 58.5t-10 67.5q0 78 36 135.5t94.5 95.5t132.5 56.5t150 18.5q78 0 152.5 -19t132.5 -57t93 -95.5t35 -134.5q0 -41 -10 -73.5
t-27.5 -58.5t-39.5 -47.5t-46 -39.5l-81 89q11 8 25 20t26.5 28.5t21 37t8.5 44.5q0 51 -29 87t-72.5 58.5t-94 32.5t-94.5 10z" />
    <glyph glyph-name="sin_ma.i" unicode="&#xdb8;&#xdd2;" horiz-adv-x="1398" 
d="M1253 737q0 -158 -43 -293t-121.5 -233.5t-189 -154.5t-245.5 -56q-122 0 -229 42.5t-187 119t-126.5 184t-46.5 236.5q0 100 23 181.5t63.5 139.5t97 89.5t123.5 31.5q44 0 73.5 -10t47 -27.5t24.5 -41t7 -50.5q0 -37 -9.5 -77.5t-21.5 -79l-21.5 -71t-9.5 -53.5
q0 -62 49 -101t151 -39q31 0 62.5 12t58 34.5t45.5 55t24 73.5q-50 -31 -99 -31q-37 0 -67.5 18t-52.5 45.5t-34 61t-12 65.5q0 43 13 82.5t37 69.5t58.5 47.5t78.5 17.5q58 0 97.5 -30t64 -74.5t35 -96.5t10.5 -96q0 -70 -22 -138.5t-63 -122.5t-101 -87t-136 -33
q-65 0 -123 18.5t-101.5 53t-69.5 84t-26 111.5q0 24 9.5 56t21.5 65t21.5 64.5t9.5 54.5q0 19 -9 30t-31 11q-26 0 -55.5 -15.5t-54.5 -52.5t-41.5 -98.5t-16.5 -153.5q0 -103 35.5 -186t97.5 -141t146 -89t182 -31q115 0 203 49.5t147.5 133t90 194.5t30.5 234
q0 41 -9.5 95.5t-32 112t-60 113t-93.5 99t-133 70.5t-178 27h-42q-63 0 -124.5 12t-110.5 36t-79 60t-30 84q0 70 40 113.5t104.5 67.5t144 32t159.5 8q105 0 190 -18.5t145 -52t92.5 -80t32.5 -101.5q0 -34 -8 -62t-19.5 -50t-25.5 -37.5t-26 -24.5l-96 79q7 5 17 14.5
t18 23t14 29.5t6 34q0 25 -21 47.5t-64.5 40t-110.5 28t-159 10.5q-57 0 -113 -2t-100.5 -10.5t-72 -25.5t-27.5 -47t25.5 -48t61 -27t72 -11.5t57.5 -2.5h64q122 0 215.5 -32t162.5 -84.5t115 -119.5t74.5 -138t40.5 -140t12 -124zM688 816q0 -19 6.5 -35.5t17.5 -29
t26 -19.5t32 -7q23 0 44 9.5t38 22.5q-3 21 -7.5 46.5t-14 47t-26.5 36t-44 14.5q-19 0 -32.5 -7.5t-22.5 -19.5t-13 -27.5t-4 -30.5z" />
    <glyph glyph-name="sin_mba.i" unicode="&#xdb9;&#xdd2;" 
d="M1281 683q0 -161 -31 -288t-83.5 -215t-123 -134t-149.5 -46q-97 0 -141.5 42t-44.5 112q0 31 14.5 50.5t31.5 37.5t31.5 38.5t14.5 53.5q0 26 -28.5 41.5t-94.5 15.5q-72 0 -97.5 -15.5t-25.5 -41.5q0 -33 14.5 -53.5t31.5 -38.5t31.5 -37.5t14.5 -50.5q0 -35 -15 -63.5
t-42.5 -48.5t-67 -31t-88.5 -11q-80 0 -147.5 37t-116.5 102.5t-76.5 156t-27.5 197.5q0 65 10.5 129t30 122.5t48.5 108.5t66.5 86.5t83 57.5t98.5 21q58 0 93.5 -17.5t55.5 -42.5t27 -52t7 -46q0 -18 -5 -29t-10.5 -20t-10.5 -18.5t-5 -24.5q0 -29 24.5 -45t86.5 -16
q73 0 104 23t31 83q0 34 -16.5 58t-59.5 24q-9 0 -19.5 -3.5t-19.5 -8.5l-37 108q20 11 43.5 19t46.5 8q32 0 65 -11.5t59.5 -36t43.5 -62.5t17 -91q0 -66 -17 -110.5t-50.5 -72t-83 -39t-114.5 -11.5q-73 0 -117.5 15.5t-69 39.5t-32.5 53t-8 56q0 19 5 32t10.5 23.5
l10.5 21t5 25.5q0 13 -7 21.5t-17 14t-22 7.5t-22 2q-38 0 -74 -24.5t-64 -74t-45.5 -125t-17.5 -178.5q0 -74 17.5 -140t49 -116t75 -79.5t96.5 -29.5q51 0 71.5 15t20.5 34q0 22 -7 36.5t-17 25.5t-22 21t-22 24t-17 34t-7 51q0 71 65 112t181 41q57 0 103 -11t77.5 -31
t48.5 -48.5t17 -62.5q0 -46 -14.5 -71t-32 -42t-32 -32.5t-14.5 -43.5q0 -26 13 -39t54 -13q37 0 81.5 30t83.5 96.5t65 172t26 256.5q0 116 -40.5 220t-115.5 182.5t-182.5 124.5t-241.5 46h-51q-76 0 -142 12t-115 36t-77 60t-28 84q0 47 22 81.5t60 59t87.5 40.5
t105 24.5t113 12t110.5 3.5q105 0 197.5 -18.5t162 -52t110 -80t40.5 -101.5q0 -34 -8 -62t-19.5 -50t-25.5 -37.5t-26 -24.5l-96 79q7 5 17 14.5t18 23t14 29.5t6 34q0 25 -29 47.5t-82 40t-127.5 28t-166.5 10.5q-57 0 -121 -2t-117.5 -10.5t-89 -25.5t-35.5 -47
q0 -20 14 -34.5t36 -24.5t49.5 -16t54.5 -9t50.5 -4t37.5 -1h44q147 0 257 -36.5t189.5 -96t131.5 -135t82.5 -152.5t42.5 -148.5t12 -123.5z" />
    <glyph glyph-name="sin_ya.i" unicode="&#xdba;&#xdd2;" horiz-adv-x="1346" 
d="M1135 737h-123q0 28 -6.5 56t-23.5 50.5t-47 37t-77 14.5q-44 0 -73.5 -12t-47 -33t-25 -50t-7.5 -63h153q72 0 135 -20.5t109 -62t72.5 -103.5t26.5 -146q0 -108 -27 -185t-73 -126t-105.5 -71.5t-125.5 -22.5q-47 0 -83.5 12.5t-64.5 31.5t-47 40t-30 39
q-12 -21 -32.5 -42.5t-47.5 -39.5t-59.5 -29.5t-68.5 -11.5q-75 0 -142.5 33.5t-118.5 97.5t-81 156.5t-30 209.5q0 95 22 177.5t62 147t96 110t124 67.5q-41 37 -68 85t-27 111q0 78 36 135.5t94.5 95.5t132.5 56.5t150 18.5q78 0 152.5 -19t132.5 -57t93 -95.5t35 -134.5
q0 -72 -30 -120t-71 -82q70 -35 103 -103.5t33 -152.5zM687 1383q-45 0 -95.5 -10t-94 -32.5t-72 -58t-28.5 -87.5q0 -24 8.5 -44.5t21 -37t26.5 -28.5t25 -20l-47 -52q14 2 29 3.5t30 1.5v-123q-73 0 -128.5 -32.5t-93 -88t-56.5 -128t-19 -151.5q0 -84 18 -152t50.5 -116
t76.5 -73.5t97 -25.5q31 0 58 11t47 30.5t31 47t11 59.5v74h123v-69q0 -47 19 -76.5t45 -46.5t54.5 -23.5t46.5 -6.5q27 0 62 9t66.5 38t53 84t21.5 147q0 57 -19 96.5t-50 64.5t-69 36t-77 11h-276q-1 11 -1 21.5v21.5q0 181 66 274t211 93q23 0 43.5 -2.5t40.5 -7.5
l-46 51q11 8 25 20t26.5 28.5t21 37t8.5 44.5q0 51 -29 87t-72.5 58.5t-94 32.5t-94.5 10z" />
    <glyph glyph-name="sin_ra.i" unicode="&#xdbb;&#xdd2;" horiz-adv-x="1199" 
d="M756 1413l139 -61q-18 -62 -47.5 -113t-64.5 -92.5t-72 -73.5t-69 -54q91 -11 167 -47.5t130.5 -95t84.5 -139t30 -179.5q0 -119 -33 -221t-96.5 -177t-155.5 -117.5t-210 -42.5q-115 0 -206.5 45.5t-155.5 122t-98 176.5t-34 209q0 89 23.5 161.5t66 128.5t101 95
t128.5 60q-30 -6 -63 -6q-34 0 -67.5 9t-56.5 32q-65 65 -65 160q0 61 29.5 125.5t91.5 122.5q63 59 129.5 84.5t126.5 25.5q58 0 104.5 -20t74.5 -54q25 -30 33.5 -58t8.5 -60q0 -10 -0.5 -19t-1.5 -20q8 22 15 45t13 48zM928 553q0 76 -23.5 139t-70 108.5t-116.5 70.5
t-162 25t-160.5 -26t-114 -71.5t-68 -108.5t-22.5 -137q0 -92 28 -170t77.5 -134.5t117 -88.5t145.5 -32q82 0 150 32t117 88.5t75.5 134.5t26.5 170zM338 1364q-45 -43 -68 -87t-23 -82q0 -42 27 -69q15 -15 34 -20t37 -5q17 0 31 2.5t22 4.5q2 0 2.5 0.5t1.5 0.5l4 -105
q39 10 81 15q27 15 57 37.5t59.5 54.5t57.5 73.5t51 95.5l-103 7q2 12 4.5 25.5t2.5 27.5q0 16 -5.5 33t-22.5 36q-29 32 -84 32q-37 0 -80 -17.5t-86 -59.5z" />
    <glyph glyph-name="sin_la.i" unicode="&#xdbd;&#xdd2;" horiz-adv-x="1346" 
d="M65 307q0 171 48.5 304t131.5 225t193.5 140t235.5 48q127 0 225 -47t165 -124t102 -176t35 -203q0 -94 -17.5 -165.5t-48 -124t-70 -88t-84 -57t-90 -30.5t-87.5 -9q-53 0 -109 15.5t-101.5 49.5t-74.5 88t-29 130q0 33 9.5 65t25.5 59.5t36 49t41 35.5h-204v122h491
v-122h-123q-71 -26 -112.5 -76t-41.5 -113q0 -49 20.5 -82.5t50.5 -54t64 -29.5t60 -9t56 5.5t60 19.5t57.5 38.5t49 63t34.5 92t13 125.5q0 87 -30.5 164t-84 135t-127.5 91.5t-161 33.5q-104 0 -192 -37t-152 -110.5t-100.5 -184.5t-36.5 -258q0 -138 36.5 -247
t100.5 -184t152 -115t192 -40q141 0 236.5 62t148.5 199l115 -47q-35 -95 -87 -160t-117 -105.5t-140 -58.5t-156 -18q-125 0 -236 45t-194 135t-131 224t-48 311zM674 1383q-45 0 -95.5 -10t-94 -32.5t-72 -58t-28.5 -87.5q0 -24 8.5 -44.5t21 -37t26.5 -28.5t25 -20
l-81 -89q-25 19 -47 42.5t-39 50.5t-27 58.5t-10 67.5q0 78 36 135.5t94.5 95.5t132.5 56.5t150 18.5q78 0 152.5 -19t132.5 -57t93 -95.5t35 -134.5q0 -41 -10 -73.5t-27.5 -58.5t-39.5 -47.5t-46 -39.5l-81 89q11 8 25 20t26.5 28.5t21 37t8.5 44.5q0 51 -29 87
t-72.5 58.5t-94 32.5t-94.5 10z" />
    <glyph glyph-name="sin_va.i" unicode="&#xdc0;&#xdd2;" horiz-adv-x="1325" 
d="M1180 730q0 -151 -26.5 -263.5t-71.5 -193.5t-104 -134t-124 -84t-131.5 -43t-125.5 -12q-104 0 -195.5 29.5t-160.5 85t-109 136t-40 182.5q0 66 27 121.5t76.5 96t120.5 63.5t158 23h123q1 5 1 10v10q0 34 -16.5 61t-43 45.5t-59.5 28t-66 9.5q-31 0 -60 -7t-53.5 -24
t-43 -45t-27.5 -69h-123q6 60 34.5 109.5t71 85t95 54.5t106.5 19q71 0 129 -22.5t99.5 -64.5t64.5 -101t23 -131q0 -43 -9 -91h-246q-49 0 -95 -11.5t-81 -34.5t-56.5 -57.5t-21.5 -80.5q0 -69 27 -125t76.5 -95t119 -60.5t153.5 -21.5q43 0 94 9t101.5 33.5t97.5 66.5
t83.5 109t58 161.5t21.5 222.5q0 53 -12.5 112.5t-39 118t-66.5 112t-96 94.5t-128 65t-161 24h-42q-63 0 -124.5 12t-110.5 36t-79 60t-30 84q0 70 40 113.5t104.5 67.5t144 32t159.5 8q105 0 190 -18.5t145 -52t92.5 -80t32.5 -101.5q0 -34 -8 -62t-19.5 -50t-25.5 -37.5
t-26 -24.5l-96 79q7 5 17 14.5t18 23t14 29.5t6 34q0 25 -21 47.5t-64.5 40t-110.5 28t-159 10.5q-57 0 -113 -2t-100.5 -10.5t-72 -25.5t-27.5 -47t25.5 -48t61 -27t72 -11.5t57.5 -2.5h64q110 0 199 -31.5t157.5 -83.5t118 -119t81 -139t46.5 -142.5t15 -129.5z" />
    <glyph glyph-name="sin_sha.i" unicode="&#xdc1;&#xdd2;" horiz-adv-x="1490" 
d="M554 492h-123v61q0 92 35.5 177t98 150.5t148.5 104.5t188 39q80 0 144 -22.5t113 -60.5t84.5 -88.5t58.5 -106t33.5 -113t10.5 -110.5q0 -119 -39.5 -216t-106.5 -165t-154.5 -105t-183.5 -37v123q6 0 9 1q23 5 38 32.5t15 66.5q0 18 -3 30.5l-6.5 26t-6.5 30t-3 42.5
q0 39 15 65.5t37 43t46.5 24t42.5 7.5q64 0 101 -32t51 -78q20 63 20 143q0 86 -26 155t-70.5 117t-102.5 73.5t-121 25.5t-113 -18t-89 -49t-67 -71t-47 -84q22 17 45 25t43 8q49 0 85.5 -28.5t60.5 -73t35.5 -99t11.5 -106.5v-15.5t-1 -15.5q-6 -88 -40 -156.5t-86 -116
t-118.5 -72t-136.5 -24.5q-73 0 -132.5 23t-105.5 62t-79.5 90.5t-55 108.5t-32 115.5t-10.5 112.5q0 128 37 221t98 154.5t139.5 94.5t161.5 42v-123q-27 -4 -60.5 -14t-68 -29t-66.5 -48.5t-57.5 -71.5t-40.5 -98t-15 -128q0 -84 23 -154.5t62 -121.5t90.5 -79.5
t108.5 -28.5q52 0 97 15.5t79.5 46.5t57 76.5t28.5 104.5q1 8 1.5 17t0.5 17q0 36 -8 68.5t-21.5 57t-32 39t-39.5 14.5q-25 0 -48.5 -21.5t-37.5 -70.5zM1130 258q1 5 1 9.5v9.5q0 39 -18 65.5t-51 26.5q-35 0 -49.5 -18.5t-14.5 -43.5q0 -26 8.5 -48t8.5 -50q0 -17 -8 -46
q33 16 64.5 39.5t58.5 55.5zM716 1383q-32 0 -74.5 -4t-86.5 -13t-87 -23t-77 -35t-54.5 -49t-20.5 -64q0 -28 8.5 -48.5t21 -36t26.5 -26.5l25 -19l-81 -89q-24 21 -46 42.5t-39.5 47t-27.5 57t-10 72.5q0 53 23.5 96.5t63.5 77.5t92.5 59t110.5 41t118 24t115 8t115 -8
t118 -24t110.5 -41t92.5 -59t63.5 -77.5t23.5 -96.5q0 -41 -10 -72.5t-27.5 -57t-39.5 -47t-46 -42.5l-81 89l25 19t26.5 26.5t21 36t8.5 48.5q0 36 -20.5 64t-54.5 49t-77 35t-87 23t-86.5 13t-74.5 4z" />
    <glyph glyph-name="sin_ssa.i" unicode="&#xdc2;&#xdd2;" horiz-adv-x="1197" 
d="M65 895q5 8 18 24t33 34t47 34.5t61 26.5q-35 35 -57.5 79.5t-22.5 101.5q0 78 36 135.5t94.5 95.5t132.5 56.5t150 18.5q78 0 152.5 -19t132.5 -57t93 -95.5t35 -134.5q0 -61 -22 -104.5t-55 -75.5q42 -11 72 -33t49.5 -51t28.5 -63t9 -69q0 -48 -13.5 -98t-36.5 -82
q11 -18 19.5 -36t14.5 -37.5t9 -42t3 -50.5q0 -43 -13 -93.5t-39.5 -101t-67 -97t-95 -82.5t-123.5 -57.5t-153 -21.5q-82 0 -150.5 19t-123 52.5t-95.5 77.5t-68.5 94.5t-41 104t-13.5 105.5q0 93 26 155.5t72.5 100.5t110 54t137.5 16h43q-10 29 -27.5 51t-39.5 36.5
t-46.5 21.5t-47.5 7q-24 0 -49 -8.5t-47.5 -22.5t-41 -31t-28.5 -34zM557 1383q-45 0 -95.5 -10t-94 -32.5t-72 -58t-28.5 -87.5q0 -24 8.5 -44.5t21 -37t26.5 -28.5t25 -20l-38 -42q51 -4 93.5 -26t74.5 -56t52 -76t27 -86q6 45 24.5 87.5t49.5 76t73.5 55.5t98.5 25
l-37 42q11 8 25 20t26.5 28.5t21 37t8.5 44.5q0 51 -29 87t-72.5 58.5t-94 32.5t-94.5 10zM457 656q-63 0 -113 -6.5t-84.5 -28t-53 -61.5t-18.5 -107q0 -83 32 -145t84 -103t118.5 -61.5t134.5 -20.5q70 0 136 24.5t118 68t83.5 104.5t31.5 133q0 28 -3.5 41.5t-11.5 31.5
l-2 5q-33 -22 -67 -36.5t-66 -22.5q0 -58 -17.5 -100.5t-47 -70.5t-68.5 -41.5t-82 -13.5q-35 0 -72.5 10t-69.5 34t-52.5 63.5t-20.5 98.5q0 34 15 54.5t35.5 31.5t42 14.5t35.5 3.5h257q37 10 65 24.5t50 31.5q-38 26 -86.5 35t-102.5 9h-200zM717 779q50 0 102.5 -15.5
t98.5 -50.5q3 9 5.5 21t4 24t2 23t0.5 18q0 44 -32 70.5t-89 26.5q-54 0 -90.5 -31t-59.5 -86h58zM561 338q27 0 49.5 5t39 19t25.5 40.5t9 69.5h-129q-26 0 -47 -0.5t-37 -5t-24.5 -13.5t-8.5 -25q0 -27 10.5 -44t28 -27.5t39.5 -14.5t45 -4z" />
    <glyph glyph-name="sin_sa.i" unicode="&#xdc3;&#xdd2;" horiz-adv-x="1400" 
d="M65 768h129q3 43 17 82t37 71t54 55.5t69 35.5q-35 35 -58.5 80t-23.5 103q0 78 36 135.5t94.5 95.5t132.5 56.5t150 18.5q78 0 152.5 -19t132.5 -57t93 -95.5t35 -134.5q0 -61 -22.5 -104.5t-54.5 -75.5q52 -13 86.5 -42t55 -67t29 -81t8.5 -85h-128q0 28 -5 55.5
t-19 50t-39 36.5t-65 14q-22 0 -42.5 -6.5t-37 -21.5t-26.5 -39.5t-11 -60.5h73q72 0 134 -26t107.5 -73t71 -114t25.5 -148q0 -101 -30 -177.5t-78 -127.5t-108 -76.5t-119 -25.5q-47 0 -82 13.5t-61 33t-43.5 41.5t-28.5 40q-11 -18 -28.5 -40t-43.5 -41.5t-61.5 -33
t-81.5 -13.5q-61 0 -121 28.5t-107.5 81t-77 128t-29.5 169.5v5q0 66 19 124t53 104h-162v128zM702 1383q-45 0 -95.5 -10t-94 -32.5t-72 -58t-28.5 -87.5q0 -24 8.5 -44.5t21 -37t26.5 -28.5t25 -20l-38 -41q58 -1 101 -18.5t71.5 -54t43 -94t14.5 -139.5q0 -36 -3 -78
h-196q-38 0 -74.5 -14t-65 -42.5t-46 -71.5t-17.5 -102q0 -82 23.5 -136t56.5 -86.5t68.5 -46t60.5 -13.5q18 0 44 6.5t49 23.5t39.5 46.5t16.5 76.5v69h128v-69q0 -47 16.5 -76.5t39.5 -46.5t49 -23.5t44 -6.5q16 0 38 5t45 17.5t46 33.5t41 52t29 73.5t11 98.5
q0 60 -18.5 103.5t-48.5 72t-68 42.5t-77 14h-196q-1 15 -1.5 29.5t-0.5 28.5q0 85 18 146t49 100t73 58.5t90 21.5l-37 41q11 8 25 20t26.5 28.5t21 37t8.5 44.5q0 51 -29 87t-72.5 58.5t-94 32.5t-94.5 10zM558 768q0 39 -9.5 63.5t-25.5 39t-37 20t-43 5.5q-28 0 -49 -11
t-35.5 -29t-23.5 -41t-12 -47h235z" />
    <glyph glyph-name="sin_ha.i" unicode="&#xdc4;&#xdd2;" horiz-adv-x="1599" 
d="M450 764q3 11 4 22.5t1 17.5q0 52 -33 74.5t-99 22.5q-33 0 -54 -8.5t-33 -22t-16.5 -30.5t-4.5 -33t4 -27h-123q-6 24 -6 48q0 40 15.5 75.5t45 62.5t73 42.5t99.5 15.5q133 0 193.5 -59t60.5 -169q0 -62 -22 -140q-173 0 -267.5 -60t-94.5 -188q0 -71 28.5 -123t75 -87
t106.5 -52t123 -17q84 0 152 22.5t115 62t72.5 92.5t25.5 113q0 49 -8.5 80t-22 48.5t-31.5 24t-37 6.5q-11 0 -25.5 -3.5t-28.5 -13.5t-25.5 -26.5t-17.5 -42.5h-123v61q0 92 30.5 177t88.5 150.5t140.5 104.5t186.5 39q81 0 145 -23.5t112.5 -63t82.5 -91t55.5 -108
t31 -114.5t9.5 -109q0 -119 -34.5 -214.5t-95.5 -162t-143.5 -102.5t-178.5 -36v123q46 4 102.5 23.5t105.5 63.5t82.5 117.5t33.5 184.5q0 90 -26.5 161.5t-70 121t-98 75.5t-111.5 26q-58 0 -107 -19t-87.5 -50.5t-66.5 -73t-44 -86.5q25 20 52.5 28.5t49.5 8.5
q43 0 80 -16.5t64 -51t42 -88.5t15 -129q0 -66 -20.5 -123t-56.5 -103.5t-84 -82.5t-103 -60.5t-114 -37t-116 -12.5q-121 0 -207.5 36.5t-142.5 96t-82.5 135t-26.5 152.5q0 33 7.5 70.5t25.5 74.5t47 71t72 61t100.5 45t132.5 22zM1013 1383q-45 0 -95.5 -10t-94 -32.5
t-72 -58t-28.5 -87.5q0 -24 8.5 -44.5t21 -37t26.5 -28.5t25 -20l-81 -89q-25 19 -47 42.5t-39 50.5t-27 58.5t-10 67.5q0 78 36 135.5t94.5 95.5t132.5 56.5t150 18.5q78 0 152.5 -19t132.5 -57t93 -95.5t35 -134.5q0 -41 -10 -73.5t-27.5 -58.5t-39.5 -47.5t-46 -39.5
l-81 89q11 8 25 20t26.5 28.5t21 37t8.5 44.5q0 51 -29 87t-72.5 58.5t-94 32.5t-94.5 10z" />
    <glyph glyph-name="sin_lla.i" unicode="&#xdc5;&#xdd2;" horiz-adv-x="1456" 
d="M1196 676h-737q-66 0 -123 -34q4 -135 37 -232.5t84.5 -160t116 -92t131.5 -29.5q48 0 94 18t87 49t75 73t59 89t39 97.5t14 98.5h123q0 -44 -12 -101.5t-38 -119t-65 -121t-94 -106.5t-125 -76t-157 -29q-117 0 -201.5 41t-142 110.5t-91 161.5t-46.5 193
q-31 -73 -31 -165q0 -138 39 -258.5t107.5 -210t162 -141t203.5 -51.5q97 0 177 39.5t142 102.5t105 142t67 159l115 -47q-17 -59 -44.5 -121t-66.5 -120t-89 -109.5t-111.5 -90t-135 -61t-158.5 -22.5q-137 0 -254 57t-203 160.5t-135 249t-49 322.5q0 52 9.5 102.5
t28.5 97.5t46.5 88.5t63.5 74.5q3 54 16 102t34.5 87.5t50.5 68.5t64 45q-37 36 -62 82t-25 106q0 78 36 135.5t94.5 95.5t132.5 56.5t150 18.5q78 0 152.5 -19t132.5 -57t93 -95.5t35 -134.5q0 -65 -25 -110t-60 -78q37 -17 67.5 -48.5t52 -75t33 -96t11.5 -111.5z
M704 1383q-45 0 -95.5 -10t-94 -32.5t-72 -58t-28.5 -87.5q0 -24 8.5 -44.5t21 -37t26.5 -28.5t25 -20l-38 -41q53 0 95.5 -18t74 -48.5t51.5 -71.5t27 -87q7 46 26.5 86.5t50.5 71t73 48.5t95 19l-37 41q11 8 25 20t26.5 28.5t21 37t8.5 44.5q0 51 -29 87t-72.5 58.5
t-94 32.5t-94.5 10zM459 799h143q-23 55 -56 75.5t-81 20.5q-47 0 -76 -29.5t-42 -83.5q53 17 112 17zM944 895q-48 0 -81 -20.5t-56 -75.5h259q-17 45 -48 70.5t-74 25.5z" />
    <glyph glyph-name="sin_fa.i" unicode="&#xdc6;&#xdd2;" horiz-adv-x="1362" 
d="M577 601q0 47 -8.5 99t-30 95.5t-59 72t-94.5 28.5q-48 0 -84 -26.5t-60 -71.5t-36 -106t-12 -130q0 -87 26.5 -165.5t70.5 -138t102 -95t121 -35.5v-128q-72 0 -132.5 24t-110.5 65t-88 96t-64 117.5t-39.5 129t-13.5 130.5q0 101 19 178.5t52 133.5t77.5 90.5
t95.5 48.5q-35 35 -58 80t-23 102q0 78 36 135.5t94.5 95.5t132.5 56.5t150 18.5q78 0 152.5 -19t132.5 -57t93 -95.5t35 -134.5q0 -62 -22.5 -105.5t-55.5 -75.5q50 -14 94 -46.5t76.5 -88t51.5 -134t19 -183.5q0 -64 -13.5 -130.5t-39.5 -129t-64 -117.5t-88 -96t-111 -65
t-132 -24v128q63 0 121 35.5t102 95t70.5 138t26.5 165.5q0 74 -12 135.5t-36 105.5t-60 68.5t-84 24.5q-57 0 -94.5 -28.5t-59 -72t-30 -95.5t-8.5 -99v-122h-128v122zM641 1383q-45 0 -95.5 -10t-94 -32.5t-72 -58t-28.5 -87.5q0 -24 8.5 -44.5t21 -37t26.5 -28.5t25 -20
l-38 -41q60 -2 103.5 -22t73 -49.5t46 -64t24.5 -64.5q7 30 23.5 64.5t46 64t73 49.5t103.5 22l-37 41q11 8 25 20t26.5 28.5t21 37t8.5 44.5q0 51 -29 87t-72.5 58.5t-94 32.5t-94.5 10z" />
    <glyph glyph-name="sin_ka.ii" unicode="&#xd9a;&#xdd3;" horiz-adv-x="1607" 
d="M361 719q35 26 50 53t15 50q0 32 -23 53t-56 21q-32 0 -58 -23t-26 -72v-64h-123v64q0 50 15.5 91t43 70.5t65.5 45.5t83 16q33 0 66.5 -12t60.5 -34t45.5 -53t23.5 -69l78 59q34 25 75 45.5t84.5 34.5t87 21.5t82.5 7.5q63 0 125.5 -14.5t119.5 -43.5t105.5 -73
t84.5 -103t56.5 -133.5t20.5 -164.5q0 -124 -32.5 -210.5t-81 -144.5t-104.5 -90t-102 -47l-39 121q71 27 116 70t70.5 94t35 105t9.5 102q0 83 -25.5 156.5t-75.5 128.5t-124 87t-172 32q-25 0 -54 -3.5t-58.5 -11t-56.5 -18.5t-48 -27l-51 -38q5 0 9 0.5t9 0.5
q102 0 183 -34t137 -94t86 -142t30 -179q0 -98 -25.5 -165t-65.5 -108t-89 -59t-96 -18q-48 0 -85 12.5t-64 31t-44 40t-24 39.5q-14 -23 -35.5 -45.5t-49 -39.5t-60.5 -27.5t-69 -10.5q-63 0 -111.5 18t-82 51t-51 79t-17.5 102q0 20 6 42t15.5 42t22 37.5t26.5 29.5h-84
l-80 91zM357 492v-91q-44 -30 -62 -69t-18 -70q0 -42 14.5 -69t37 -42.5t49 -21.5t50.5 -6q33 0 58.5 13t43.5 35t27 50.5t9 59.5v69h128v-69q0 -40 12.5 -70t33.5 -49.5t48.5 -29t58.5 -9.5q29 0 56.5 12t49 39t34.5 70.5t13 105.5q0 75 -22.5 135.5t-67.5 103t-112 65
t-156 22.5q-23 0 -49.5 -2t-54.5 -8.5t-57.5 -19.5t-57.5 -34l-160 -120h94zM961 1382q-75 0 -144 -9.5t-121 -31.5t-83 -56.5t-31 -83.5q0 -25 10 -49t24 -44t29 -34.5t25 -21.5l-88 -71q-14 12 -35 32.5t-40.5 49t-33.5 66.5t-14 85q0 76 40.5 130.5t108 89t154.5 51
t179 16.5q110 0 198 -21t150 -58.5t95.5 -89t33.5 -112.5q0 -38 -14.5 -75t-43 -66t-70.5 -47t-97 -18q-53 0 -93 16t-66 44.5t-39 68.5t-13 89q0 34 16 75.5t41 69.5q-21 2 -41 3.5t-37 1.5zM1104 1238q0 -20 5.5 -39t16.5 -33t28 -22.5t41 -8.5t42 8.5t30 22t18 30.5t6 35
q0 22 -10.5 41t-28.5 34t-42.5 26.5t-51.5 20.5q-23 -23 -38.5 -53t-15.5 -62z" />
    <glyph glyph-name="sin_kha.ii" unicode="&#xd9b;&#xdd3;" horiz-adv-x="1520" 
d="M914 1438q0 36 10.5 63.5t26.5 47.5h-274q-42 0 -91.5 -0.5t-100 -4t-98 -11t-84 -21.5t-58.5 -36t-22 -53q0 -32 22.5 -53t56.5 -33t73.5 -17t72.5 -5h225q184 0 317 -41t218.5 -123t126 -203.5t40.5 -281.5q0 -84 -9.5 -166t-29 -156t-47.5 -137t-65.5 -109t-84 -72
t-101.5 -26q-25 0 -54 15t-57.5 33l-53.5 33t-42 15q-13 0 -20 -10t-7 -36q0 -10 1.5 -22.5t3.5 -27.5h-133q-5 39 -7.5 73t-2.5 65q0 69 11 121t27 93t35.5 74.5t35.5 66.5t27 68t11 79q0 75 -26.5 124t-67 78.5t-88.5 41.5t-91 12q-81 0 -145.5 -30t-110 -84t-70 -128
t-24.5 -161q0 -68 11.5 -130t33 -112t53.5 -84t73 -46q-68 77 -68 180q0 46 13.5 81.5t35 60t49 37t56.5 12.5q43 0 77.5 -20.5t58 -53.5t36 -73.5t12.5 -80.5q0 -53 -15.5 -101t-45 -84t-72 -57.5t-96.5 -21.5q-86 0 -149.5 42.5t-105 112t-62 158.5t-20.5 183
q0 107 32.5 203t94 168t150 114.5t199.5 42.5q72 0 142.5 -22t127 -69t91 -119.5t34.5 -173.5q0 -73 -22 -134t-48 -112l-48 -93.5t-22 -78.5q0 -3 0.5 -5.5t0.5 -5.5q28 11 49 11q31 0 56.5 -14.5t48.5 -32.5t46 -32.5t49 -14.5q45 0 82.5 46.5t63.5 122.5t40.5 172.5
t14.5 196.5q0 135 -32.5 234.5t-102 165.5t-178.5 98t-263 32h-223q-66 0 -128 13.5t-110 41.5t-77.5 70.5t-29.5 101.5q0 81 47 129.5t126 74.5t183 34t218 8h278q200 0 302 -54t102 -176q0 -38 -17 -72t-47 -59.5t-71 -40.5t-90 -15q-46 0 -86 12.5t-70 36.5t-47 58.5
t-17 78.5zM1232 1438q0 25 -11.5 43.5t-30.5 31t-44.5 19.5t-53.5 11q-26 -21 -46.5 -47t-20.5 -58q0 -36 26.5 -64.5t79.5 -28.5q22 0 40.5 8t32 21t21 29.5t7.5 34.5zM508 264q0 16 -2.5 34.5t-9 34t-18.5 26t-31 10.5q-28 -2 -45 -24.5t-17 -59.5q0 -42 18 -81.5
t55 -62.5q14 11 23.5 26.5t15.5 32t8.5 33.5t2.5 31z" />
    <glyph glyph-name="sin_ga.ii" unicode="&#xd9c;&#xdd3;" 
d="M554 492h-123v61q0 92 29 177t84.5 150.5t135.5 104.5t181 39q108 0 187 -46.5t130.5 -120.5t77 -165t25.5 -180q0 -131 -29.5 -227t-84.5 -159.5t-132.5 -94.5t-173.5 -31v123q46 4 97.5 20t94.5 58t71.5 116.5t28.5 194.5q0 90 -25.5 162t-66.5 122.5t-93.5 77.5
t-106.5 27q-59 0 -106 -20t-83.5 -52.5t-61.5 -75t-39 -87.5q24 22 49.5 31.5t48.5 9.5q49 0 85.5 -28.5t60.5 -73t35.5 -99t11.5 -106.5q0 -86 -29 -159t-80 -126.5t-121 -84t-152 -30.5q-77 0 -137.5 23t-106.5 62t-78.5 90.5t-53 108.5t-30 115.5t-9.5 112.5
q0 128 35.5 221t95 154.5t137 94t160.5 41.5v-123q-27 -4 -60 -12.5t-66.5 -26t-64.5 -45.5t-55.5 -70t-39 -99.5t-14.5 -134.5q0 -87 23.5 -158.5t63.5 -123t91.5 -79.5t108.5 -28q64 0 112.5 23t81.5 62t50 90t17 107q0 36 -8 68.5t-21.5 57t-32 39t-39.5 14.5
q-25 0 -48.5 -21.5t-37.5 -70.5zM706 1382q-75 0 -144 -9.5t-121 -31.5t-83 -56.5t-31 -83.5q0 -25 10 -47.5t24 -40.5t29 -31t25 -20l-88 -71l-35 30.5t-40.5 45.5t-33.5 63.5t-14 83.5q0 76 40.5 130.5t108 89t154.5 51t179 16.5q110 0 198 -20.5t150 -57.5t95.5 -87.5
t33.5 -111.5q0 -38 -14.5 -74t-43 -64t-70.5 -45t-97 -17q-107 0 -159 58t-52 156q0 34 15.5 73.5t40.5 66.5q-20 2 -40 3t-37 1zM849 1244q0 -41 22 -70t69 -29q48 0 72 27.5t24 62.5q0 22 -10.5 40.5t-28.5 33.5t-42 26.5t-52 19.5q-23 -23 -38.5 -51t-15.5 -60z" />
    <glyph glyph-name="sin_gha.ii" unicode="&#xd9d;&#xdd3;" horiz-adv-x="1285" 
d="M634 1382q-75 0 -144 -9.5t-121 -31.5t-83 -56.5t-31 -83.5q0 -25 10 -47.5t24 -40.5t29 -31t25 -20l-57 -46q30 8 61 8q55 0 101 -21t80.5 -55.5t56.5 -78.5t29 -90q7 46 28.5 90t56 78t82 55t106.5 21q42 0 79.5 -15t66.5 -36t48 -42.5t24 -34.5l-61 -96
q-15 23 -34.5 41t-41.5 30t-44 18.5t-42 6.5q-63 0 -103 -30.5t-63 -85.5h58q36 0 77.5 -7t82 -22.5t78 -40.5t66 -61.5t45.5 -84.5t17 -110q0 -91 -23.5 -173t-64.5 -144.5t-97 -99t-120 -36.5q-97 0 -141.5 42t-44.5 112q0 31 14.5 50.5t31.5 37.5t31.5 38.5t14.5 53.5
q0 26 -28.5 41.5t-94.5 15.5q-72 0 -97.5 -15.5t-25.5 -41.5q0 -33 14.5 -53.5t31.5 -38.5t31.5 -37.5t14.5 -50.5q0 -70 -47 -112t-135 -42q-64 0 -120 36.5t-98 99t-66.5 144.5t-24.5 173q0 75 21 121.5t69 81.5h-121v123h446q-10 29 -27.5 51t-39.5 36.5t-46.5 21.5
t-47.5 7q-24 0 -49 -8.5t-47.5 -22.5t-41 -31t-28.5 -34l-62 96q4 7 14 20t25.5 28t35.5 30.5t46 27.5q-16 13 -35 31.5t-36 45t-28.5 60t-11.5 76.5q0 76 40.5 130.5t108 89t154.5 51t179 16.5q110 0 198 -20.5t150 -57.5t95.5 -87.5t33.5 -111.5q0 -38 -14.5 -74t-43 -64
t-70.5 -44.5t-97 -16.5q-107 0 -159 57.5t-52 155.5q0 34 15.5 73.5t40.5 66.5q-20 2 -40 3t-37 1zM514 656q-63 0 -117 -6.5t-93.5 -28t-62 -61.5t-22.5 -107q0 -78 17.5 -138.5t44.5 -102t60 -63t64 -21.5q27 2 43 14t16 38q-2 32 -17 48.5t-31.5 32t-30 39t-13.5 69.5
q0 71 65 112t181 41q58 0 103.5 -11t77 -31t48.5 -48.5t17 -62.5q0 -46 -14.5 -71t-31.5 -42l-31.5 -32.5t-14.5 -43.5q0 -13 2 -23t8 -16.5t18 -9.5t33 -3q38 0 71.5 21.5t58.5 63t39.5 102t14.5 138.5q0 68 -27 108.5t-70.5 61.5t-97.5 27t-108 6h-200zM777 1244
q0 -41 22 -70t69 -29q48 0 72 27.5t24 62.5q0 22 -10.5 40.5t-28.5 33.5t-42 26.5t-52 19.5q-23 -23 -38.5 -51t-15.5 -60z" />
    <glyph glyph-name="sin_nga.ii" unicode="&#xd9e;&#xdd3;" horiz-adv-x="1445" 
d="M1172 704q0 111 -35 201.5t-106 155t-179.5 100t-255.5 35.5h-53q-66 0 -128 13.5t-110 41.5t-77.5 70.5t-29.5 101.5q0 81 47 129.5t126 74.5t183 34t218 8h108q200 0 302 -54t102 -176q0 -38 -17 -72t-47 -59.5t-71 -40.5t-90 -15q-46 0 -86 12.5t-70 36.5t-47 58.5
t-17 78.5q0 36 10.5 63.5t26.5 47.5h-104q-42 0 -91.5 -0.5t-100 -4t-98 -11t-84 -21.5t-58.5 -36t-22 -53q0 -32 22.5 -53t56.5 -33t73.5 -17t72.5 -5h55q178 0 310 -43.5t219 -124t130 -193t43 -250.5t-20.5 -244.5t-55.5 -184.5t-80.5 -131t-95.5 -85t-101.5 -45.5
t-97.5 -13.5q-47 0 -81.5 12t-60 30.5t-42.5 40t-27 40.5q-13 -23 -35.5 -45.5t-52 -39.5t-63.5 -27.5t-70 -10.5q-70 0 -131 25.5t-106.5 75t-72 120.5t-26.5 163q0 86 36 146.5t92 99t124 56.5t133 18h120q3 4 6 12.5t5 17.5t3 17.5t1 13.5q0 78 -56.5 118.5t-174.5 40.5
h-19q8 -16 13 -41.5t5 -42.5q0 -32 -10.5 -59t-29 -46.5t-44.5 -30.5t-57 -11q-26 0 -51.5 8.5t-46 25.5t-33.5 43t-13 62q0 35 15 69.5t48.5 61.5t87.5 44t132 17q99 0 166.5 -25t109 -66.5t59 -94.5t17.5 -109q0 -18 -3.5 -38.5t-9 -41.5t-12.5 -40t-14 -33h-217
q-43 0 -89 -9.5t-83.5 -32t-62 -59.5t-24.5 -91q0 -65 17.5 -113t46.5 -79.5t68 -47.5t82 -16q31 0 59.5 12.5t49.5 34t33.5 49.5t12.5 59v69h123v-71q0 -44 16 -73.5t39.5 -47t50.5 -25t50 -7.5q25 0 58.5 10.5t69 36t70 68t62 106.5t44 151.5t16.5 203.5zM175 845
q0 -17 5 -26t12 -13.5t14.5 -5.5t12.5 -1q28 0 42 18t14 43q0 10 -3.5 26.5t-10.5 28.5q-17 -2 -32.5 -8t-27.5 -16t-19 -22t-7 -24zM1157 1438q0 25 -11.5 43.5t-30.5 31t-44.5 19.5t-53.5 11q-26 -21 -46.5 -47t-20.5 -58q0 -36 26.5 -64.5t79.5 -28.5q22 0 40.5 8t32 21
t21 29.5t7.5 34.5z" />
    <glyph glyph-name="sin_nnga.ii" unicode="&#xd9f;&#xdd3;" horiz-adv-x="1701" 
d="M1019 1382q-75 0 -144 -9.5t-121 -31.5t-83 -56.5t-31 -83.5q0 -25 10 -47.5t24 -40.5t29 -31t25 -20l-47 -38h107v-128q-27 -4 -59 -12.5t-64 -26.5t-61.5 -46t-52.5 -70.5t-36.5 -100t-13.5 -134.5q0 -87 21.5 -157.5t59 -121t87.5 -77.5t107 -27q64 0 112.5 23.5
t81.5 62.5t49.5 90t16.5 107q0 36 -8 68.5t-21.5 56.5t-32 38.5t-39.5 14.5q-25 0 -48.5 -21.5t-37.5 -70.5h-123v61q0 92 29.5 177t85.5 150.5t136.5 104.5t181.5 39q72 0 129 -24t101.5 -64.5t76 -93t51.5 -109.5t29.5 -114t9.5 -107q0 -117 -26.5 -212t-77.5 -161.5
t-125.5 -102.5t-170.5 -36v123q46 4 95 21t89.5 59.5t66.5 116.5t26 192q0 86 -22.5 157.5t-60.5 123t-87.5 80t-103.5 28.5q-59 0 -106.5 -19.5t-84 -52t-62 -75t-39.5 -88.5q24 22 49 31.5t48 9.5q49 0 85 -28.5t60 -72.5t36 -98t12 -106q0 -86 -28.5 -159.5t-79.5 -127.5
t-121 -84.5t-152 -30.5q-77 0 -136.5 22.5t-103.5 61t-74.5 89t-49 106.5t-26.5 114.5t-8 112.5q0 67 12.5 127.5t35 110.5t52.5 89t66 63h-45q-72 0 -127.5 -29t-94 -80t-58.5 -121.5t-20 -153.5q0 -81 18.5 -148t44.5 -119t54 -88t47 -53l-80 -100q-47 37 -86.5 91
t-69 119.5t-46 141t-16.5 156.5q0 104 30.5 197t87 163t137 111t179.5 41h102q-15 14 -30 32.5t-27 42t-19.5 52t-7.5 63.5q0 76 40.5 130.5t108 89t154.5 51t179 16.5q110 0 198 -20.5t150 -57.5t95.5 -87.5t33.5 -111.5q0 -38 -14.5 -74t-43 -64t-70.5 -45t-97 -17
q-107 0 -159 58t-52 156q0 34 15.5 73.5t40.5 66.5q-20 2 -40 3t-37 1zM1162 1244q0 -41 22 -70t69 -29q48 0 72 27.5t24 62.5q0 22 -10.5 40.5t-28.5 33.5t-42 26.5t-52 19.5q-23 -23 -38.5 -51t-15.5 -60z" />
    <glyph glyph-name="sin_ca.ii" unicode="&#xda0;&#xdd3;" horiz-adv-x="1363" 
d="M1218 704q0 -137 -26 -242.5t-70 -183.5t-102 -131.5t-122 -86t-130 -46.5t-126 -14q-127 0 -223 35t-160 94t-96.5 137t-32.5 164q0 30 7.5 61t20 58.5t28 51t32.5 39.5h-153v128h98q-6 24 -6 49q0 40 17 76t48.5 64t76.5 44.5t101 16.5q133 0 198.5 -61.5t65.5 -171.5
q0 -64 -23 -145h-265q-23 -12 -44.5 -34.5t-38 -50.5t-26 -60t-9.5 -64q0 -62 25.5 -117t74 -96.5t120 -65.5t164.5 -24q48 0 100 13t101.5 41t94.5 73t78.5 109t53.5 148.5t20 191.5q0 59 -20 118t-55 114t-83 102.5t-104.5 82.5t-119.5 55t-128 20h-73q-66 0 -128 13.5
t-110 41.5t-77.5 70.5t-29.5 101.5q0 81 47 129.5t126 74.5t183 34t218 8h58q200 0 302 -54t102 -176q0 -38 -17 -72t-47 -59.5t-71 -40.5t-90 -15q-46 0 -86 12.5t-70 36.5t-47 58.5t-17 78.5q0 36 10.5 63.5t26.5 47.5h-54q-42 0 -91.5 -0.5t-100 -4t-98 -11t-84 -21.5
t-58.5 -35.5t-22 -53.5t22.5 -53t56.5 -33t73.5 -17t72.5 -5h75q85 0 165.5 -25.5t151.5 -70t129.5 -103.5t100.5 -127t65.5 -141t23.5 -144zM540 768q1 7 1.5 13t0.5 12q0 52 -38 77t-104 25q-33 0 -55.5 -9.5t-36.5 -23.5t-20 -32t-6 -34q0 -17 4 -28h254zM1071 1438
q0 25 -11.5 43.5t-30.5 31t-44.5 19.5t-53.5 11q-26 -21 -46.5 -47t-20.5 -58q0 -36 26.5 -64.5t79.5 -28.5q22 0 40.5 8t32 21t21 29.5t7.5 34.5z" />
    <glyph glyph-name="sin_cha.ii" unicode="&#xda1;&#xdd3;" horiz-adv-x="1228" 
d="M561 779q3 79 26.5 162.5t74.5 156.5t134 127t205 75l43 -112q-75 -12 -127 -34.5t-86.5 -51t-55.5 -58.5t-35 -57q45 15 88 15q53 0 99.5 -20.5t81 -57.5t54.5 -88t20 -111q0 -48 -13 -92t-36 -81q3 -13 6 -21.5t4.5 -17t2.5 -19t1 -26.5q0 -44 -12.5 -95.5
t-38.5 -103.5t-65 -100.5t-93 -86t-122.5 -60t-152.5 -22.5q-94 0 -183.5 31.5t-159.5 89.5t-112.5 141t-42.5 185q0 88 26 151t72 103t109.5 59t137.5 19h43q-10 29 -27.5 51t-39.5 36.5t-46.5 21.5t-47.5 7q-24 0 -49 -8.5t-47.5 -22.5t-41 -31t-28.5 -34l-62 96
q6 10 24 30.5t47 41t68.5 36t88.5 15.5q55 0 101.5 -20t81 -53.5t56.5 -76.5t29 -89zM833 441q-49 0 -91 15t-75 43t-57 68t-37 89h-116q-63 0 -113 -9t-84.5 -33t-53 -65t-18.5 -104q0 -74 36 -133.5t91 -101.5t121.5 -64.5t127.5 -22.5q69 0 134.5 26.5t115.5 72.5
t80.5 108t30.5 134q-22 -9 -44.5 -16t-47.5 -7zM688 1582q41 0 78 -10.5t65.5 -31.5t45.5 -54t17 -78q0 -36 -16.5 -70.5t-43.5 -61.5t-62.5 -43.5t-72.5 -16.5q-85 0 -138 44.5t-63 115.5q-36 -39 -54 -78t-18 -72q0 -42 27 -69q15 -15 34 -20t37 -5t31.5 0.5l26.5 1l27 1
t33 0.5l-57 -101q-18 -5 -40 -8t-45 -3q-34 0 -67.5 9t-56.5 32q-65 65 -65 160q0 61 29.5 125.5t91.5 122.5q63 59 129.5 84.5t126.5 25.5zM960 719q0 30 -12 58.5t-32.5 50.5t-48 35t-59.5 13q-47 0 -79.5 -29t-40.5 -68h14q78 0 143.5 -21t112.5 -68q1 7 1.5 14t0.5 15z
M683 1472q-33 0 -68 -13q-9 -23 -9 -45q0 -41 23 -60t61 -19t60 21.5t22 49.5q0 19 -9 32t-22 20.5t-29 10.5t-29 3zM831 564q31 0 57 14q-28 38 -74.5 55t-109.5 21q21 -40 56.5 -65t70.5 -25z" />
    <glyph glyph-name="sin_ja.ii" unicode="&#xda2;&#xdd3;" horiz-adv-x="1204" 
d="M462 656q-63 0 -113 -8t-84.5 -30t-53 -62t-18.5 -103q0 -78 32 -139t84 -102t118 -62.5t134 -21.5q70 0 136.5 23.5t118.5 66.5t83.5 103t31.5 132q0 68 -22 108.5t-58.5 61.5t-85.5 27t-103 6h-200zM893 1010q32 -8 59.5 -23t48.5 -32t34.5 -33t17.5 -27l-61 -96
q-15 23 -34.5 41t-41.5 30t-44 18.5t-42 6.5q-63 0 -103 -30.5t-63 -85.5h58q54 0 113.5 -16t109 -54t82 -100.5t32.5 -155.5q0 -47 -13.5 -98.5t-40.5 -101.5t-68.5 -96t-96.5 -81t-124.5 -55.5t-153.5 -20.5q-123 0 -216 41.5t-155.5 107t-94 146t-31.5 158.5q0 90 27 152
t74 101t111.5 56t138.5 17h43q-10 29 -27.5 51t-39.5 36.5t-46.5 21.5t-47.5 7q-24 0 -49 -8.5t-47.5 -22.5t-41 -31t-28.5 -34l-62 96q6 10 24 30.5t47 41t68.5 36t88.5 15.5q55 0 100.5 -20t79.5 -53.5t55.5 -76.5t28.5 -89q5 37 20.5 73.5t39.5 67.5t56.5 54t73.5 34
q36 28 75 67t72.5 82.5t59 90.5t36.5 92l101 -42q-2 -42 -23 -87t-51.5 -85t-65 -71t-63.5 -45zM753 1531q41 0 78 -10.5t65.5 -31.5t45.5 -54t17 -78q0 -36 -16.5 -70.5t-43.5 -61.5t-62.5 -43.5t-72.5 -16.5q-85 0 -138 44.5t-63 115.5q-36 -39 -54 -78t-18 -72
q0 -42 27 -69q15 -15 34 -20t37 -5t31.5 0.5l26.5 1l27 1t33 0.5l-57 -101q-18 -5 -40 -8t-45 -3q-34 0 -67.5 9t-56.5 32q-65 65 -65 160q0 61 29.5 125.5t91.5 122.5q63 59 129.5 84.5t126.5 25.5zM748 1421q-33 0 -68 -13q-9 -23 -9 -45q0 -41 23 -60t61 -19t60 21.5
t22 49.5q0 19 -9 32t-22 20.5t-29 10.5t-29 3z" />
    <glyph glyph-name="sin_jha.ii" unicode="&#xda3;&#xdd3;" horiz-adv-x="2510" 
d="M503 656l-80.5 -58.5l-75 -53l-55 -38.5l-21.5 -15h78v-90q-37 -29 -53 -63.5t-16 -65.5q0 -45 14 -73t35 -44t45.5 -21.5t45.5 -5.5q37 0 65.5 12.5t47 33.5t28 48.5t9.5 58.5v69h124v-69q0 -40 12.5 -69t33.5 -47.5t48.5 -27.5t58.5 -9q29 0 57 11.5t49.5 37.5
t34.5 68.5t13 104.5q0 75 -36.5 132.5t-94.5 96t-128.5 58t-138.5 19.5h-100zM2365 621q0 -176 -33 -295t-88 -191.5t-127.5 -103.5t-151.5 -31q-47 0 -83.5 11.5t-64 29.5t-46 39.5t-28.5 40.5q-13 -23 -33 -45t-46 -39t-58 -27t-68 -10q-80 0 -145 28.5t-111.5 81.5
t-71.5 128t-25 167q0 69 16 124t42 98.5t59 76t67 56.5q-82 66 -177 100t-195 34q-84 0 -167 -34t-162 -84q94 -10 177.5 -44.5t145.5 -89.5t98 -129t36 -163q0 -98 -26 -165t-66.5 -108t-89.5 -59t-96 -18q-48 0 -84.5 12.5t-63 31t-43.5 40t-24 39.5q-14 -23 -36 -45.5
t-49.5 -39.5t-60.5 -27.5t-69 -10.5q-63 0 -112 21t-82 57.5t-50.5 85t-17.5 104.5q0 17 4 36.5t10.5 38t15 34t17.5 24.5h-62l-80 90l152 113l64 47.5l64 47.5l59 43.5l49 36.5v20q0 53 -25.5 74.5t-62.5 21.5t-63 -21t-26 -70v-65h-131v71q0 48 18.5 87.5t49 67.5t70 43.5
t81.5 15.5q32 0 65 -10.5t61 -30.5t49.5 -49t30.5 -67q108 73 218.5 111t226.5 38q133 0 269.5 -52.5t282.5 -164.5l-70 -117q-36 -15 -68.5 -39.5t-57 -59t-39 -79.5t-14.5 -101q0 -62 14.5 -113t43 -87t70 -55.5t95.5 -19.5q31 0 57.5 12.5t45.5 33.5t29.5 48.5t10.5 58.5
v69h128v-71q0 -44 15.5 -73t39 -46.5t51 -24.5t50.5 -7q25 0 55 7.5t60.5 27.5t59 55t50.5 89.5t35.5 131.5t13.5 181q0 111 -35 204t-106.5 160t-180 104.5t-255.5 37.5h-53q-66 0 -128 13.5t-110 41.5t-77.5 70.5t-29.5 101.5q0 81 47 129.5t126 74.5t183 34t218 8h108
q200 0 302 -54t102 -176q0 -38 -17 -72t-47 -59.5t-71 -40.5t-90 -15q-46 0 -86 12.5t-70 36.5t-47 58.5t-17 78.5q0 36 10.5 63.5t26.5 47.5h-104q-42 0 -91.5 -0.5t-100 -4t-98 -11t-84 -21.5t-58.5 -36t-22 -53q0 -32 22.5 -53t56.5 -33t73.5 -17t72.5 -5h55
q178 0 310 -46t219.5 -128.5t130.5 -197t43 -252.5zM2221 1368q0 25 -11.5 43.5t-30.5 31t-44.5 19.5t-53.5 11q-26 -21 -46.5 -47t-20.5 -58q0 -36 26.5 -64.5t79.5 -28.5q22 0 40.5 8t32 21t21 29.5t7.5 34.5z" />
    <glyph glyph-name="sin_nya.ii" unicode="&#xda4;&#xdd3;" horiz-adv-x="2278" 
d="M1458 721q-71 93 -133 135t-123 42q-36 0 -71.5 -12t-68.5 -30t-62.5 -39.5l-53.5 -40.5q95 -10 178.5 -44t146 -89t99 -129t36.5 -164q0 -98 -25.5 -165t-66 -108t-89.5 -59t-96 -18q-48 0 -84.5 12.5t-63 31t-43 40t-24.5 39.5q-14 -23 -36 -45.5t-49.5 -39.5
t-60.5 -27.5t-69 -10.5q-63 0 -112 21.5t-82 58.5t-50.5 86t-17.5 105q0 13 3.5 31t9.5 36t15 34.5t21 28.5h-63l-80 96l387 282v20q0 54 -25.5 76.5t-65.5 22.5q-13 0 -27 -5.5t-26 -16.5t-19.5 -29t-7.5 -42v-66h-122v78q-65 -7 -110.5 -37t-74.5 -75t-42 -100.5
t-13 -113.5q0 -55 11 -109t31.5 -103.5t48.5 -92.5t63 -76l-80 -100q-48 35 -86 87t-64.5 114t-41 131t-14.5 138q0 89 24 172.5t72.5 148t123 103.5t175.5 39h15q29 38 72 59.5t94 21.5q32 0 64.5 -10.5t60.5 -30t49 -48.5t31 -66l71.5 51.5t84.5 50.5t94.5 38t102.5 15
q79 0 160.5 -43t161.5 -149q21 49 52 85t68 60t79 35.5t84 11.5q61 0 119.5 -24t104.5 -72.5t74 -121.5t28 -170q0 -29 -3 -60q-81 29 -148 41.5t-122 12.5q-74 0 -125.5 -20.5t-84 -56t-47.5 -82t-15 -97.5q0 -54 19 -100t51 -79.5t75.5 -52.5t91.5 -19q43 0 79.5 18
t64.5 45t47 59.5t26 61.5l94 -61q-13 -61 -45 -105.5t-73.5 -74.5t-88.5 -46t-91 -19q-27 -19 -44 -43t-17 -56q0 -26 7.5 -44t22 -32t34 -24.5t43.5 -20.5l-53 -88q-17 0 -46.5 12.5t-58.5 36.5t-50 58t-21 77q0 42 18.5 77t48.5 60q-41 12 -87 36t-85 66.5t-64.5 105.5
t-25.5 152q0 66 21 133t66 120.5t114.5 87t165.5 33.5q39 0 82.5 -6t91.5 -20v9q0 27 -15 56.5t-41.5 54t-63.5 40.5t-80 16q-28 0 -56.5 -8.5t-56 -29t-53 -54.5t-47.5 -85h-127zM777 656l-218 -159h73v-96q-19 -9 -32.5 -24t-22.5 -32t-13.5 -35.5t-4.5 -33.5
q0 -42 13 -71.5t33.5 -47.5t45 -26t48.5 -8q38 0 66.5 13t48 35t29.5 50.5t10 59.5v69h123v-69q0 -40 12.5 -70t33.5 -49.5t48.5 -29t58.5 -9.5q29 0 57 12t49.5 39t34.5 70.5t13 105.5q0 50 -17 92.5t-46 76.5t-68 59.5t-83 43t-91 26t-92 8.5h-109zM1749 1382
q-145 0 -217 -43.5t-72 -125.5q0 -29 10 -54t24 -44t29 -32.5t25 -20.5l-88 -71l-35 31t-40.5 47t-33.5 64t-14 82q0 66 26.5 119t77 90t124.5 57t169 20q106 0 182 -22.5t125 -59.5t72 -85t23 -98q0 -38 -14.5 -75.5t-43 -67.5t-70.5 -48.5t-97 -18.5q-53 0 -93 16
t-66 43.5t-39 64.5t-13 79q0 19 4.5 40.5t12.5 42t18.5 38.5t23.5 31h-2q-2 0 -4 0.5t-4 0.5zM1822 1244q0 -41 22 -70t69 -29q48 0 72 27.5t24 62.5q0 22 -10 43t-27 37.5t-40.5 28.5t-51.5 17q-23 -23 -40.5 -54t-17.5 -63z" />
    <glyph glyph-name="sin_jnya.ii" unicode="&#xda5;&#xdd3;" horiz-adv-x="2094" 
d="M1336 865q19 39 47.5 68.5t63.5 49.5t74.5 30t81.5 10q63 0 124 -23.5t110 -71.5t79 -121t30 -172q0 -29 -3 -59q-81 29 -148 41.5t-122 12.5q-74 0 -125.5 -20.5t-84 -56t-47.5 -82t-15 -97.5q0 -54 19 -100t51 -79.5t75.5 -52.5t91.5 -19q43 0 79.5 18t64.5 45t47 59.5
t26 61.5l94 -61q-13 -61 -45 -105.5t-73.5 -74.5t-88.5 -46t-91 -19q-27 -19 -44 -43t-17 -56q0 -26 7.5 -44t22 -32t34 -24.5t43.5 -20.5l-53 -88q-17 0 -46.5 12.5t-58.5 36.5t-50 58t-21 77q0 42 18.5 77t48.5 60q-41 12 -87 36t-85 66.5t-64.5 105.5t-25.5 152
q0 66 21 133t66 120.5t114.5 87t165.5 33.5q39 0 82.5 -6t91.5 -20v8q0 28 -12.5 58t-39 55t-67 41t-96.5 16q-27 0 -54.5 -8t-54 -25t-49.5 -45.5t-41 -68.5q0 -1 -20 -1h-44h-64q-9 30 -27 57t-43.5 47t-57 32t-66.5 12q-48 0 -86 -17.5t-64.5 -50.5t-41.5 -79.5
t-18 -103.5q27 32 57.5 45t56.5 13q49 0 85 -28.5t60 -72.5t36 -98t12 -106q0 -86 -28.5 -159.5t-79.5 -127.5t-121 -84.5t-152 -30.5q-77 0 -138.5 23t-108.5 62t-81 90.5t-55.5 108.5t-31.5 115.5t-10 112.5q0 134 42.5 232t122.5 152h-38q-72 0 -128 -29t-94.5 -80
t-58.5 -121.5t-20 -153.5q0 -81 18.5 -147t44.5 -117t54 -86t47 -52l-80 -100q-47 37 -86 90t-67.5 117.5t-44.5 139t-16 155.5q0 104 30 197t86 163t136 111t179 41h289v-128q-41 -5 -91 -22.5t-94 -59.5t-73.5 -114.5t-29.5 -187.5q0 -87 25 -158t66 -121t94.5 -77.5
t110.5 -27.5q64 0 112.5 22.5t81.5 60.5t50 88.5t17 106.5q0 36 -8 68.5t-21.5 56.5t-32 38.5t-39.5 14.5q-25 0 -48.5 -21.5t-37.5 -70.5h-123v147q0 74 22.5 143.5t65.5 123t105 86t140 32.5q33 0 70 -7t72 -25t65.5 -49t51.5 -78zM1615 1382q-145 0 -217 -43.5
t-72 -125.5q0 -29 10 -54t24 -44t29 -32.5t25 -20.5l-88 -71l-35 31t-40.5 47t-33.5 64t-14 82q0 66 26.5 119t77 90t124.5 57t169 20q106 0 182 -22.5t125 -59.5t72 -85t23 -98q0 -38 -14.5 -75.5t-43 -67.5t-70.5 -48.5t-97 -18.5q-53 0 -93 16t-66 43.5t-39 64.5t-13 79
q0 19 4.5 40.5t12.5 42t18.5 38.5t23.5 31h-2q-2 0 -4 0.5t-4 0.5zM1688 1244q0 -41 22 -70t69 -29q48 0 72 27.5t24 62.5q0 22 -10 43t-27 37.5t-40.5 28.5t-51.5 17q-23 -23 -40.5 -54t-17.5 -63z" />
    <glyph glyph-name="sin_nyja.ii" unicode="&#xda6;&#xdd3;" horiz-adv-x="1411" 
d="M959 1008q36 28 75 67t72.5 82.5t59 90.5t36.5 92l101 -42q-2 -42 -23 -87t-51.5 -85t-65 -71t-63.5 -45q32 -8 59.5 -23t48.5 -32t34.5 -33t17.5 -27l-61 -96q-15 23 -34.5 41t-41.5 30t-44 18.5t-42 6.5q-63 0 -103 -30.5t-63 -85.5h58q54 0 113.5 -16t109 -54
t82 -100.5t32.5 -155.5q0 -47 -13.5 -98.5t-40.5 -101.5t-68.5 -96t-96.5 -81t-124.5 -55.5t-153.5 -20.5q-123 0 -216 40.5t-155.5 105t-94 145.5t-31.5 162q0 93 27 155.5t74 100.5t111.5 54t138.5 16h43q-20 59 -63.5 88t-89.5 29q-84 0 -144.5 -33.5t-99.5 -85
t-57.5 -114.5t-18.5 -122q0 -36 3 -79.5t14.5 -94.5t34.5 -108.5t63 -121.5l-96 -78q-17 22 -42.5 66.5t-48.5 106.5t-39.5 140.5t-16.5 168.5q0 55 12.5 112.5t37.5 111t62 101t87 82.5t112 55.5t137 20.5q55 0 99.5 -21t76.5 -55.5t52.5 -78.5t27.5 -90q5 37 20.5 73.5
t39.5 67.5t56.5 54t73.5 34zM669 656q-63 0 -113 -6.5t-84.5 -28t-53 -61.5t-18.5 -107q0 -83 32 -144.5t84 -101.5t118 -59.5t134 -19.5q70 0 136.5 23.5t118.5 66.5t83.5 103t31.5 132q0 68 -22 108.5t-58.5 61.5t-85.5 27t-103 6h-200zM960 1531q41 0 78 -10.5
t65.5 -31.5t45.5 -54t17 -78q0 -36 -16.5 -70.5t-43.5 -61.5t-62.5 -43.5t-72.5 -16.5q-85 0 -138 44.5t-63 115.5q-36 -39 -54 -78t-18 -72q0 -42 27 -69q15 -15 34 -20t37 -5t31.5 0.5l26.5 1l27 1t33 0.5l-57 -101q-18 -5 -40 -8t-45 -3q-34 0 -67.5 9t-56.5 32
q-65 65 -65 160q0 61 29.5 125.5t91.5 122.5q63 59 129.5 84.5t126.5 25.5zM955 1421q-33 0 -68 -13q-9 -23 -9 -45q0 -41 23 -60t61 -19t60 21.5t22 49.5q0 19 -9 32t-22 20.5t-29 10.5t-29 3z" />
    <glyph glyph-name="sin_tta.ii" unicode="&#xda7;&#xdd3;" horiz-adv-x="1298" 
d="M1153 683q0 -151 -29 -260.5t-76.5 -185.5t-107 -122.5t-120.5 -72t-117.5 -34t-97.5 -8.5q-118 0 -217 40t-171 111.5t-112 169t-40 212.5q0 59 14 119t42 114.5t70.5 101.5t99.5 81.5t128.5 54.5t157.5 20v-128q-96 0 -168 -30.5t-120 -81t-72 -116t-24 -136.5
q0 -87 28 -161t81 -128t129.5 -84.5t173.5 -30.5q25 0 66 4.5t87.5 22t94 53t86 97t62.5 154t24 224.5q0 63 -18 125.5t-50 119.5t-77 106t-99 85t-115 56.5t-126 20.5h-73q-66 0 -128 18t-110 52t-77.5 81t-29.5 106q0 81 47 125t126 64t183 23.5t218 3.5h58q200 0 302 -54
t102 -176q0 -38 -17 -72t-47 -59.5t-71 -40.5t-90 -15q-46 0 -86 12.5t-70 36.5t-47 58.5t-17 78.5q0 36 10.5 63.5t26.5 47.5h-54q-42 0 -91.5 -0.5t-100 -4t-98 -11t-84 -21.5t-58.5 -35.5t-22 -53.5t22.5 -53t56.5 -33t73.5 -17t72.5 -5h75q85 0 164 -25.5t146.5 -70
t123 -105t95 -130.5t61 -147t21.5 -154zM1031 1438q0 25 -11.5 43.5t-30.5 31t-44.5 19.5t-53.5 11q-26 -21 -46.5 -47t-20.5 -58q0 -36 26.5 -64.5t79.5 -28.5q22 0 40.5 8t32 21t21 29.5t7.5 34.5z" />
    <glyph glyph-name="sin_ttha.ii" unicode="&#xda8;&#xdd3;" horiz-adv-x="1376" 
d="M423 0q-75 0 -140.5 37.5t-114 103.5t-76 156.5t-27.5 195.5q0 102 27.5 195.5t79 166.5t126.5 118t170 51v-129q-72 -7 -123.5 -42t-85.5 -90t-50 -125t-16 -146q0 -75 16 -141t46 -115.5t72 -78.5t94 -29q31 0 56.5 11t43 30.5t27 47t9.5 59.5v74h129v-69
q0 -47 16 -76.5t39 -46.5t48 -23.5t44 -6.5q52 0 99 32t81.5 90.5t55 141.5t20.5 185q0 126 -39.5 244t-102.5 221q-32 -32 -76 -54.5t-96 -22.5q-51 0 -95.5 16.5t-78 48t-53 77t-19.5 103.5q0 29 3.5 54t8.5 49l10 49.5t7 55.5q-29 15 -59 24l43 106q90 -29 175 -82
t160 -124.5t137.5 -159.5t107.5 -186t70 -204.5t25 -215.5q0 -115 -27 -219.5t-76.5 -183.5t-121 -126t-159.5 -47q-47 0 -81.5 12.5t-59.5 31.5t-41.5 40t-26.5 39q-12 -21 -31.5 -42.5t-45 -39.5t-57 -29.5t-67.5 -11.5zM789 1585q-93 0 -169.5 -10.5t-131 -32t-85 -55.5
t-30.5 -80q0 -25 13.5 -47t34.5 -39.5t47 -29t52 -16.5v-131q-57 10 -106 35t-85.5 61t-57 80.5t-20.5 91.5q0 76 43 130.5t116.5 89t171.5 51t207 16.5q113 0 212.5 -27.5t173 -73.5t116 -106t42.5 -125q0 -35 -8.5 -72.5t-29 -68t-54 -50.5t-84.5 -20q-46 0 -82.5 16
t-62 43t-39 63.5t-13.5 77.5q0 15 4 37t14 47t25.5 49t38.5 43q-32 13 -66 22.5t-67 16.5t-64 10.5t-56 3.5zM652 1210q0 -19 7.5 -40.5t22.5 -40t38 -30.5t55 -12q38 0 63.5 15t43.5 36q-48 63 -100 114.5t-106 92.5q-7 -37 -15.5 -70t-8.5 -65zM1070 1367q0 -41 21 -65
t59 -24q19 0 32 8.5t21 21t11.5 28t3.5 29.5q0 35 -23.5 65.5t-61.5 55.5q-26 -23 -44.5 -55.5t-18.5 -63.5z" />
    <glyph glyph-name="sin_dda.ii" unicode="&#xda9;&#xdd3;" horiz-adv-x="1466" 
d="M540 779q1 7 1.5 13t0.5 12q0 52 -38 77t-104 25q-33 0 -55.5 -9.5t-36.5 -23.5t-20 -32t-6 -34q0 -17 4 -28h254zM1321 656q0 -137 -19.5 -239t-52.5 -175t-76.5 -120t-91.5 -74t-98.5 -37.5t-96.5 -10.5q-29 0 -59.5 8t-58 23.5t-50.5 38.5t-36 53q-37 -63 -99 -93
t-134 -30q-80 0 -143.5 30.5t-108 84t-68.5 126t-24 156.5q0 35 8.5 72t23.5 70.5t35.5 62.5t43.5 49h-151v128h98q-6 24 -6 49q0 40 17 76t48.5 64t76.5 44.5t101 16.5q133 0 198.5 -61.5t65.5 -171.5q0 -64 -23 -145h-273q-30 -22 -54.5 -51.5t-42.5 -62.5t-28 -68.5
t-10 -68.5q0 -56 13.5 -105.5t40.5 -86.5t67.5 -58.5t94.5 -21.5q31 0 61.5 10.5t54 30.5t38 48.5t14.5 65.5v69h128v-69q0 -41 13.5 -70.5t34 -48t45.5 -27.5t48 -9q25 0 57.5 6.5t67 26.5t67 56t58.5 94.5t41.5 143t15.5 201.5q0 111 -35 209t-106.5 171.5t-180 116.5
t-255.5 43h-53q-66 0 -128 13.5t-110 41.5t-77.5 70.5t-29.5 101.5q0 81 47 129.5t126 74.5t183 34t218 8h108q200 0 302 -54t102 -176q0 -38 -17 -72t-47 -59.5t-71 -40.5t-90 -15q-46 0 -86 12.5t-70 36.5t-47 58.5t-17 78.5q0 36 10.5 63.5t26.5 47.5h-104
q-42 0 -91.5 -0.5t-100 -4t-98 -11t-84 -21.5t-58.5 -36t-22 -53q0 -32 22.5 -53t56.5 -33t73.5 -17t72.5 -5h55q178 0 310 -51t219.5 -140.5t130.5 -209.5t43 -258zM1177 1438q0 25 -11.5 43.5t-30.5 31t-44.5 19.5t-53.5 11q-26 -21 -46.5 -47t-20.5 -58q0 -36 26.5 -64.5
t79.5 -28.5q22 0 40.5 8t32 21t21 29.5t7.5 34.5z" />
    <glyph glyph-name="sin_ddha.ii" unicode="&#xdaa;&#xdd3;" horiz-adv-x="1391" 
d="M65 651v128h98q-6 24 -6 49q0 40 17 76t48.5 64t76.5 44.5t101 16.5q133 0 198.5 -61.5t65.5 -171.5q0 -64 -23 -145h-265q-22 -19 -47 -49t-46.5 -66.5t-35.5 -77.5t-14 -83q0 -55 13 -100.5t38 -78t60.5 -50.5t80.5 -18q31 0 61 11t53.5 30.5t37.5 47t14 59.5v74h123
v-51q0 -53 18 -86.5t43 -52.5t52.5 -25.5t45.5 -6.5q43 0 88.5 20.5t83 66t61 119t23.5 178.5q0 158 -41.5 287.5t-110.5 236.5q-31 -34 -75 -55t-93 -21q-51 0 -97 19t-81.5 52.5t-56.5 80.5t-21 104q0 35 4.5 56t10 38.5l11.5 37t9 52.5q-17 11 -33 20l-33 18l51 110
q149 -73 274.5 -176t216.5 -234t142 -288t51 -338q0 -123 -29.5 -218.5t-81 -160.5t-121.5 -99t-152 -34q-42 0 -77 12.5t-63 31.5t-47.5 40t-30.5 39q-12 -21 -32.5 -42.5t-49.5 -39.5t-66 -29.5t-82 -11.5q-72 0 -131 26t-101 74.5t-65 118t-23 156.5q0 38 9.5 76t25 73.5
t36 68t42.5 58.5h-153zM799 1585q-93 0 -169.5 -10.5t-131 -32t-85 -55.5t-30.5 -80q0 -25 13.5 -47t34.5 -39.5t47 -29t52 -16.5v-131q-57 10 -106 35t-85.5 61t-57 80.5t-20.5 91.5q0 76 43 130.5t116.5 89t171.5 51t207 16.5q113 0 212.5 -27.5t173 -73.5t116 -106
t42.5 -125q0 -35 -8.5 -72.5t-29 -68t-54 -50.5t-84.5 -20q-46 0 -82.5 16t-62 43t-39 63.5t-13.5 77.5q0 15 4 37t14 47t25.5 49t38.5 43q-32 13 -66 22.5t-67 16.5t-64 10.5t-56 3.5zM681 1216q0 -19 8 -41.5t24.5 -41.5t40 -32t55.5 -13q35 0 58.5 13t37.5 33
q-46 56 -97.5 103t-105.5 88q-8 -29 -14.5 -55.5t-6.5 -53.5zM540 779q1 7 1.5 13t0.5 12q0 52 -38 77t-104 25q-33 0 -55.5 -9.5t-36.5 -23.5t-20 -32t-6 -34q0 -17 4 -28h254zM1080 1367q0 -41 21 -65t59 -24q19 0 32 8.5t21 21t11.5 28t3.5 29.5q0 35 -23.5 65.5
t-61.5 55.5q-26 -23 -44.5 -55.5t-18.5 -63.5z" />
    <glyph glyph-name="sin_nna.ii" unicode="&#xdab;&#xdd3;" horiz-adv-x="1873" 
d="M1117 1382q-75 0 -144 -9.5t-121 -31.5t-83 -56.5t-31 -83.5q0 -34 17 -62.5t37 -48.5l219 262l84 -84l-22.5 -26.5l-61 -72.5l-90.5 -107.5l-110 -131.5l25 -23.5t27.5 -29.5t25.5 -34.5t20 -37.5q6 48 22 88t41 69t59 45.5t76 16.5q74 0 118 -35.5t55 -92.5
q7 29 23 52.5t37.5 40.5t47 26t51.5 9t57.5 -7t63.5 -26t62 -51t53.5 -81.5t38 -119.5t14.5 -163q0 -136 -35.5 -243t-98 -181t-146 -113t-179.5 -39q-72 0 -125 21t-88.5 50t-55 60.5t-25.5 52.5l113 63q49 -119 181 -119q61 0 120.5 25t106.5 79t75.5 139t28.5 205
q0 51 -6.5 107.5t-23.5 104t-48.5 78t-80.5 30.5q-22 0 -40 -12t-30.5 -33.5t-19.5 -50.5t-7 -63v-245h-128v243q0 46 -8.5 77t-23.5 49.5t-35 26.5t-42 8q-30 0 -54.5 -24t-42 -66t-27.5 -99t-11 -124q2 -22 2.5 -44.5t0.5 -46.5q0 -58 -12 -117t-36 -113.5t-60 -102.5
t-83.5 -83t-107.5 -55.5t-131 -20.5q-35 0 -57.5 9.5t-44 21t-46.5 21t-65 9.5q-31 0 -62.5 -14.5t-62.5 -46.5h-93q-7 11 -15.5 27t-16 35t-12.5 40.5t-5 45.5q0 30 10.5 62.5t38.5 65.5l116 139q-26 41 -40 91t-14 108q0 69 23.5 141t72.5 130.5t124 95.5t179 37
q29 0 63 -6.5t71 -21.5l12 14q-15 13 -33.5 32t-34.5 44.5t-27 58.5t-11 75q0 76 40.5 130.5t108 89t154.5 51t179 16.5q110 0 198 -20.5t150 -57.5t95.5 -87.5t33.5 -111.5q0 -38 -14.5 -74t-43 -63.5t-70.5 -44t-97 -16.5q-107 0 -159 57t-52 155q0 34 15.5 73.5
t40.5 66.5q-20 2 -40 3t-37 1zM719 514q0 -48 -20 -91.5t-54.5 -76t-80.5 -51.5t-99 -19q-84 0 -155 51l-54 -66t-19 -25q-17 -20 -27.5 -42t-10.5 -42q0 -15 8 -29q23 22 61 41.5t92 19.5q30 0 52 -9.5t42 -21t41 -21t50 -9.5q62 0 117.5 29t97.5 79.5t67 117.5t25 143
q0 48 -7 97t-21.5 94t-37.5 84t-54 68l-103 -122q25 -15 42.5 -36.5t28 -47.5t15 -55.5t4.5 -59.5zM575 895q-67 0 -118.5 -21t-86.5 -58.5t-53 -89t-18 -112.5q0 -57 14 -99l313 375q-12 2 -24.5 3.5t-26.5 1.5zM1260 1244q0 -41 22 -70t69 -29q48 0 72 27.5t24 62.5
q0 22 -10.5 40.5t-28.5 33.5t-42 26.5t-52 19.5q-23 -23 -38.5 -51t-15.5 -60zM387 420q20 -11 40 -16t38 -5q17 0 39.5 6.5t43 21t34.5 36t14 51.5q0 38 -11 64.5t-35 38.5z" />
    <glyph glyph-name="sin_nndda.ii" unicode="&#xdac;&#xdd3;" horiz-adv-x="1741" 
d="M909 752q0 37 -14.5 64t-40.5 45t-63 26.5t-83 8.5q-32 0 -64 -9t-58 -28.5t-43.5 -49.5t-19.5 -72h-130q0 38 14 79t40 79q-59 -6 -107 -37t-82 -82t-52 -119t-18 -147q0 -81 19.5 -148t47 -118.5t57 -87t48.5 -52.5l-80 -100q-47 37 -86.5 90t-68 118t-44.5 140
t-16 156q0 104 29 198t82 164.5t128 112t168 41.5q28 0 60.5 -4t67.5 -12q23 8 48.5 12t54.5 4q98 0 162.5 -24.5t102.5 -64.5t53 -91t15 -103q0 -45 -8.5 -87.5t-20.5 -77.5h-312q-30 0 -62 -10t-59 -32.5t-44.5 -59.5t-17.5 -90q0 -65 17.5 -113t47.5 -79.5t69 -47.5
t82 -16q31 0 59.5 12.5t50 34t34 49.5t12.5 59v69h128v-71q0 -44 14.5 -74t36.5 -49t48.5 -27t49.5 -8q25 0 58 8.5t67.5 31t68.5 62t60.5 101.5t42.5 149t16 205q0 57 -18.5 118t-53.5 118t-86 108t-115.5 89.5t-141.5 60.5t-164 22h-53q-66 0 -128 13.5t-110 41.5
t-77.5 70.5t-29.5 101.5q0 81 47 129.5t126 74.5t183 34t218 8h108q200 0 302 -54t102 -176q0 -38 -17 -72t-47 -59.5t-71 -40.5t-90 -15q-46 0 -86 12.5t-70 36.5t-47 58.5t-17 78.5q0 36 10.5 63.5t26.5 47.5h-104q-42 0 -91.5 -0.5t-100 -4t-98 -11t-84 -21.5
t-58.5 -35.5t-22 -53.5t22.5 -53t56.5 -33t73.5 -17t72.5 -5h55q109 0 203 -25.5t171.5 -70.5t138 -106t102 -132t63 -148.5t21.5 -155.5q0 -137 -19.5 -240t-52.5 -178.5t-76.5 -125t-92 -79.5t-98.5 -42t-96 -12q-47 0 -82 12t-60.5 30.5t-42 40t-26.5 40.5
q-13 -23 -34 -45.5t-49.5 -39.5t-63.5 -27.5t-75 -10.5q-72 0 -135 25.5t-109.5 75t-73.5 120.5t-27 163q0 30 7.5 59.5t20.5 55.5t29 46t33 31h-115v128h546q3 13 4 25t1 23zM1456 1438q0 25 -11.5 43.5t-30.5 31t-44.5 19.5t-53.5 11q-26 -21 -46.5 -47t-20.5 -58
q0 -36 26.5 -64.5t79.5 -28.5q22 0 40.5 8t32 21t21 29.5t7.5 34.5z" />
    <glyph glyph-name="sin_ta.ii" unicode="&#xdad;&#xdd3;" horiz-adv-x="1504" 
d="M335 896q-64 0 -64 -95v-64h-131v65q0 50 14 91t39.5 70t61 45t78.5 16q41 0 74.5 -12.5t57.5 -34.5t37 -52t13 -65v-12t-1 -12l79 59q87 65 167 97t151 32q102 0 184.5 -36.5t141 -105.5t90.5 -168t32 -225q0 -124 -37.5 -216t-98.5 -152.5t-139.5 -90.5t-160.5 -30v123
q87 8 146 42.5t95 85.5t51.5 113t15.5 125q0 91 -23 166t-65 128.5t-101 83t-131 29.5q-48 0 -103 -18.5t-106 -56.5l-30 -22q73 -2 134 -28t104 -74t67 -115.5t24 -151.5q0 -107 -40 -187.5t-105 -134t-148 -80.5t-169 -27q-98 0 -173 18.5t-125 53t-75.5 83t-25.5 109.5
q0 23 7 44t17 39t21.5 31.5t21.5 21.5h-67l-80 91l298 226q24 23 34.5 48.5t10.5 48.5q0 34 -19.5 57.5t-48.5 23.5zM537 129q67 0 128.5 18t108.5 55t75.5 93.5t28.5 134.5q0 62 -19 108t-52.5 77t-79.5 46t-101 15q-24 0 -52.5 -5.5t-59 -16t-61.5 -27t-59 -37.5l-131 -98
h87v-91q-9 -5 -22.5 -16t-26 -26t-21.5 -33t-9 -36q0 -45 22.5 -76t60 -50t85 -27t98.5 -8zM887 1382q-75 0 -144 -9.5t-121 -31.5t-83 -56.5t-31 -83.5q0 -25 10 -47.5t24 -40.5t29 -31t25 -20l-88 -71l-35 30.5t-40.5 45.5t-33.5 63.5t-14 83.5q0 76 40.5 130.5t108 89
t154.5 51t179 16.5q110 0 198 -20.5t150 -57.5t95.5 -87.5t33.5 -111.5q0 -38 -14.5 -74t-43 -64t-70.5 -45t-97 -17q-107 0 -159 58t-52 156q0 34 15.5 73.5t40.5 66.5q-20 2 -40 3t-37 1zM1030 1244q0 -41 22 -70t69 -29q48 0 72 27.5t24 62.5q0 22 -10.5 40.5t-28.5 33.5
t-42 26.5t-52 19.5q-23 -23 -38.5 -51t-15.5 -60z" />
    <glyph glyph-name="sin_tha.ii" unicode="&#xdae;&#xdd3;" horiz-adv-x="1310" 
d="M188 553q0 -42 9.5 -90t30 -95t52.5 -90.5t76 -76.5t101 -53t128 -20q120 0 205 39t139 103t79 146t25 169q0 136 -37.5 251t-97.5 210q-32 -38 -80 -65t-106 -27q-51 0 -95.5 16.5t-77.5 48t-52.5 77t-19.5 104.5q0 29 3.5 53.5t8 48.5l9.5 49t7 55q-32 16 -59 26
l43 106q74 -23 153.5 -67.5t155.5 -108.5t143.5 -146.5t118.5 -180.5t81 -211t30 -239q0 -60 -12.5 -126.5t-40 -131.5t-72 -124.5t-108.5 -104.5t-149 -71.5t-194 -26.5q-88 0 -160.5 24t-130 65t-100.5 95.5t-72 116t-43 126.5t-14 126q0 95 29.5 176.5t79.5 143
t117.5 99.5t142.5 46v-123q-59 -13 -104.5 -43.5t-77 -75t-48 -101.5t-16.5 -122zM614 1338q-7 -38 -15.5 -71.5t-8.5 -66.5q0 -19 7.5 -40.5t22.5 -40t38 -30.5t54 -12q44 0 72.5 19.5t45.5 44.5q-50 61 -105 110t-111 87zM719 1585q-93 0 -169.5 -10.5t-131 -32t-85 -55.5
t-30.5 -80q0 -25 13.5 -47t34.5 -39.5t47 -29t52 -16.5v-131q-57 10 -106 35t-85.5 61t-57 80.5t-20.5 91.5q0 76 43 130.5t116.5 89t171.5 51t207 16.5q113 0 212.5 -27.5t173 -73.5t116 -106t42.5 -125q0 -35 -8.5 -72.5t-29 -68t-54 -50.5t-84.5 -20q-46 0 -82.5 16
t-62 43t-39 63.5t-13.5 77.5q0 15 4 37t14 47t25.5 49t38.5 43q-32 13 -66 22.5t-67 16.5t-64 10.5t-56 3.5zM1000 1367q0 -41 21 -65t59 -24q19 0 32 8.5t21 21t11.5 28t3.5 29.5q0 35 -23.5 65.5t-61.5 55.5q-26 -23 -44.5 -55.5t-18.5 -63.5z" />
    <glyph glyph-name="sin_da.ii" unicode="&#xdaf;&#xdd3;" horiz-adv-x="1129" 
d="M861 614h-368q-58 0 -112 -10t-96 -34.5t-67 -66t-25 -105.5q0 -70 27.5 -121t71 -84t97 -49t104.5 -16q77 0 134.5 22.5t96 57.5t57.5 77.5t19 83.5h123q0 -65 -24 -131t-76 -119t-133.5 -86t-196.5 -33h-21t-21 1q-14 -17 -18 -34.5t-4 -30.5q0 -23 12.5 -46t36.5 -41
t58 -29.5t78 -11.5q57 0 100.5 17t74.5 48t49 73t23 93h123q0 -84 -30 -150.5t-81 -113t-117.5 -71t-139.5 -24.5q-70 0 -127 18.5t-97.5 52.5t-62.5 81t-22 104q0 49 24 90q-67 23 -117 64t-83 91.5t-49.5 107t-16.5 111.5q0 88 31.5 151.5t88.5 104.5t135.5 61t172.5 20
h245q0 81 -62.5 120t-182.5 39q-35 0 -73 -5t-71.5 -21.5t-58.5 -48.5t-33 -85h-128q14 84 50 139.5t85.5 88.5t108.5 46.5t120 13.5q76 0 143.5 -20t118 -63t79.5 -111.5t29 -164.5q0 -11 -0.5 -22.5t-1.5 -28.5zM511 1382q-145 0 -217 -43.5t-72 -125.5q0 -29 10 -54
t24 -44t29 -32.5t25 -20.5l-88 -71l-35 31t-40.5 47t-33.5 64t-14 82q0 66 26.5 119t77 90t124.5 57t169 20q106 0 182 -22.5t125 -59.5t72 -85t23 -98q0 -38 -14.5 -75.5t-43 -67.5t-70.5 -48.5t-97 -18.5q-53 0 -93 16t-66 43.5t-39 64.5t-13 79q0 19 4.5 40.5t12.5 42
t18.5 38.5t23.5 31h-2q-2 0 -4 0.5t-4 0.5zM584 1244q0 -41 22 -70t69 -29q48 0 72 27.5t24 62.5q0 22 -10 43t-27 37.5t-40.5 28.5t-51.5 17q-23 -23 -40.5 -54t-17.5 -63z" />
    <glyph glyph-name="sin_dha.ii" unicode="&#xdb0;&#xdd3;" horiz-adv-x="1435" 
d="M1289 656q0 -130 -19.5 -229t-53 -172t-78 -122t-93 -78.5t-99 -42t-96.5 -12.5q-47 0 -82 12t-60.5 30.5t-42 40t-26.5 40.5q-13 -23 -32.5 -45.5t-44.5 -39.5t-55.5 -27.5t-66.5 -10.5q-80 0 -147 37.5t-116 103.5t-76 156.5t-27 195.5q0 100 33 194.5t96.5 168
t156.5 118t213 44.5v-123q-88 0 -157 -33t-116.5 -88.5t-72.5 -128t-25 -150.5q0 -74 16 -140.5t46 -117t73 -80t97 -29.5q31 0 57 12.5t44 34t28 49.5t10 59v69h123v-71q0 -44 15.5 -73.5t38.5 -47t50 -25t50 -7.5q25 0 58 6.5t67.5 26.5t68 56t60 94.5t42.5 143t16 201.5
q0 57 -18.5 119.5t-54 122.5t-86 114t-115 95t-141.5 65t-164 24h-53q-66 0 -128 13.5t-110 41.5t-77.5 70.5t-29.5 101.5q0 81 47 129.5t126 74.5t183 34t218 8h108q200 0 302 -54t102 -176q0 -38 -17 -72t-47 -59.5t-71 -40.5t-90 -15q-46 0 -86 12.5t-70 36.5t-47 58.5
t-17 78.5q0 36 10.5 63.5t26.5 47.5h-104q-42 0 -91.5 -0.5t-100 -4t-98 -11t-84 -21.5t-58.5 -35.5t-22 -53.5t22.5 -53t56.5 -33t73.5 -17t72.5 -5h55q109 0 203.5 -27t172.5 -74.5t139 -111.5t103 -137t64 -152t22 -157zM1144 1438q0 25 -11.5 43.5t-30.5 31t-44.5 19.5
t-53.5 11q-26 -21 -46.5 -47t-20.5 -58q0 -36 26.5 -64.5t79.5 -28.5q22 0 40.5 8t32 21t21 29.5t7.5 34.5z" />
    <glyph glyph-name="sin_na.ii" unicode="&#xdb1;&#xdd3;" 
d="M216 737h-123v64q0 50 18.5 90t49 68.5t70.5 43.5t83 15q36 0 68.5 -13t58.5 -36t45 -56t28 -73q30 37 64 70.5t73.5 58.5t84.5 40t97 15q93 0 174.5 -35t142.5 -102t96 -164t35 -221q0 -123 -37.5 -217t-98.5 -157.5t-139.5 -95.5t-160.5 -32v123q81 0 139 36t95.5 91.5
t55.5 122.5t18 129q0 96 -26 170t-70 123.5t-102 75t-122 25.5q-51 0 -105 -30t-103 -75q77 -14 134 -47.5t94.5 -84t55.5 -116t18 -142.5q0 -96 -40 -170.5t-104 -126t-144 -78t-161 -26.5q-104 0 -181 34.5t-129 89t-77.5 121t-25.5 130.5v213h128v-27q15 -27 28.5 -33
t25.5 -6q30 0 53 14t40 36.5t28.5 50.5t18.5 57t10 56t3 46q0 53 -25 83t-65 30t-67 -22.5t-27 -71.5v-64zM256 399q-12 0 -24.5 3.5t-38.5 25.5v-51q0 -51 23.5 -96.5t62.5 -79.5t90.5 -53.5t108.5 -19.5q63 0 121 19.5t103 55t71.5 86t26.5 112.5q0 63 -19 113t-54.5 84.5
t-86 54t-112.5 22.5l-20.5 -33t-16.5 -33q-17 -38 -40 -75.5t-52 -67.5t-65 -48.5t-78 -18.5zM828 1382q-75 0 -144 -9.5t-121 -31.5t-83 -56.5t-31 -83.5q0 -25 10 -47.5t24 -40.5t29 -31t25 -20l-88 -71l-35 30.5t-40.5 45.5t-33.5 63.5t-14 83.5q0 76 40.5 130.5t108 89
t154.5 51t179 16.5q110 0 198 -20.5t150 -57.5t95.5 -87.5t33.5 -111.5q0 -38 -14.5 -74t-43 -64t-70.5 -44.5t-97 -16.5q-107 0 -159 57.5t-52 155.5q0 34 15.5 73.5t40.5 66.5q-20 2 -40 3t-37 1zM971 1244q0 -41 22 -70t69 -29q48 0 72 27.5t24 62.5q0 22 -10.5 40.5
t-28.5 33.5t-42 26.5t-52 19.5q-23 -23 -38.5 -51t-15.5 -60z" />
    <glyph glyph-name="sin_nda.ii" unicode="&#xdb3;&#xdd3;" horiz-adv-x="1418" 
d="M798 1382q-145 0 -217 -43.5t-72 -125.5q0 -29 10 -54t24 -44t29 -32.5t25 -20.5l-59 -48q15 -5 28 -11.5t25 -14.5q44 20 92 28t99 8q83 0 151.5 -19.5t117 -62.5t75 -110t26.5 -162v-27.5t-2 -28.5h-368q-58 0 -113 -10t-98 -35t-69.5 -66.5t-26.5 -105.5
q0 -70 29 -120.5t74 -83.5t99 -49t105 -16q78 0 135.5 22.5t95.5 57.5t57 77.5t19 83.5h123q0 -65 -24 -131t-76 -119t-133.5 -86t-196.5 -33h-18t-17 1q-14 -15 -20.5 -31.5t-6.5 -30.5q0 -23 12.5 -45.5t36 -39.5t58 -27.5t78.5 -10.5q57 0 100 16t73.5 45t48.5 70t23 92
h123q0 -84 -30 -148.5t-81 -108.5t-117.5 -66.5t-139.5 -22.5q-67 0 -123.5 17t-97.5 49t-64 77.5t-23 102.5q0 49 19 88q-66 23 -115.5 63.5t-82.5 90t-49.5 105.5t-16.5 111q0 88 32 152t89 106t136 62.5t173 20.5h245q0 81 -62.5 119.5t-182.5 38.5q-35 0 -74.5 -5
t-75 -21.5t-62 -48t-34.5 -84.5h-123q8 50 24 89t39 69q-5 1 -14 1q-57 0 -107 -29t-87 -81t-58.5 -122.5t-21.5 -153.5q0 -81 19.5 -148t47 -118.5t57 -87t48.5 -52.5l-80 -100q-47 37 -86.5 90t-68 118t-44.5 140t-16 156q0 104 31 197.5t85 164t128.5 112.5t161.5 42
q-15 15 -30 34t-27 42.5t-20 52t-8 62.5q0 66 26.5 119t77 90t124.5 57t169 20q106 0 182 -22.5t125 -59.5t72 -85t23 -98q0 -38 -14.5 -75.5t-43 -67.5t-70.5 -48.5t-97 -18.5q-53 0 -93 16t-66 43.5t-39 64.5t-13 79q0 19 4.5 40.5t12.5 42t18.5 38.5t23.5 31h-2
q-2 0 -4 0.5t-4 0.5zM871 1244q0 -41 22 -70t69 -29q48 0 72 27.5t24 62.5q0 22 -10 43t-27 37.5t-40.5 28.5t-51.5 17q-23 -23 -40.5 -54t-17.5 -63z" />
    <glyph glyph-name="sin_pa.ii" unicode="&#xdb4;&#xdd3;" horiz-adv-x="1204" 
d="M584 1382q-75 0 -144 -9.5t-121 -31.5t-83 -56.5t-31 -83.5q0 -25 10 -47.5t24 -40.5t29 -31t25 -20l-59 -47q16 4 32.5 6.5t34.5 2.5q55 0 100 -21t78.5 -55.5t54.5 -78.5t28 -90q7 46 28.5 90t56 78.5t82 55.5t106.5 21q42 0 79.5 -15t66.5 -36t48 -43t24 -35l-61 -96
q-15 23 -34.5 41t-41.5 30t-44 18.5t-42 6.5q-63 0 -103 -30.5t-63 -85.5h58q54 0 113.5 -16t109 -54t82 -100.5t32.5 -155.5q0 -47 -13.5 -98.5t-40.5 -101.5t-68.5 -96t-96.5 -81t-124.5 -55.5t-153.5 -20.5q-123 0 -216 40.5t-155.5 105t-94 145.5t-31.5 162
q0 93 27 155.5t74 100.5t111.5 54t138.5 16h43q-10 29 -27.5 51t-39.5 36.5t-46.5 21.5t-47.5 7q-24 0 -49 -8.5t-47.5 -22.5t-41 -31t-28.5 -34l-62 96q4 7 14 19.5t26 27.5t36.5 30.5t46.5 27.5q-15 13 -34.5 31.5t-36.5 45t-28.5 60.5t-11.5 77q0 76 40.5 130.5t108 89
t154.5 51t179 16.5q110 0 198 -20.5t150 -57.5t95.5 -87.5t33.5 -111.5q0 -38 -14.5 -74t-43 -64t-70.5 -44.5t-97 -16.5q-107 0 -159 57.5t-52 155.5q0 34 15.5 73.5t40.5 66.5q-20 2 -40 3t-37 1zM462 656q-63 0 -113 -6.5t-84.5 -28t-53 -61.5t-18.5 -107
q0 -83 32 -144.5t84 -101.5t118 -59.5t134 -19.5q70 0 136.5 23.5t118.5 66.5t83.5 103t31.5 132q0 68 -22 108.5t-58.5 61.5t-85.5 27t-103 6h-200zM727 1244q0 -41 22 -70t69 -29q48 0 72 27.5t24 62.5q0 22 -10.5 40.5t-28.5 33.5t-42 26.5t-52 19.5q-23 -23 -38.5 -51
t-15.5 -60z" />
    <glyph glyph-name="sin_pha.ii" unicode="&#xdb5;&#xdd3;" horiz-adv-x="1428" 
d="M386 614q-30 0 -64 -8.5t-62.5 -28t-47 -51.5t-18.5 -78q0 -64 17.5 -112.5t49 -84t74 -59.5t92.5 -38t104.5 -20t110.5 -6q131 0 222.5 44t149.5 116t84 164t26 188q0 127 -34 231.5t-89 190.5q-16 -22 -37 -41.5t-46.5 -34.5t-54.5 -23.5t-60 -8.5q-51 0 -95.5 16.5
t-77.5 48t-52.5 77t-19.5 104.5q0 29 3.5 54t8 49l9.5 49.5t7 55.5q-15 7 -30 13t-29 11l43 106q80 -27 162 -70t158 -102t142 -134t115 -166t77 -197.5t28 -228.5q0 -64 -11.5 -136.5t-39 -143.5t-73 -136t-113.5 -115t-160 -79.5t-213 -29.5q-120 0 -225 25t-183.5 79
t-123.5 139t-45 205q0 58 22.5 110t64 92t101 63.5t133.5 23.5h171q1 5 1 9.5v9.5q0 35 -16.5 61t-43 43.5t-59.5 26t-66 8.5q-31 0 -60 -7t-54 -24t-43.5 -45t-27.5 -69h-123q6 60 34.5 109.5t71 85t95 54.5t107.5 19q71 0 129 -22t99.5 -62.5t64.5 -98.5t23 -130
q0 -43 -9 -91h-294zM706 1344q-7 -40 -16 -74.5t-9 -69.5q0 -19 7.5 -40.5t22.5 -40t38 -30.5t54 -12q25 0 45 7t35 18t26.5 25t20.5 28q-51 60 -108.5 106.5t-115.5 82.5zM839 1585q-93 0 -169.5 -10.5t-131 -32t-85 -55.5t-30.5 -80q0 -25 10.5 -46t28.5 -37.5t41 -27.5
t49 -16v-131q-57 10 -103.5 34.5t-79 59.5t-50.5 78.5t-18 90.5q0 76 43 130.5t116.5 89t171.5 51t207 16.5q113 0 212.5 -27.5t173 -73.5t116 -106t42.5 -125q0 -35 -8.5 -72.5t-29 -68t-54 -50.5t-84.5 -20q-46 0 -82.5 16t-62 43t-39 63.5t-13.5 77.5q0 15 4 37t14 47
t25.5 49t38.5 43q-32 13 -66 22.5t-67 16.5t-64 10.5t-56 3.5zM1120 1367q0 -41 21 -65t59 -24q19 0 32 8.5t21 21t11.5 28t3.5 29.5q0 35 -23.5 65.5t-61.5 55.5q-26 -23 -44.5 -55.5t-18.5 -63.5z" />
    <glyph glyph-name="sin_ba.ii" unicode="&#xdb6;&#xdd3;" horiz-adv-x="1462" 
d="M1317 601q0 -129 -23.5 -239t-71.5 -190.5t-120.5 -126t-170.5 -45.5q-83 0 -137.5 27t-86.5 69t-45 92.5t-13 96.5q0 40 15 85t33 90.5t33 91.5t15 88q0 61 -18 109t-49 80.5t-73.5 49.5t-91.5 17q-81 0 -141 -33.5t-99.5 -89t-59.5 -129t-20 -152.5q0 -68 8.5 -129
t27.5 -109.5t48.5 -81.5t70.5 -44q-35 39 -51.5 80.5t-16.5 92.5q0 45 12.5 80.5t34 60t49.5 37.5t58 13q46 0 80.5 -20.5t57.5 -53.5t34.5 -73.5t11.5 -80.5q0 -53 -15.5 -101t-45 -84t-72 -57.5t-96.5 -21.5q-86 0 -147.5 45t-100.5 116t-57.5 159.5t-18.5 175.5
q0 100 28 195t84.5 169t140.5 119t195 45q87 0 154 -26.5t113 -76t69.5 -120.5t23.5 -161q0 -46 -16.5 -93.5t-36 -93t-35.5 -88t-16 -79.5q0 -30 8.5 -58.5t28 -50.5t49.5 -35.5t74 -13.5q58 0 105.5 29t82 87.5t53.5 147.5t19 208q0 57 -18.5 124t-54 133t-86 127.5
t-115 108.5t-141.5 75t-164 28h-53q-66 0 -128 13.5t-110 41.5t-77.5 70.5t-29.5 101.5q0 81 47 129.5t126 74.5t183 34t218 8h108q200 0 302 -54t102 -176q0 -38 -17 -72t-47 -59.5t-71 -40.5t-90 -15q-46 0 -86 12.5t-70 36.5t-47 58.5t-17 78.5q0 36 10.5 63.5t26.5 47.5
h-104q-42 0 -91.5 -0.5t-100 -4t-98 -11t-84 -21.5t-58.5 -35.5t-22 -53.5t22.5 -53t56.5 -33t73.5 -17t72.5 -5h55q109 0 203.5 -31.5t172.5 -84.5t139.5 -124t103.5 -150.5t64 -162.5t22 -161zM495 264q0 16 -2.5 34.5t-9 34.5t-18.5 26.5t-31 10.5q-12 0 -21.5 -8.5
t-15.5 -21t-9 -27.5t-3 -28q0 -32 18 -69t55 -63q20 23 28.5 55t8.5 56zM1171 1438q0 25 -11.5 43.5t-30.5 31t-44.5 19.5t-53.5 11q-26 -21 -46.5 -47t-20.5 -58q0 -36 26.5 -64.5t79.5 -28.5q22 0 40.5 8t32 21t21 29.5t7.5 34.5z" />
    <glyph glyph-name="sin_bha.ii" unicode="&#xdb7;&#xdd3;" horiz-adv-x="1666" 
d="M884 1382q-75 0 -144 -9.5t-121 -31.5t-83 -56.5t-31 -83.5q0 -25 10 -47.5t24 -40.5t29 -31t25 -20l-73 -59q64 -24 94 -76.5t30 -130.5q0 -64 -23 -145q-79 -9 -145 -36.5t-114 -66.5t-74.5 -85.5t-26.5 -92.5q0 -78 31 -125.5t80.5 -73.5t112 -34.5t125.5 -8.5
q77 0 144 23t116 62.5t77 92.5t28 113q0 49 -11 80t-28 48.5t-37.5 24t-39.5 6.5q-11 0 -25.5 -3.5t-28.5 -13.5t-25.5 -26.5t-17.5 -42.5h-123v61q0 92 30.5 177t88.5 150.5t140.5 104.5t186.5 39q81 0 145 -23.5t112.5 -63t82.5 -91t55.5 -108t31 -114.5t9.5 -109
q0 -119 -34.5 -214.5t-95.5 -162t-143.5 -102.5t-178.5 -36v123q46 4 102.5 23.5t105.5 63.5t82.5 117.5t33.5 184.5q0 90 -26.5 161.5t-70 121t-98 75.5t-111.5 26q-58 0 -107 -19t-87.5 -50.5t-66.5 -73t-44 -86.5q25 20 52.5 28.5t49.5 8.5q43 0 82.5 -16.5t69.5 -51
t48 -88.5t18 -129q0 -66 -21.5 -123t-58 -103.5t-85 -82.5t-103.5 -60.5t-113 -37t-113 -12.5q-121 0 -210.5 27t-148.5 77t-88 121t-29 158q0 42 18 85t44 80.5t55 65t50 37.5h-234v128h98q-6 24 -6 49q0 40 15.5 75.5t45 62.5t73 42.5t99.5 15.5q45 0 85 -8
q-15 14 -31.5 32.5t-30 43t-22.5 55t-9 67.5q0 76 40.5 130.5t108 89t154.5 51t179 16.5q110 0 198 -20.5t150 -57.5t95.5 -87.5t33.5 -111.5q0 -38 -14.5 -74t-43 -63.5t-70.5 -44t-97 -16.5q-107 0 -159 57t-52 155q0 34 15.5 73.5t40.5 66.5q-20 2 -40 3t-37 1z
M1027 1244q0 -41 22 -70t69 -29q48 0 72 27.5t24 62.5q0 22 -10.5 40.5t-28.5 33.5t-42 26.5t-52 19.5q-23 -23 -38.5 -51t-15.5 -60zM520 779q1 7 1.5 13t0.5 12q0 52 -33 74.5t-99 22.5q-33 0 -54 -8.5t-33 -22t-16.5 -30.5t-4.5 -33q0 -17 4 -28h234z" />
    <glyph glyph-name="sin_ma.ii" unicode="&#xdb8;&#xdd3;" horiz-adv-x="1398" 
d="M1253 737q0 -158 -43 -293t-121.5 -233.5t-189 -154.5t-245.5 -56q-122 0 -229 42.5t-187 119t-126.5 184t-46.5 236.5q0 100 23 181.5t63.5 139.5t97 89.5t123.5 31.5q44 0 73.5 -10t47 -27.5t24.5 -41t7 -50.5q0 -37 -9.5 -77.5t-21.5 -79l-21.5 -71t-9.5 -53.5
q0 -62 49 -101t151 -39q31 0 62.5 12t58 34.5t45.5 55t24 73.5q-50 -31 -99 -31q-37 0 -67.5 18t-52.5 45.5t-34 61t-12 65.5q0 43 13 82.5t37 69.5t58.5 47.5t78.5 17.5q58 0 97.5 -30t64 -74.5t35 -96.5t10.5 -96q0 -70 -22 -138.5t-63 -122.5t-101 -87t-136 -33
q-65 0 -123 18.5t-101.5 53t-69.5 84t-26 111.5q0 24 9.5 56t21.5 65t21.5 64.5t9.5 54.5q0 19 -9 30t-31 11q-26 0 -55.5 -15.5t-54.5 -52.5t-41.5 -98.5t-16.5 -153.5q0 -103 35.5 -186t97.5 -141t146 -89t182 -31q115 0 203 49.5t147.5 133t90 194.5t30.5 234
q0 82 -33 164t-95.5 147t-152.5 105.5t-204 40.5h-73q-66 0 -128 13.5t-110 41.5t-77.5 70.5t-29.5 101.5q0 81 47 129.5t126 74.5t183 34t218 8h18q200 0 302 -54t102 -176q0 -38 -17 -72t-47 -59.5t-71 -40.5t-90 -15q-46 0 -86 12.5t-70 36.5t-47 58.5t-17 78.5
q0 36 10.5 63.5t26.5 47.5h-14q-42 0 -91.5 -0.5t-100 -4t-98 -11t-84 -21.5t-58.5 -35.5t-22 -53.5t22.5 -53t56.5 -33t73.5 -17t72.5 -5h75q145 0 259 -50t192 -131.5t119 -185t41 -211.5zM688 816q0 -19 6.5 -35.5t17.5 -29t26 -19.5t32 -7q23 0 44 9.5t38 22.5
q-3 21 -7.5 46.5t-14 47t-26.5 36t-44 14.5q-19 0 -32.5 -7.5t-22.5 -19.5t-13 -27.5t-4 -30.5zM1091 1438q0 25 -11.5 43.5t-30.5 31t-44.5 19.5t-53.5 11q-26 -21 -46.5 -47t-20.5 -58q0 -36 26.5 -64.5t79.5 -28.5q22 0 40.5 8t32 21t21 29.5t7.5 34.5z" />
    <glyph glyph-name="sin_mba.ii" unicode="&#xdb9;&#xdd3;" 
d="M1281 683q0 -161 -31 -288t-83.5 -215t-123 -134t-149.5 -46q-97 0 -141.5 42t-44.5 112q0 31 14.5 50.5t31.5 37.5t31.5 38.5t14.5 53.5q0 26 -28.5 41.5t-94.5 15.5q-72 0 -97.5 -15.5t-25.5 -41.5q0 -33 14.5 -53.5t31.5 -38.5t31.5 -37.5t14.5 -50.5q0 -35 -15 -63.5
t-42.5 -48.5t-67 -31t-88.5 -11q-80 0 -147.5 37t-116.5 102.5t-76.5 156t-27.5 197.5q0 65 10.5 129t30 122.5t48.5 108.5t66.5 86.5t83 57.5t98.5 21q58 0 93.5 -17.5t55.5 -42.5t27 -52t7 -46q0 -18 -5 -29t-10.5 -20t-10.5 -18.5t-5 -24.5q0 -29 24.5 -45t86.5 -16
q73 0 104 23t31 83q0 34 -16.5 58t-59.5 24q-9 0 -19.5 -3.5t-19.5 -8.5l-37 108q20 11 43.5 19t46.5 8q32 0 65 -11.5t59.5 -36t43.5 -62.5t17 -91q0 -66 -17 -110.5t-50.5 -72t-83 -39t-114.5 -11.5q-73 0 -117.5 15.5t-69 39.5t-32.5 53t-8 56q0 19 5 32t10.5 23.5
l10.5 21t5 25.5q0 13 -7 21.5t-17 14t-22 7.5t-22 2q-38 0 -74 -24.5t-64 -74t-45.5 -125t-17.5 -178.5q0 -74 17.5 -140t49 -116t75 -79.5t96.5 -29.5q51 0 71.5 15t20.5 34q0 22 -7 36.5t-17 25.5t-22 21t-22 24t-17 34t-7 51q0 71 65 112t181 41q57 0 103 -11t77.5 -31
t48.5 -48.5t17 -62.5q0 -46 -14.5 -71t-32 -42t-32 -32.5t-14.5 -43.5q0 -26 13 -39t54 -13q37 0 81.5 30t83.5 96.5t65 172t26 256.5q0 55 -17 114.5t-48.5 116.5t-77 108t-102.5 90t-124.5 61.5t-143.5 22.5h-73q-66 0 -128 13.5t-110 41.5t-77.5 70.5t-29.5 101.5
q0 81 47 129.5t126 74.5t183 34t218 8h18q200 0 302 -54t102 -176q0 -38 -17 -72t-47 -59.5t-71 -40.5t-90 -15q-46 0 -86 12.5t-70 36.5t-47 58.5t-17 78.5q0 36 10.5 63.5t26.5 47.5h-14q-42 0 -91.5 -0.5t-100 -4t-98 -11t-84 -21.5t-58.5 -35.5t-22 -53.5t22.5 -53
t56.5 -33t73.5 -17t72.5 -5h75q97 0 182 -27t156 -73t127 -108t94.5 -132.5t59 -145t20.5 -146.5zM1091 1438q0 25 -11.5 43.5t-30.5 31t-44.5 19.5t-53.5 11q-26 -21 -46.5 -47t-20.5 -58q0 -36 26.5 -64.5t79.5 -28.5q22 0 40.5 8t32 21t21 29.5t7.5 34.5z" />
    <glyph glyph-name="sin_ya.ii" unicode="&#xdba;&#xdd3;" horiz-adv-x="1346" 
d="M705 350v-69q0 -47 19 -76.5t45 -46.5t54.5 -23.5t46.5 -6.5q27 0 62 9t66.5 38t53 84t21.5 147q0 57 -19 96.5t-50 64.5t-69 36t-77 11h-276q-1 11 -1 21.5v21.5q0 181 66 274t211 93q72 0 124.5 -22.5t86.5 -61.5t50 -91.5t16 -111.5h-123q0 28 -6.5 56t-23.5 50.5
t-47 37t-77 14.5q-44 0 -73.5 -12t-47 -33t-25 -50t-7.5 -63h153q72 0 135 -20.5t109 -62t72.5 -103.5t26.5 -146q0 -108 -27 -185t-73 -126t-105.5 -71.5t-125.5 -22.5q-47 0 -83.5 12.5t-64.5 31.5t-47 40t-30 39q-12 -21 -32.5 -42.5t-47.5 -39.5t-59.5 -29.5
t-68.5 -11.5q-75 0 -142.5 33.5t-118.5 97.5t-81 156.5t-30 209.5q0 115 32 211t88.5 165t134.5 107t170 38v-123q-73 0 -128.5 -32.5t-93 -88t-56.5 -128t-19 -151.5q0 -84 18 -152t50.5 -116t76.5 -73.5t97 -25.5q31 0 58 11t47 30.5t31 47t11 59.5v74h123zM665 1382
q-75 0 -144 -9.5t-121 -31.5t-83 -56.5t-31 -83.5q0 -25 10 -47.5t24 -40.5t29 -31t25 -20l-88 -71l-35 30.5t-40.5 45.5t-33.5 63.5t-14 83.5q0 76 40.5 130.5t108 89t154.5 51t179 16.5q110 0 198 -20.5t150 -57.5t95.5 -87.5t33.5 -111.5q0 -38 -14.5 -74t-43 -64
t-70.5 -44.5t-97 -16.5q-107 0 -159 57.5t-52 155.5q0 34 15.5 73.5t40.5 66.5q-20 2 -40 3t-37 1zM808 1244q0 -41 22 -70t69 -29q48 0 72 27.5t24 62.5q0 22 -10.5 40.5t-28.5 33.5t-42 26.5t-52 19.5q-23 -23 -38.5 -51t-15.5 -60z" />
    <glyph glyph-name="sin_ra.ii" unicode="&#xdbb;&#xdd3;" horiz-adv-x="1199" 
d="M837 1419l139 -61q-18 -62 -58 -114.5t-89 -95.5t-99 -75.5t-88 -53.5q91 -11 167 -47.5t130.5 -95t84.5 -139t30 -179.5q0 -119 -33 -221t-96.5 -177t-155.5 -117.5t-210 -42.5q-115 0 -206.5 45.5t-155.5 122t-98 176.5t-34 209q0 105 32.5 187t89.5 140.5t134 93.5
t166 45q35 19 86 51.5t103 81.5t96 115t65 152zM928 553q0 76 -23.5 139t-70 108.5t-116.5 70.5t-162 25t-160.5 -26t-114 -71.5t-68 -108.5t-22.5 -137q0 -92 28 -170t77.5 -134.5t117 -88.5t145.5 -32q82 0 150 32t117 88.5t75.5 134.5t26.5 170zM597 1596q41 0 78 -10.5
t65.5 -31.5t45.5 -54t17 -78q0 -36 -16.5 -70.5t-43.5 -61.5t-62.5 -43.5t-72.5 -16.5q-85 0 -138 44.5t-63 115.5q-40 -37 -57.5 -71t-17.5 -63q0 -35 16.5 -59t43 -39t60 -21.5t67.5 -6.5q29 0 56.5 4t48.5 12l-130 -98q-38 -9 -74 -9q-41 0 -77 12t-63.5 36.5t-43.5 62
t-16 88.5q0 61 29.5 125.5t91.5 122.5q63 59 129.5 84.5t126.5 25.5zM592 1486q-33 0 -68 -13q-9 -23 -9 -45q0 -41 23 -60t61 -19t60 21.5t22 49.5q0 19 -9 32t-22 20.5t-29 10.5t-29 3z" />
    <glyph glyph-name="sin_la.ii" unicode="&#xdbd;&#xdd3;" horiz-adv-x="1346" 
d="M65 307q0 171 48.5 304t131.5 225t193.5 140t235.5 48q127 0 225 -47t165 -124t102 -176t35 -203q0 -94 -17.5 -165.5t-48 -124t-70 -88t-84 -57t-90 -30.5t-87.5 -9q-53 0 -109 15.5t-101.5 49.5t-74.5 88t-29 130q0 33 9.5 65t25.5 59.5t36 49t41 35.5h-204v122h491
v-122h-123q-71 -26 -112.5 -76t-41.5 -113q0 -49 20.5 -82.5t50.5 -54t64 -29.5t60 -9t56 5.5t60 19.5t57.5 38.5t49 63t34.5 92t13 125.5q0 87 -30.5 164t-84 135t-127.5 91.5t-161 33.5q-104 0 -192 -37t-152 -110.5t-100.5 -184.5t-36.5 -258q0 -138 36.5 -247
t100.5 -184t152 -115t192 -40q141 0 236.5 62t148.5 199l115 -47q-35 -95 -87 -160t-117 -105.5t-140 -58.5t-156 -18q-125 0 -236 45t-194 135t-131 224t-48 311zM688 1382q-145 0 -217 -43.5t-72 -125.5q0 -29 10 -54t24 -44t29 -32.5t25 -20.5l-88 -71l-35 31t-40.5 47
t-33.5 64t-14 82q0 66 26.5 119t77 90t124.5 57t169 20q106 0 182 -22.5t125 -59.5t72 -85t23 -98q0 -38 -14.5 -75.5t-43 -67.5t-70.5 -48.5t-97 -18.5q-53 0 -93 16t-66 43.5t-39 64.5t-13 79q0 19 4.5 40.5t12.5 42t18.5 38.5t23.5 31h-2q-2 0 -4 0.5t-4 0.5zM761 1244
q0 -41 22 -70t69 -29q48 0 72 27.5t24 62.5q0 22 -10 43t-27 37.5t-40.5 28.5t-51.5 17q-23 -23 -40.5 -54t-17.5 -63z" />
    <glyph glyph-name="sin_va.ii" unicode="&#xdc0;&#xdd3;" horiz-adv-x="1325" 
d="M1174 668q0 -124 -27 -222t-72.5 -172.5t-104.5 -126.5t-123.5 -84.5t-129 -47.5t-120.5 -15q-104 0 -195.5 29.5t-160.5 85t-109 136t-40 182.5q0 66 27 121.5t76.5 96t120.5 63.5t158 23h123q1 5 1 10v10q0 34 -16.5 61t-43 45.5t-59.5 28t-66 9.5q-31 0 -60 -7
t-53.5 -24t-43 -45t-27.5 -69h-123q6 60 34.5 109.5t71 85t95 54.5t106.5 19q71 0 129 -22.5t99.5 -64.5t64.5 -101t23 -131q0 -43 -9 -91h-246q-49 0 -95 -11.5t-81 -34.5t-56.5 -57.5t-21.5 -80.5q0 -69 27 -125t76.5 -95t119 -60.5t153.5 -21.5q41 0 90 10.5t99 35
t97.5 64.5t84 100t58.5 141t22 187q0 63 -18 127t-50.5 122.5t-77.5 110t-99 89t-115 59.5t-126 22h-73q-66 0 -128 13.5t-110 41.5t-77.5 70.5t-29.5 101.5q0 81 47 129.5t126 74.5t183 34t218 8h58q200 0 302 -54t102 -176q0 -38 -17 -72t-47 -59.5t-71 -40.5t-90 -15
q-46 0 -86 12.5t-70 36.5t-47 58.5t-17 78.5q0 36 10.5 63.5t26.5 47.5h-54q-42 0 -91.5 -0.5t-100 -4t-98 -11t-84 -21.5t-58.5 -36t-22 -53q0 -32 22.5 -53t56.5 -33t73.5 -17t72.5 -5h75q85 0 164 -26.5t146.5 -73t123 -108.5t95 -134t61 -150t21.5 -155zM1052 1438
q0 25 -11.5 43.5t-30.5 31t-44.5 19.5t-53.5 11q-26 -21 -46.5 -47t-20.5 -58q0 -36 26.5 -64.5t79.5 -28.5q22 0 40.5 8t32 21t21 29.5t7.5 34.5z" />
    <glyph glyph-name="sin_sha.ii" unicode="&#xdc1;&#xdd3;" horiz-adv-x="1490" 
d="M765 1382q-75 0 -144 -9.5t-121 -31.5t-83 -56.5t-31 -83.5q0 -25 10 -47.5t24 -40.5t29 -31t25 -20l-70 -57q24 7 48 11.5t49 7.5v-123q-27 -4 -60.5 -14t-68 -29t-66.5 -48.5t-57.5 -71.5t-40.5 -98t-15 -128q0 -84 23 -154.5t62 -121.5t90.5 -79.5t108.5 -28.5
q52 0 97 15.5t79.5 46.5t57 76.5t28.5 104.5q1 8 1.5 17t0.5 17q0 36 -8 68.5t-21.5 57t-32 39t-39.5 14.5q-25 0 -48.5 -21.5t-37.5 -70.5h-123v61q0 92 35.5 177t98 150.5t148.5 104.5t188 39q80 0 144 -22.5t113 -60.5t84.5 -88.5t58.5 -106t33.5 -113t10.5 -110.5
q0 -119 -39.5 -216t-106.5 -165t-154.5 -105t-183.5 -37v123q6 0 9 1q23 5 38 32.5t15 66.5q0 18 -3 30.5l-6.5 26t-6.5 30t-3 42.5q0 39 15 65.5t37 43t46.5 24t42.5 7.5q64 0 101 -32t51 -78q20 63 20 143q0 86 -26 155t-70.5 117t-102.5 73.5t-121 25.5t-113 -18t-89 -49
t-67 -71t-47 -84q22 17 45 25t43 8q49 0 85.5 -28.5t60.5 -73t35.5 -99t11.5 -106.5v-15.5t-1 -15.5q-6 -88 -40 -156.5t-86 -116t-118.5 -72t-136.5 -24.5q-73 0 -132.5 23t-105.5 62t-79.5 90.5t-55 108.5t-32 115.5t-10.5 112.5q0 104 24.5 184.5t67.5 140t99.5 99
t121.5 61.5q-15 13 -35 32t-38 45t-30 61t-12 79q0 76 40.5 130.5t108 89t154.5 51t179 16.5q110 0 198 -20.5t150 -57.5t95.5 -87.5t33.5 -111.5q0 -38 -14.5 -74t-43 -63.5t-70.5 -44t-97 -16.5q-107 0 -159 57t-52 155q0 34 15.5 73.5t40.5 66.5q-20 2 -40 3t-37 1z
M908 1244q0 -41 22 -70t69 -29q48 0 72 27.5t24 62.5q0 22 -10.5 40.5t-28.5 33.5t-42 26.5t-52 19.5q-23 -23 -38.5 -51t-15.5 -60zM1130 258q1 5 1 9.5v9.5q0 39 -18 65.5t-51 26.5q-35 0 -49.5 -18.5t-14.5 -43.5q0 -26 8.5 -48t8.5 -50q0 -17 -8 -46q33 16 64.5 39.5
t58.5 55.5z" />
    <glyph glyph-name="sin_ssa.ii" unicode="&#xdc2;&#xdd3;" horiz-adv-x="1197" 
d="M577 1382q-75 0 -144 -9.5t-121 -31.5t-83 -56.5t-31 -83.5q0 -25 10 -47.5t24 -40.5t29 -31t25 -20l-57 -46q30 8 62 8q55 0 101 -21t80 -55.5t56 -78.5t29 -90q7 46 26.5 90t52 78.5t78.5 55.5t105 21q61 0 105.5 -19.5t72.5 -51t41.5 -72t13.5 -82.5q0 -48 -13.5 -98
t-36.5 -82q11 -18 19.5 -36t14.5 -37.5t9 -42t3 -50.5q0 -43 -13 -93.5t-39.5 -101t-67 -97t-95 -82.5t-123.5 -57.5t-153 -21.5q-82 0 -150.5 19t-123 52.5t-95.5 77.5t-68.5 94.5t-41 104t-13.5 105.5q0 93 26 155.5t72.5 100.5t110 54t137.5 16h43q-10 29 -27.5 51
t-39.5 36.5t-46.5 21.5t-47.5 7q-24 0 -49 -8.5t-47.5 -22.5t-41 -31t-28.5 -34l-62 96q4 7 14 19.5t25.5 27.5t35.5 30.5t46 27.5q-16 13 -35 31.5t-36 45t-28.5 60.5t-11.5 77q0 76 40.5 130.5t108 89t154.5 51t179 16.5q110 0 198 -20.5t150 -57.5t95.5 -87.5
t33.5 -111.5q0 -38 -14.5 -74t-43 -63.5t-70.5 -44t-97 -16.5q-107 0 -159 57t-52 155q0 34 15.5 73.5t40.5 66.5q-20 2 -40 3t-37 1zM457 656q-63 0 -113 -6.5t-84.5 -28t-53 -61.5t-18.5 -107q0 -83 32 -145t84 -103t118.5 -61.5t134.5 -20.5q70 0 136 24.5t118 68
t83.5 104.5t31.5 133q0 28 -3.5 41.5t-11.5 31.5l-2 5q-33 -22 -67 -36.5t-66 -22.5q0 -58 -17.5 -100.5t-47 -70.5t-68.5 -41.5t-82 -13.5q-35 0 -72.5 10t-69.5 34t-52.5 63.5t-20.5 98.5q0 34 15 54.5t35.5 31.5t42 14.5t35.5 3.5h257q37 10 65 24.5t50 31.5
q-38 26 -86.5 35t-102.5 9h-200zM720 1244q0 -41 22 -70t69 -29q48 0 72 27.5t24 62.5q0 22 -10.5 40.5t-28.5 33.5t-42 26.5t-52 19.5q-23 -23 -38.5 -51t-15.5 -60zM717 779q50 0 102.5 -15.5t98.5 -50.5q3 9 5.5 21t4 24t2 23t0.5 18q0 44 -32 70.5t-89 26.5
q-54 0 -90.5 -31t-59.5 -86h58zM561 338q27 0 49.5 5t39 19t25.5 40.5t9 69.5h-129q-26 0 -47 -0.5t-37 -5t-24.5 -13.5t-8.5 -25q0 -27 10.5 -44t28 -27.5t39.5 -14.5t45 -4z" />
    <glyph glyph-name="sin_sa.ii" unicode="&#xdc3;&#xdd3;" horiz-adv-x="1400" 
d="M726 1382q-75 0 -144 -9.5t-121 -31.5t-83 -56.5t-31 -83.5q0 -25 10 -47.5t24 -40.5t29 -31t25 -20l-61 -50q34 12 75 12q59 0 103.5 -16.5t74 -53.5t44 -95t14.5 -141q0 -36 -3 -78h-196q-38 0 -74.5 -14t-65 -42.5t-46 -71.5t-17.5 -102q0 -82 23.5 -136t56.5 -86.5
t68.5 -46t60.5 -13.5q18 0 44 6.5t49 23.5t39.5 46.5t16.5 76.5v69h128v-69q0 -47 16.5 -76.5t39.5 -46.5t49 -23.5t44 -6.5q16 0 38 5t45 17.5t46 33.5t41 52t29 73.5t11 98.5q0 60 -18.5 103.5t-48.5 72t-68 42.5t-77 14h-196q-1 15 -1.5 29.5t-0.5 28.5q0 88 19 150
t52 101t77.5 57t94.5 18q75 0 124.5 -26t78.5 -67t41 -91.5t12 -99.5h-128q0 28 -5 55.5t-19 50t-39 36.5t-65 14q-22 0 -42.5 -6.5t-37 -21.5t-26.5 -39.5t-11 -60.5h73q72 0 134 -26t107.5 -73t71 -114t25.5 -148q0 -101 -30 -177.5t-78 -127.5t-108 -76.5t-119 -25.5
q-47 0 -82 13.5t-61 33t-43.5 41.5t-28.5 40q-11 -18 -28.5 -40t-43.5 -41.5t-61.5 -33t-81.5 -13.5q-61 0 -121 28.5t-107.5 81t-77 128t-29.5 169.5v5q0 66 19 124t53 104h-162v128h129q6 77 44 138t100 92q-15 12 -35 31t-37.5 45.5t-29.5 61t-12 78.5q0 76 40.5 130.5
t108 89t154.5 51t179 16.5q110 0 198 -20.5t150 -57.5t95.5 -87.5t33.5 -111.5q0 -38 -14.5 -74t-43 -63.5t-70.5 -44t-97 -16.5q-107 0 -159 57t-52 155q0 34 15.5 73.5t40.5 66.5q-20 2 -40 3t-37 1zM869 1244q0 -41 22 -70t69 -29q48 0 72 27.5t24 62.5q0 22 -10.5 40.5
t-28.5 33.5t-42 26.5t-52 19.5q-23 -23 -38.5 -51t-15.5 -60zM558 768q0 39 -9.5 63.5t-25.5 39t-37 20t-43 5.5q-28 0 -49 -11t-35.5 -29t-23.5 -41t-12 -47h235z" />
    <glyph glyph-name="sin_ha.ii" unicode="&#xdc4;&#xdd3;" horiz-adv-x="1599" 
d="M450 764q3 11 4 22.5t1 17.5q0 52 -33 74.5t-99 22.5q-33 0 -54 -8.5t-33 -22t-16.5 -30.5t-4.5 -33t4 -27h-123q-6 24 -6 48q0 40 15.5 75.5t45 62.5t73 42.5t99.5 15.5q133 0 193.5 -59t60.5 -169q0 -62 -22 -140q-173 0 -267.5 -60t-94.5 -188q0 -71 28.5 -123t75 -87
t106.5 -52t123 -17q84 0 152 22.5t115 62t72.5 92.5t25.5 113q0 49 -8.5 80t-22 48.5t-31.5 24t-37 6.5q-11 0 -25.5 -3.5t-28.5 -13.5t-25.5 -26.5t-17.5 -42.5h-123v61q0 92 30.5 177t88.5 150.5t140.5 104.5t186.5 39q81 0 145 -23.5t112.5 -63t82.5 -91t55.5 -108
t31 -114.5t9.5 -109q0 -119 -34.5 -214.5t-95.5 -162t-143.5 -102.5t-178.5 -36v123q46 4 102.5 23.5t105.5 63.5t82.5 117.5t33.5 184.5q0 90 -26.5 161.5t-70 121t-98 75.5t-111.5 26q-58 0 -107 -19t-87.5 -50.5t-66.5 -73t-44 -86.5q25 20 52.5 28.5t49.5 8.5
q43 0 80 -16.5t64 -51t42 -88.5t15 -129q0 -66 -20.5 -123t-56.5 -103.5t-84 -82.5t-103 -60.5t-114 -37t-116 -12.5q-121 0 -207.5 36.5t-142.5 96t-82.5 135t-26.5 152.5q0 33 7.5 70.5t25.5 74.5t47 71t72 61t100.5 45t132.5 22zM945 1382q-75 0 -144 -9.5t-121 -31.5
t-83 -56.5t-31 -83.5q0 -25 10 -47.5t24 -40.5t29 -31t25 -20l-88 -71l-35 30.5t-40.5 45.5t-33.5 63.5t-14 83.5q0 76 40.5 130.5t108 89t154.5 51t179 16.5q110 0 198 -20.5t150 -57.5t95.5 -87.5t33.5 -111.5q0 -38 -14.5 -74t-43 -64t-70.5 -44.5t-97 -16.5
q-107 0 -159 57.5t-52 155.5q0 34 15.5 73.5t40.5 66.5q-20 2 -40 3t-37 1zM1088 1244q0 -41 22 -70t69 -29q48 0 72 27.5t24 62.5q0 22 -10.5 40.5t-28.5 33.5t-42 26.5t-52 19.5q-23 -23 -38.5 -51t-15.5 -60z" />
    <glyph glyph-name="sin_lla.ii" unicode="&#xdc5;&#xdd3;" horiz-adv-x="1456" 
d="M721 1382q-145 0 -217 -43.5t-72 -125.5q0 -29 10 -54t24 -44t29 -32.5t25 -20.5l-48 -39q49 -3 89 -21.5t69.5 -49t48.5 -70t26 -83.5q7 46 26.5 87t51.5 71.5t75 48.5t96 18t97.5 -27t76.5 -73.5t50 -110.5t18 -137h-737q-66 0 -123 -34q4 -135 37 -232.5t84.5 -160
t116 -92t131.5 -29.5q48 0 94 18t87 49t75 73t59 89t39 97.5t14 98.5h123q0 -44 -12 -101.5t-38 -119t-65 -121t-94 -106.5t-125 -76t-157 -29q-117 0 -201.5 41t-142 110.5t-91 161.5t-46.5 193q-31 -73 -31 -165q0 -138 39 -258.5t107.5 -210t162 -141t203.5 -51.5
q97 0 177 39.5t142 102.5t105 142t67 159l115 -47q-17 -59 -44.5 -121t-66.5 -120t-89 -109.5t-111.5 -90t-135 -61t-158.5 -22.5q-137 0 -254 57t-203 160.5t-135 249t-49 322.5q0 52 9.5 102.5t28.5 97.5t46.5 88.5t63.5 74.5q3 58 18 110t39.5 92.5t58 69t73.5 40.5
q-15 14 -31.5 33.5t-30 44t-22.5 55t-9 66.5q0 66 26.5 119t77 90t124.5 57t169 20q106 0 182 -22.5t125 -59.5t72 -85t23 -98q0 -38 -14.5 -75.5t-43 -67.5t-70.5 -48.5t-97 -18.5q-53 0 -93 16t-66 43.5t-39 64.5t-13 79q0 19 4.5 40.5t12.5 42t18.5 38.5t23.5 31h-2
q-2 0 -4 0.5t-4 0.5zM794 1244q0 -41 22 -70t69 -29q48 0 72 27.5t24 62.5q0 22 -10 43t-27 37.5t-40.5 28.5t-51.5 17q-23 -23 -40.5 -54t-17.5 -63zM459 799h143q-23 55 -56 75.5t-81 20.5q-47 0 -76 -29.5t-42 -83.5q53 17 112 17zM944 895q-48 0 -81 -20.5t-56 -75.5
h259q-17 45 -48 70.5t-74 25.5z" />
    <glyph glyph-name="sin_fa.ii" unicode="&#xdc6;&#xdd3;" horiz-adv-x="1362" 
d="M661 1382q-75 0 -144 -9.5t-121 -31.5t-83 -56.5t-31 -83.5q0 -25 10 -47.5t24 -40.5t29 -31t25 -20l-60 -48q34 10 75 10q63 0 108 -19.5t75.5 -49.5t47.5 -65t25 -66q7 31 24.5 66t48 64.5t75.5 49t108 19.5t121 -25t102 -80t70.5 -143t26.5 -213q0 -64 -13.5 -130.5
t-39.5 -129t-64 -117.5t-88 -96t-111 -65t-132 -24v128q63 0 121 35.5t102 95t70.5 138t26.5 165.5q0 74 -12 135.5t-36 105.5t-60 68.5t-84 24.5q-57 0 -94.5 -28.5t-59 -72t-30 -95.5t-8.5 -99v-122h-128v122q0 47 -8.5 99t-30 95.5t-59 72t-94.5 28.5q-48 0 -84 -26.5
t-60 -71.5t-36 -106t-12 -130q0 -87 26.5 -165.5t70.5 -138t102 -95t121 -35.5v-128q-72 0 -132.5 24t-110.5 65t-88 96t-64 117.5t-39.5 129t-13.5 130.5q0 91 15.5 163.5t43.5 127t65.5 91t81.5 56.5q-15 13 -34.5 31.5t-37 45t-29 60.5t-11.5 77q0 76 40.5 130.5t108 89
t154.5 51t179 16.5q110 0 198 -20.5t150 -57.5t95.5 -87.5t33.5 -111.5q0 -38 -14.5 -74t-43 -63.5t-70.5 -44t-97 -16.5q-107 0 -159 57t-52 155q0 34 15.5 73.5t40.5 66.5q-20 2 -40 3t-37 1zM804 1244q0 -41 22 -70t69 -29q48 0 72 27.5t24 62.5q0 22 -10.5 40.5
t-28.5 33.5t-42 26.5t-52 19.5q-23 -23 -38.5 -51t-15.5 -60z" />
    <glyph glyph-name="sin_ka.u" unicode="&#xd9a;&#xdd4;" horiz-adv-x="1607" 
d="M361 719q35 26 50 53t15 50q0 32 -23 53t-56 21q-32 0 -58 -23t-26 -72v-64h-123v64q0 50 15.5 91t43 70.5t65.5 45.5t83 16q33 0 66.5 -12t60.5 -34t45.5 -53t23.5 -69l78 59q34 25 75 45.5t84.5 34.5t87 21.5t82.5 7.5q63 0 125.5 -14.5t119.5 -43.5t105.5 -73
t84.5 -103t56.5 -133.5t20.5 -164.5q0 -107 -24 -190t-62 -143t-85 -98t-92 -55q-19 -24 -28 -49t-9 -57q0 -25 11 -43.5t28 -31t36.5 -19t36.5 -6.5q30 0 50.5 8.5t33.5 21t19 26t6 22.5q0 26 -13.5 47t-22.5 27l89 69q15 -9 28.5 -25.5t24 -37.5t16.5 -46t6 -51
q0 -30 -14.5 -63.5t-43.5 -61t-73 -46t-102 -18.5q-59 0 -104 20.5t-76.5 52t-47.5 68t-16 69.5q0 35 5 62t18 53.5t35 56t56 68.5q46 18 78 47t52.5 64t32 72.5t17 72.5t6.5 64t1 46q0 90 -28.5 165t-80.5 129t-125.5 84t-163.5 30q-25 0 -54 -3.5t-58.5 -11t-56.5 -18.5
t-48 -27l-51 -38q5 0 9 0.5t9 0.5q102 0 183 -34t137 -94t86 -142t30 -179q0 -98 -25.5 -165t-65.5 -108t-89 -59t-96 -18q-48 0 -85 12.5t-64 31t-44 40t-24 39.5q-14 -23 -35.5 -45.5t-49 -39.5t-60.5 -27.5t-69 -10.5q-63 0 -111.5 18t-82 51t-51 79t-17.5 102q0 20 6 42
t15.5 42t22 37.5t26.5 29.5h-84l-80 91zM357 492v-91q-44 -30 -62 -69t-18 -70q0 -42 14.5 -69t37 -42.5t49 -21.5t50.5 -6q33 0 58.5 13t43.5 35t27 50.5t9 59.5v69h128v-69q0 -40 12.5 -70t33.5 -49.5t48.5 -29t58.5 -9.5q29 0 56.5 12t49 39t34.5 70.5t13 105.5
q0 75 -22.5 135.5t-67.5 103t-112 65t-156 22.5q-23 0 -49.5 -2t-54.5 -8.5t-57.5 -19.5t-57.5 -34l-160 -120h94z" />
    <glyph glyph-name="sin_ga.u" unicode="&#xd9c;&#xdd4;" 
d="M554 492h-123v61q0 92 29 177t84.5 150.5t135.5 104.5t181 39q108 0 187 -46.5t130.5 -120.5t77 -165t25.5 -180q0 -122 -26 -214t-74 -155t-117 -98t-154 -43q-34 -44 -34 -102q0 -25 11 -43.5t28 -31t36.5 -19t36.5 -6.5q30 0 50.5 8.5t33.5 21t19 26t6 22.5
q0 26 -13.5 47t-22.5 27l89 69q15 -9 28.5 -25.5t24 -37.5t16.5 -46t6 -51q0 -30 -14.5 -63.5t-43.5 -61t-73 -46t-102 -18.5q-59 0 -104 20.5t-76.5 52t-47.5 68t-16 69.5q0 35 5 62t18 53.5t35 56t55 69.5q46 4 97.5 20t94.5 58t71.5 116.5t28.5 194.5q0 90 -25.5 162
t-66.5 122.5t-93.5 77.5t-106.5 27q-59 0 -106 -20t-83.5 -52.5t-61.5 -75t-39 -87.5q24 22 49.5 31.5t48.5 9.5q49 0 85.5 -28.5t60.5 -73t35.5 -99t11.5 -106.5q0 -86 -29 -159t-80 -126.5t-121 -84t-152 -30.5q-77 0 -137.5 23t-106.5 62t-78.5 90.5t-53 108.5t-30 115.5
t-9.5 112.5q0 128 35.5 221t95 154.5t137 94t160.5 41.5v-123q-27 -4 -60 -12.5t-66.5 -26t-64.5 -45.5t-55.5 -70t-39 -99.5t-14.5 -134.5q0 -87 23.5 -158.5t63.5 -123t91.5 -79.5t108.5 -28q64 0 112.5 23t81.5 62t50 90t17 107q0 36 -8 68.5t-21.5 57t-32 39t-39.5 14.5
q-25 0 -48.5 -21.5t-37.5 -70.5z" />
    <glyph glyph-name="sin_nnga.u" unicode="&#xd9f;&#xdd4;" horiz-adv-x="1701" 
d="M849 492h-123v61q0 92 29.5 177t85.5 150.5t136.5 104.5t181.5 39q72 0 129 -24t101.5 -64.5t76 -93t51.5 -109.5t29.5 -114t9.5 -107q0 -110 -23.5 -200.5t-68.5 -156.5t-111 -105t-151 -48q-34 -44 -34 -102q0 -25 11 -43.5t28 -31t36.5 -19t36.5 -6.5q30 0 50.5 8.5
t33.5 21t19 26t6 22.5q0 26 -13.5 47t-22.5 27l89 69q15 -9 28.5 -25.5t24 -37.5t16.5 -46t6 -51q0 -30 -14.5 -63.5t-43.5 -61t-73 -46t-102 -18.5q-59 0 -104 20.5t-76.5 52t-47.5 68t-16 69.5q0 35 5 62t18.5 54t35.5 56.5t57 68.5q46 4 95 21t89.5 59.5t66.5 116.5
t26 192q0 86 -22.5 157.5t-60.5 123t-87.5 80t-103.5 28.5q-59 0 -106.5 -19.5t-84 -52t-62 -75t-39.5 -88.5q24 22 49 31.5t48 9.5q49 0 85 -28.5t60 -72.5t36 -98t12 -106q0 -86 -28.5 -159.5t-79.5 -127.5t-121 -84.5t-152 -30.5q-77 0 -136.5 22.5t-103.5 61t-74.5 89
t-49 106.5t-26.5 114.5t-8 112.5q0 67 12.5 127.5t35 110.5t52.5 89t66 63h-45q-72 0 -127.5 -29t-94 -80t-58.5 -121.5t-20 -153.5q0 -81 18.5 -148t44.5 -119t54 -88t47 -53l-80 -100q-47 37 -86.5 91t-69 119.5t-46 141t-16.5 156.5q0 104 30.5 197t87 163t137 111
t179.5 41h289v-128q-27 -4 -59 -12.5t-64 -26.5t-61.5 -46t-52.5 -70.5t-36.5 -100t-13.5 -134.5q0 -87 21.5 -157.5t59 -121t87.5 -77.5t107 -27q64 0 112.5 23.5t81.5 62.5t49.5 90t16.5 107q0 36 -8 68.5t-21.5 56.5t-32 38.5t-39.5 14.5q-25 0 -48.5 -21.5t-37.5 -70.5z
" />
    <glyph glyph-name="sin_nya.u" unicode="&#xda4;&#xdd4;" horiz-adv-x="2278" 
d="M1614 -82q-26 -20 -45 -40.5t-19 -39.5q0 -17 15.5 -27.5t52.5 -10.5h388v256q-41 -29 -86 -42.5t-87 -13.5q-83 0 -152 25t-118.5 73t-77.5 117.5t-28 158.5q0 66 21 133t66 120.5t114.5 87t165.5 33.5q39 0 82.5 -6t91.5 -20v9q0 27 -15 56.5t-41.5 54t-63.5 40.5
t-80 16q-28 0 -56.5 -8.5t-56 -29t-53 -54.5t-47.5 -85h-127q-71 93 -133 135t-123 42q-36 0 -71.5 -12t-68.5 -30t-62.5 -39.5l-53.5 -40.5q95 -10 178.5 -44t146 -89t99 -129t36.5 -164q0 -98 -25.5 -165t-66 -108t-89.5 -59t-96 -18q-48 0 -84.5 12.5t-63 31t-43 40
t-24.5 39.5q-14 -23 -36 -45.5t-49.5 -39.5t-60.5 -27.5t-69 -10.5q-63 0 -112 21.5t-82 58.5t-50.5 86t-17.5 105q0 13 3.5 31t9.5 36t15 34.5t21 28.5h-63l-80 96l387 282v20q0 54 -25.5 76.5t-65.5 22.5q-13 0 -27 -5.5t-26 -16.5t-19.5 -29t-7.5 -42v-66h-122v78
q-65 -7 -110.5 -37t-74.5 -75t-42 -100.5t-13 -113.5q0 -55 11 -109t31.5 -103.5t48.5 -92.5t63 -76l-80 -100q-48 35 -86 87t-64.5 114t-41 131t-14.5 138q0 89 24 172.5t72.5 148t123 103.5t175.5 39h15q29 38 72 59.5t94 21.5q32 0 64.5 -10.5t60.5 -30t49 -48.5t31 -66
l71.5 51.5t84.5 50.5t94.5 38t102.5 15q79 0 160.5 -43t161.5 -149q21 49 52 85t68 60t79 35.5t84 11.5q61 0 119.5 -24t104.5 -72.5t74 -121.5t28 -170q0 -29 -3 -60q-81 29 -148 41.5t-122 12.5q-74 0 -125.5 -20.5t-84 -56t-47.5 -82t-15 -97.5q0 -54 19 -100t51 -79.5
t75.5 -52.5t91.5 -19q43 0 79.5 18t64.5 45t47 59.5t26 61.5l94 -61h1v-574h-535q-52 0 -87.5 12t-57 32.5t-30.5 46t-9 52.5q0 23 13.5 49.5t32 51.5t39.5 45t36 31zM777 656l-218 -159h73v-96q-19 -9 -32.5 -24t-22.5 -32t-13.5 -35.5t-4.5 -33.5q0 -42 13 -71.5
t33.5 -47.5t45 -26t48.5 -8q38 0 66.5 13t48 35t29.5 50.5t10 59.5v69h123v-69q0 -40 12.5 -70t33.5 -49.5t48.5 -29t58.5 -9.5q29 0 57 12t49.5 39t34.5 70.5t13 105.5q0 50 -17 92.5t-46 76.5t-68 59.5t-83 43t-91 26t-92 8.5h-109z" />
    <glyph glyph-name="sin_jnya.u" unicode="&#xda5;&#xdd4;" horiz-adv-x="2094" 
d="M1430 -82q-26 -20 -45 -40.5t-19 -39.5q0 -17 15.5 -27.5t52.5 -10.5h388v256q-41 -29 -86 -42.5t-87 -13.5q-83 0 -152 25t-118.5 73t-77.5 117.5t-28 158.5q0 66 21 133t66 120.5t114.5 87t165.5 33.5q39 0 82.5 -6t91.5 -20v8q0 28 -12.5 58t-39 55t-67 41t-96.5 16
q-27 0 -54.5 -8t-54 -25t-49.5 -45.5t-41 -68.5q0 -1 -20 -1h-44h-64q-9 30 -27 57t-43.5 47t-57 32t-66.5 12q-48 0 -86 -17.5t-64.5 -50.5t-41.5 -79.5t-18 -103.5q27 32 57.5 45t56.5 13q49 0 85 -28.5t60 -72.5t36 -98t12 -106q0 -86 -28.5 -159.5t-79.5 -127.5
t-121 -84.5t-152 -30.5q-77 0 -138.5 23t-108.5 62t-81 90.5t-55.5 108.5t-31.5 115.5t-10 112.5q0 134 42.5 232t122.5 152h-38q-72 0 -128 -29t-94.5 -80t-58.5 -121.5t-20 -153.5q0 -81 18.5 -147t44.5 -117t54 -86t47 -52l-80 -100q-47 37 -86 90t-67.5 117.5t-44.5 139
t-16 155.5q0 104 30 197t86 163t136 111t179 41h289v-128q-41 -5 -91 -22.5t-94 -59.5t-73.5 -114.5t-29.5 -187.5q0 -87 25 -158t66 -121t94.5 -77.5t110.5 -27.5q64 0 112.5 22.5t81.5 60.5t50 88.5t17 106.5q0 36 -8 68.5t-21.5 56.5t-32 38.5t-39.5 14.5
q-25 0 -48.5 -21.5t-37.5 -70.5h-123v147q0 74 22.5 143.5t65.5 123t105 86t140 32.5q33 0 70 -7t72 -25t65.5 -49t51.5 -78q19 39 47.5 68.5t63.5 49.5t74.5 30t81.5 10q63 0 124 -23.5t110 -71.5t79 -121t30 -172q0 -29 -3 -59q-81 29 -148 41.5t-122 12.5
q-74 0 -125.5 -20.5t-84 -56t-47.5 -82t-15 -97.5q0 -54 19 -100t51 -79.5t75.5 -52.5t91.5 -19q43 0 79.5 18t64.5 45t47 59.5t26 61.5l95 -61v-574h-535q-52 0 -87.5 12t-57 32.5t-30.5 46t-9 52.5q0 23 13.5 49.5t32 51.5t39.5 45t36 31z" />
    <glyph glyph-name="sin_ta.u" unicode="&#xdad;&#xdd4;" horiz-adv-x="1504" 
d="M335 896q-64 0 -64 -95v-64h-131v65q0 50 14 91t39.5 70t61 45t78.5 16q41 0 74.5 -12.5t57.5 -34.5t37 -52t13 -65v-12t-1 -12l79 59q87 65 167 97t151 32q102 0 184.5 -36.5t141 -105.5t90.5 -168t32 -225q0 -116 -27.5 -204t-75.5 -148.5t-112.5 -94t-139.5 -40.5
q-34 -44 -34 -102q0 -25 11 -43.5t28 -31t36.5 -19t36.5 -6.5q30 0 50.5 8.5t33.5 21t19 26t6 22.5q0 26 -13.5 47t-22.5 27l89 69q15 -9 28.5 -25.5t24 -37.5t16.5 -46t6 -51q0 -30 -14.5 -63.5t-43.5 -61t-73 -46t-102 -18.5q-59 0 -104 20.5t-76.5 52t-47.5 68t-16 69.5
q0 35 5 62t18 54t35.5 56.5t56.5 68.5q90 8 144 42.5t83 85.5t38 113t9 125q0 91 -23 166t-65 128.5t-101 83t-131 29.5q-48 0 -103 -18.5t-106 -56.5l-30 -22q73 -2 134 -28t104 -74t67 -115.5t24 -151.5q0 -107 -40 -187.5t-105 -134t-148 -80.5t-169 -27q-98 0 -173 18.5
t-125 53t-75.5 83t-25.5 109.5q0 23 7 44t17 39t21.5 31.5t21.5 21.5h-67l-80 91l298 226q24 23 34.5 48.5t10.5 48.5q0 34 -19.5 57.5t-48.5 23.5zM537 129q67 0 128.5 18t108.5 55t75.5 93.5t28.5 134.5q0 62 -19 108t-52.5 77t-79.5 46t-101 15q-24 0 -52.5 -5.5t-59 -16
t-61.5 -27t-59 -37.5l-131 -98h87v-91q-9 -5 -22.5 -16t-26 -26t-21.5 -33t-9 -36q0 -45 22.5 -76t60 -50t85 -27t98.5 -8z" />
    <glyph glyph-name="sin_da.u" unicode="&#xdaf;&#xdd4;" horiz-adv-x="1129" 
d="M405 -82q-26 -20 -45 -40.5t-19 -39.5q0 -17 15.5 -27.5t52.5 -10.5h388v294q-52 -43 -126.5 -68.5t-175.5 -25.5q-91 0 -169.5 31.5t-136.5 86t-91 126.5t-33 153q0 88 31.5 152t88.5 106t135.5 62t172.5 20h245q0 81 -62.5 120t-182.5 39q-35 0 -73 -5t-71.5 -21.5
t-58.5 -48.5t-33 -85h-128q14 84 50 139.5t85.5 88.5t108.5 46.5t120 13.5q76 0 143.5 -20t118 -63t79.5 -111.5t29 -164.5q0 -11 -0.5 -22.5t-1.5 -28.5h-368q-58 0 -112 -10t-96 -34.5t-67 -66t-25 -105.5q0 -70 28 -121t72 -84t97.5 -49t104.5 -16q78 0 135.5 22.5
t95.5 57.5t57 77.5t19 83.5h123v-697h-535q-52 0 -87.5 12t-57 32.5t-30.5 46t-9 52.5q0 23 13.5 49.5t32 51.5t39.5 45t36 31z" />
    <glyph glyph-name="sin_nda.u" unicode="&#xdb3;&#xdd4;" horiz-adv-x="1418" 
d="M692 -82q-26 -20 -45 -40.5t-19 -39.5q0 -17 15.5 -27.5t52.5 -10.5h388v294q-52 -43 -126.5 -68.5t-175.5 -25.5q-91 0 -169.5 31.5t-136.5 86t-91 126.5t-33 153q0 88 32 152t89 106t136 62.5t173 20.5h245q0 81 -62.5 119.5t-182.5 38.5q-35 0 -74.5 -5t-75 -21.5
t-62 -48t-34.5 -84.5h-123q8 50 24 89t39 69q-5 1 -14 1q-57 0 -107 -29t-87 -81t-58.5 -122.5t-21.5 -153.5q0 -81 19.5 -148t47 -118.5t57 -87t48.5 -52.5l-80 -100q-47 37 -86.5 90t-68 118t-44.5 140t-16 156q0 104 31 198t85.5 164.5t129 112t161.5 41.5q36 0 66 -9.5
t53 -26.5q44 20 92 28t99 8q83 0 151.5 -19.5t117 -62.5t75 -110t26.5 -162v-27.5t-2 -28.5h-368q-58 0 -113 -10t-98 -35t-69.5 -66.5t-26.5 -105.5q0 -70 29 -120.5t74 -83.5t99 -49t105 -16q78 0 135.5 22.5t95.5 57.5t57 77.5t19 83.5h123v-697h-535q-52 0 -87.5 12
t-57 32.5t-30.5 46t-9 52.5q0 23 13.5 49.5t32 51.5t39.5 45t36 31z" />
    <glyph glyph-name="sin_bha.u" unicode="&#xdb7;&#xdd4;" horiz-adv-x="1666" 
d="M65 651v128h98q-6 24 -6 49q0 40 15.5 75.5t45 62.5t73 42.5t99.5 15.5q133 0 193.5 -59t60.5 -169q0 -64 -23 -145q-79 -9 -145 -36.5t-114 -66.5t-74.5 -85.5t-26.5 -92.5q0 -78 31 -125.5t80.5 -73.5t112 -34.5t125.5 -8.5q77 0 144 23t116 62.5t77 92.5t28 113
q0 49 -11 80t-28 48.5t-37.5 24t-39.5 6.5q-11 0 -25.5 -3.5t-28.5 -13.5t-25.5 -26.5t-17.5 -42.5h-123v61q0 92 30.5 177t88.5 150.5t140.5 104.5t186.5 39q81 0 145 -23.5t112.5 -63t82.5 -91t55.5 -108t31 -114.5t9.5 -109q0 -111 -30.5 -202t-84.5 -157t-128.5 -105.5
t-161.5 -48.5q-34 -44 -34 -102q0 -25 11 -43.5t28 -31t36.5 -19t36.5 -6.5q30 0 50.5 8.5t33.5 21t19 26t6 22.5q0 26 -13.5 47t-22.5 27l89 69q15 -9 28.5 -25.5t24 -37.5t16.5 -46t6 -51q0 -30 -14.5 -63.5t-43.5 -61t-73 -46t-102 -18.5q-59 0 -104 20.5t-76.5 52
t-47.5 68t-16 69.5q0 35 5 62t18 54t35.5 56.5t56.5 68.5q46 4 102.5 23.5t105.5 63.5t82.5 117.5t33.5 184.5q0 90 -26.5 161.5t-70 121t-98 75.5t-111.5 26q-58 0 -107 -19t-87.5 -50.5t-66.5 -73t-44 -86.5q25 20 52.5 28.5t49.5 8.5q43 0 82.5 -16.5t69.5 -51t48 -88.5
t18 -129q0 -66 -21.5 -123t-58 -103.5t-85 -82.5t-103.5 -60.5t-113 -37t-113 -12.5q-121 0 -210.5 27t-148.5 77t-88 121t-29 158q0 42 18 85t44 80.5t55 65t50 37.5h-234zM520 779q1 7 1.5 13t0.5 12q0 52 -33 74.5t-99 22.5q-33 0 -54 -8.5t-33 -22t-16.5 -30.5t-4.5 -33
q0 -17 4 -28h234z" />
    <glyph glyph-name="sin_ra.u" unicode="&#xdbb;&#xdd4;" horiz-adv-x="1649" 
d="M756 1413l139 -61q-18 -62 -47.5 -113t-64.5 -92.5t-72 -73.5t-69 -54q91 -11 167 -47.5t130.5 -95t84.5 -139t30 -179.5q0 -119 -33 -221t-96.5 -177t-155.5 -117.5t-210 -42.5q-115 0 -206.5 45.5t-155.5 122t-98 176.5t-34 209q0 105 32.5 187t89.5 140.5t134 93.5
t166 45q35 19 73.5 50.5t75 79t68 113t52.5 151.5zM928 553q0 76 -23.5 139t-70 108.5t-116.5 70.5t-162 25t-160.5 -26t-114 -71.5t-68 -108.5t-22.5 -137q0 -92 28 -170t77.5 -134.5t117 -88.5t145.5 -32q82 0 150 32t117 88.5t75.5 134.5t26.5 170zM1564 -83
q-17 -26 -40 -53t-51.5 -49t-62 -36t-71.5 -14q-51 0 -99 22t-85.5 62t-60 96.5t-22.5 126.5q0 92 24 167.5t63.5 144t91.5 134l108 138.5h-225v123h369v-123l-124.5 -155t-97.5 -142.5t-63.5 -139.5t-22.5 -147q0 -48 12.5 -82.5t33.5 -57t49 -33.5t59 -11q19 0 40 9
t41.5 23.5t39 33.5t33.5 39z" />
    <glyph glyph-name="sin_sha.u" unicode="&#xdc1;&#xdd4;" horiz-adv-x="1490" 
d="M554 492h-123v61q0 92 35.5 177t98 150.5t148.5 104.5t188 39q80 0 144 -22.5t113 -60.5t84.5 -88.5t58.5 -106t33.5 -113t10.5 -110.5q0 -112 -35 -204.5t-95 -160t-139.5 -107.5t-168.5 -49q-34 -44 -34 -102q0 -25 11 -43.5t28 -31t36.5 -19t36.5 -6.5q30 0 50.5 8.5
t33.5 21t19 26t6 22.5q0 26 -13.5 47t-22.5 27l89 69q15 -9 28.5 -25.5t24 -37.5t16.5 -46t6 -51q0 -30 -14.5 -63.5t-43.5 -61t-73 -46t-102 -18.5q-59 0 -104 20.5t-76.5 52t-47.5 68t-16 69.5q0 35 5 62t18 54t35.5 56.5t56.5 68.5q18 1 30.5 12t19.5 26t10 32t3 30
q0 18 -3 30.5l-6.5 26t-6.5 30t-3 42.5q0 39 15 65.5t37 43t46.5 24t42.5 7.5q64 0 101 -32t51 -78q20 63 20 143q0 86 -26 155t-70.5 117t-102.5 73.5t-121 25.5t-113 -18t-89 -49t-67 -71t-47 -84q22 17 45 25t43 8q49 0 85.5 -28.5t60.5 -73t35.5 -99t11.5 -106.5v-15.5
t-1 -15.5q-6 -88 -40 -156.5t-86 -116t-118.5 -72t-136.5 -24.5q-73 0 -132.5 23t-105.5 62t-79.5 90.5t-55 108.5t-32 115.5t-10.5 112.5q0 128 37 221t98 154.5t139.5 94.5t161.5 42v-123q-27 -4 -60.5 -14t-68 -29t-66.5 -48.5t-57.5 -71.5t-40.5 -98t-15 -128
q0 -84 23 -154.5t62 -121.5t90.5 -79.5t108.5 -28.5q52 0 97 15.5t79.5 46.5t57 76.5t28.5 104.5q1 8 1.5 17t0.5 17q0 36 -8 68.5t-21.5 57t-32 39t-39.5 14.5q-25 0 -48.5 -21.5t-37.5 -70.5zM1130 258q1 5 1 9.5v9.5q0 39 -18 65.5t-51 26.5q-35 0 -49.5 -18.5
t-14.5 -43.5q0 -26 8.5 -48t8.5 -50q0 -17 -8 -46q33 16 64.5 39.5t58.5 55.5z" />
    </font>
</defs>
</svg>
