<svg width="98" height="23" viewBox="0 0 98 23" fill="none" xmlns="http://www.w3.org/2000/svg">
<path d="M29.5781 7.52344H26.0938V17H23.75V7.52344H20.3125V5.625H29.5781V7.52344ZM35.1328 12.8359H33.2656V17H30.9219V5.625H35.1484C36.4922 5.625 37.5286 5.92448 38.2578 6.52344C38.987 7.1224 39.3516 7.96875 39.3516 9.0625C39.3516 9.83854 39.1823 10.487 38.8438 11.0078C38.5104 11.5234 38.0026 11.9349 37.3203 12.2422L39.7812 16.8906V17H37.2656L35.1328 12.8359ZM33.2656 10.9375H35.1562C35.7448 10.9375 36.2005 10.7891 36.5234 10.4922C36.8464 10.1901 37.0078 9.77604 37.0078 9.25C37.0078 8.71354 36.8542 8.29167 36.5469 7.98438C36.2448 7.67708 35.7786 7.52344 35.1484 7.52344H33.2656V10.9375ZM47.9844 12.0703H43.4844V15.1172H48.7656V17H41.1406V5.625H48.75V7.52344H43.4844V10.2344H47.9844V12.0703ZM59.3906 17H57.0469L52.4844 9.51562V17H50.1406V5.625H52.4844L57.0547 13.125V5.625H59.3906V17ZM61.4375 17V5.625H64.9375C65.9375 5.625 66.8307 5.85156 67.6172 6.30469C68.4089 6.7526 69.026 7.39323 69.4688 8.22656C69.9115 9.05469 70.1328 9.9974 70.1328 11.0547V11.5781C70.1328 12.6354 69.9141 13.5755 69.4766 14.3984C69.0443 15.2214 68.4323 15.8594 67.6406 16.3125C66.849 16.7656 65.9557 16.9948 64.9609 17H61.4375ZM63.7812 7.52344V15.1172H64.9141C65.8307 15.1172 66.5312 14.8177 67.0156 14.2188C67.5 13.6198 67.7474 12.763 67.7578 11.6484V11.0469C67.7578 9.89062 67.5182 9.01562 67.0391 8.42188C66.5599 7.82292 65.8594 7.52344 64.9375 7.52344H63.7812ZM74.3359 17H71.9922V5.625H74.3359V17ZM85.7656 17H83.4219L78.8594 9.51562V17H76.5156V5.625H78.8594L83.4297 13.125V5.625H85.7656V17ZM96.8125 15.5625C96.3906 16.0677 95.7943 16.4609 95.0234 16.7422C94.2526 17.0182 93.3984 17.1562 92.4609 17.1562C91.4766 17.1562 90.612 16.9427 89.8672 16.5156C89.1276 16.0833 88.5547 15.4583 88.1484 14.6406C87.7474 13.8229 87.5417 12.862 87.5312 11.7578V10.9844C87.5312 9.84896 87.7214 8.86719 88.1016 8.03906C88.487 7.20573 89.0391 6.57031 89.7578 6.13281C90.4818 5.6901 91.3281 5.46875 92.2969 5.46875C93.6458 5.46875 94.7005 5.79167 95.4609 6.4375C96.2214 7.07812 96.6719 8.01302 96.8125 9.24219H94.5312C94.4271 8.59115 94.1953 8.11458 93.8359 7.8125C93.4818 7.51042 92.9922 7.35938 92.3672 7.35938C91.5703 7.35938 90.9635 7.65885 90.5469 8.25781C90.1302 8.85677 89.9193 9.7474 89.9141 10.9297V11.6562C89.9141 12.849 90.1406 13.75 90.5938 14.3594C91.0469 14.9688 91.7109 15.2734 92.5859 15.2734C93.4661 15.2734 94.0938 15.0859 94.4688 14.7109V12.75H92.3359V11.0234H96.8125V15.5625Z" fill="#A8965D"/>
<path d="M2 11.412L5.61111 5L7.9375 8.08369L9.5 7.13734L12 11.412C12 12.5379 11 16.7784 7 16.9921C3 17.2059 2 13.015 2 11.412Z" stroke="#A8965D" stroke-width="4"/>
</svg>